<svg xmlns="http://www.w3.org/2000/svg" width="60" height="60" fill="none" xmlns:v="https://vecta.io/nano"><path d="M34.656 36.607a2.32 2.32 0 0 1-1.864-2.276v-5.233h-10.27v5.233a2.32 2.32 0 0 1-1.864 2.276l-1.251.252v8.404h16.501v-8.404l-1.251-.252z" fill="#fce0a2"/><path d="M27.793 29.098v7.167a2.32 2.32 0 0 0 1.864 2.276l6.251 1.524v-3.206l-1.251-.252a2.32 2.32 0 0 1-1.864-2.276v-5.233h-5z" fill="#f2ca91"/><path d="M45.349 39.429L34.92 36.177a.77.77 0 0 0-.708.132l-6.555 5.217-6.555-5.217a.77.77 0 0 0-.708-.132L9.966 39.429c-4.567 1.345-7.702 5.536-7.702 10.297v6.862a.99.99 0 0 0 .989.989h48.809a.99.99 0 0 0 .989-.989v-6.862c0-4.76-3.135-8.952-7.702-10.297z" fill="#4cbad8"/><path d="M45.349 39.429L34.92 36.177a.77.77 0 0 0-.708.132l-2.975 2.368 9.07 2.828c4.567 1.345 7.702 5.536 7.702 10.297v5.775h4.052a.99.99 0 0 0 .989-.989v-6.862c0-4.76-3.135-8.952-7.702-10.297z" fill="#37a6c4"/><path d="M40.722 23.638h-2.087v-6.051h2.087c1.075 0 1.947.872 1.947 1.947v2.157c0 1.075-.872 1.947-1.947 1.947zm-26.131 0h2.087v-6.051h-2.087c-1.075 0-1.947.872-1.947 1.947v2.157c0 1.075.872 1.947 1.947 1.947z" fill="#f2ca8f"/><path d="M27.657 33.199c-6.728 0-12.182-5.454-12.182-12.182v-3.424c0-6.728 5.454-12.182 12.182-12.182s12.182 5.454 12.182 12.182v3.424c0 6.728-5.454 12.182-12.182 12.182z" fill="#fce0a2"/><path d="M27.657 5.412a12.23 12.23 0 0 0-2.513.26c5.522 1.158 9.669 6.055 9.669 11.922v3.424c0 5.866-4.147 10.763-9.669 11.922a12.23 12.23 0 0 0 2.513.26c6.728 0 12.182-5.454 12.182-12.182v-3.424c0-6.728-5.454-12.182-12.182-12.182z" fill="#f2ca91"/><path d="M29.73.879h-4.146c-7.008 0-12.69 5.681-12.69 12.69v5.013c.333-.594.968-.995 1.697-.995h.884c.001-1.482.267-2.902.752-4.216 5.387-1.526 10.861 2.639 16.815 2.639 2.974 0 5.004-.666 6.376-1.479h.032c.258.998.389 2.025.389 3.056h.884c.729 0 1.364.402 1.697.995v-5.013c0-7.009-5.681-12.69-12.69-12.69z" fill="#f9a058"/><path d="M29.73.879h-4.146l-.44.008c6.804.232 12.25 5.82 12.25 12.682v1.847a9.46 9.46 0 0 0 2.025-.884h.032c.258.998.389 2.025.389 3.056h.884c.729 0 1.364.402 1.698.995v-5.013c0-7.009-5.681-12.69-12.69-12.69z" fill="#ef8d43"/><path d="M47.322 59.121c5.752 0 10.414-4.663 10.414-10.414s-4.663-10.414-10.414-10.414-10.414 4.663-10.414 10.414 4.663 10.414 10.414 10.414z" fill="#e9f6ff"/><path d="M47.323 38.292c-.872 0-1.719.108-2.529.31a10.42 10.42 0 0 1 0 20.21 10.44 10.44 0 0 0 2.529.31c5.752 0 10.415-4.663 10.415-10.415s-4.663-10.415-10.415-10.415z" fill="#ccdfed"/><g fill="#2195bd"><path d="M27.657 41.526L25 43.85a1.11 1.11 0 0 1-1.517-.05l-6.549-6.544 3.46-1.079a.77.77 0 0 1 .708.132l6.555 5.217z"/><path d="M27.657 41.526l2.657 2.324a1.11 1.11 0 0 0 1.517-.05l6.549-6.544-3.46-1.079a.77.77 0 0 0-.708.132l-6.555 5.217z"/></g><path d="M52.677 48.013h-4.475v-4.475a.88.88 0 0 0-.879-.865.88.88 0 0 0-.879.865v4.475h-4.476a.88.88 0 0 0-.865.879.88.88 0 0 0 .865.879h4.476v4.476a.88.88 0 0 0 .879.865.88.88 0 0 0 .879-.865v-4.476h4.475a.88.88 0 0 0 .865-.879.88.88 0 0 0-.865-.879zm-5.355-10.6a11.25 11.25 0 0 0-3.599.588l-5.082-1.584h0l-3.46-1.079a1.65 1.65 0 0 0-1.066.032 1.45 1.45 0 0 1-.444-1.039v-1.722a13.12 13.12 0 0 0 6.57-8.092h.481a2.83 2.83 0 0 0 2.825-2.826v-2.157c0-.413-.09-.805-.249-1.158V13.57a13.45 13.45 0 0 0-1.252-5.7.88.88 0 0 0-1.172-.439.88.88 0 0 0-.423 1.178 11.71 11.71 0 0 1 1.089 4.961v3.26l-.192-.05-.012-.003a2.8 2.8 0 0 0-.426-.061 2.97 2.97 0 0 0-.184-.007h-.005-.034l-.029-.351-.005-.051-.006-.055-.032-.279-.011-.087-.047-.328-.003-.02-.001-.008a13.43 13.43 0 0 0-.072-.408l-.012-.062-.007-.032-.053-.252-.005-.023-.014-.065-.007-.028-.085-.351a.88.88 0 0 0-.105-.241l-.014-.026c-.009-.013-.02-.025-.03-.038-.162-.217-.419-.354-.702-.354h-.011-.032a.88.88 0 0 0-.437.123c-1.518.9-3.513 1.356-5.928 1.356-.305 0-.61-.012-.915-.034a15.93 15.93 0 0 1-1.761-.235l-.062-.011c-1.112-.212-2.217-.522-3.308-.854l-1.178-.365c-3.206-1.005-6.521-2.044-9.831-1.106a.88.88 0 0 0-.585.541l-.002.005a12.89 12.89 0 0 0-.138.396l-.028.085-.008.024-.014.043-.086.28-.04.141-.024.083-.014.051-.015.061a12.61 12.61 0 0 0-.092.369l-.022.09-.005.021-.014.066-.097.479-.004.024-.018.106-.042.268-.026.175-.003.022a13.92 13.92 0 0 0-.054.474l-.004.042-.007.08-.012.149-.009.107h-.034-.005l-.228.01a2.82 2.82 0 0 0-.381.058l-.013.003-.191.05v-3.261c0-6.513 5.298-11.811 11.811-11.811h4.146c3.271 0 6.314 1.307 8.567 3.68a.88.88 0 0 0 1.236.026.88.88 0 0 0 .038-1.236C36.983 1.501 33.488 0 29.73 0h-4.146c-7.482 0-13.569 6.087-13.569 13.569v4.807c-.165.364-.249.759-.249 1.158v2.157a2.83 2.83 0 0 0 2.826 2.826h.481a13.12 13.12 0 0 0 6.57 8.092v1.722c0 .395-.167.77-.444 1.039-.342-.129-.717-.14-1.066-.032l-10.422 3.25c-1.677.495-3.185 1.338-4.481 2.505a.88.88 0 0 0-.072 1.248.88.88 0 0 0 1.248.059 9.77 9.77 0 0 1 3.808-2.127l.013-.004 6.462-2.015 6.173 6.168a1.99 1.99 0 0 0 1.407.58 1.98 1.98 0 0 0 1.309-.49l2.079-1.818 2.079 1.818a1.98 1.98 0 0 0 1.309.49 1.99 1.99 0 0 0 1.407-.58l6.173-6.168 2.745.856c-.678.423-1.309.917-1.883 1.473l-.117.114a11.26 11.26 0 0 0-3.315 7.251l-.004.056-.014.281-.003.081c-.004.114-.005.227-.006.341l.004.29v.014a11.21 11.21 0 0 0 3.302 7.687H9.73v-7.991a.88.88 0 0 0-.879-.865.88.88 0 0 0-.879.865v7.991h-4.72a.11.11 0 0 1-.11-.11v-6.862a9.77 9.77 0 0 1 .965-4.254.88.88 0 0 0-.413-1.173.88.88 0 0 0-1.172.413 11.51 11.51 0 0 0-1.137 5.013v6.862a1.87 1.87 0 0 0 1.868 1.868h38.374C43.3 59.436 45.246 60 47.322 60a11.31 11.31 0 0 0 11.294-11.294 11.31 11.31 0 0 0-11.294-11.293zm-6.719-14.669c.036-.27.063-.541.082-.816l.006-.093.016-.313.004-.106.007-.399v-2.552h.005.003c.043 0 .085.003.127.009.011.001.022.003.033.005a1.02 1.02 0 0 1 .102.021l.025.006c.085.024.167.059.243.103l.013.008a1.19 1.19 0 0 1 .101.068c.086.067.153.137.21.214a1.08 1.08 0 0 1 .073.113l.001.002a1.06 1.06 0 0 1 .136.519v2.157a1.07 1.07 0 0 1-1.068 1.068h-.121l.002-.015zm-26.012.015a1.07 1.07 0 0 1-1.068-1.068v-2.157a1.05 1.05 0 0 1 .21-.632l.012-.016a1.05 1.05 0 0 1 .187-.19c.044-.034.077-.056.111-.076l.015-.009a1.06 1.06 0 0 1 .242-.103.25.25 0 0 1 .026-.007 1.07 1.07 0 0 1 .101-.021l.034-.005a1.33 1.33 0 0 1 .127-.009h.003l.005 2.552a13.23 13.23 0 0 0 .007.399l.004.105.016.313.006.093a12.95 12.95 0 0 0 .082.816l-.119.015zm2.006.598l-.054-.274-.048-.281-.029-.191-.014-.097-.026-.212-.009-.082-.021-.226-.006-.072-.016-.233-.004-.068-.01-.238-.002-.064-.004-.301v-3.417-.014h0c0-.125.003-.249.007-.373l.003-.1v-.01a11.78 11.78 0 0 1 .019-.332l.011-.141.032-.328.015-.122.038-.274.018-.123c.018-.115.039-.229.061-.343l.016-.085c.023-.117.049-.234.077-.351l.024-.098.086-.33a11.12 11.12 0 0 1 .103-.348l.029-.095.007-.02.002-.007a7.92 7.92 0 0 1 .502-.094c1.885-.29 3.827.098 5.839.673.675.193 1.358.407 2.049.623 2.478.777 5.04 1.58 7.75 1.58l.427-.005c2.051-.043 3.844-.399 5.352-1.062l.007.047.047.339.015.133c.016.142.029.283.039.425l.017.287.005.104.001.027c.005.134.008.267.008.401v.002.01 3.42l-.004.301-.003.064-.01.238-.004.068-.016.233-.006.072-.021.226-.009.082-.026.212-.014.097-.029.191-.02.119a12.88 12.88 0 0 1-.083.436 11.33 11.33 0 0 1-10.184 8.93l-.046.003-.239.015-.119.005-.173.007a11.88 11.88 0 0 1-.597 0l-.173-.007-.119-.005-.239-.015-.046-.003a11.33 11.33 0 0 1-10.184-8.93zm7.823 19.831a.23.23 0 0 1-.161.057c-.059-.002-.115-.026-.156-.068l-5.52-5.516 2.016-.629 5.685 4.525-1.864 1.63zm-1.783-6.78c.485-.567.762-1.297.762-2.078v-.962a13.53 13.53 0 0 0 .684.213l.006.002a12.89 12.89 0 0 0 .578.149l.081.019a13.01 13.01 0 0 0 .508.105l.106.02a13.87 13.87 0 0 0 .497.078 13.17 13.17 0 0 0 .597.069l.16.014a13.54 13.54 0 0 0 .439.027l.118.005a13.25 13.25 0 0 0 .481.01 13.25 13.25 0 0 0 .481-.01l.118-.005a13.14 13.14 0 0 0 .439-.027l.16-.014c.2-.018.399-.041.597-.069a12.85 12.85 0 0 0 .497-.078l.106-.02a12.71 12.71 0 0 0 .508-.105l.081-.019a12.79 12.79 0 0 0 .578-.149l.006-.002a12.96 12.96 0 0 0 .684-.213v.962c0 .781.277 1.511.762 2.078l-5.018 3.994-5.018-3.994zm8.571 6.769c-.042.041-.098.066-.156.067s-.116-.018-.16-.057l-1.864-1.631 3.515-2.797 2.088-1.661h0l.083-.066 2.016.629-5.52 5.516zm16.113 15.065a9.55 9.55 0 0 1-9.52-9.009l-.004-.084c-.007-.148-.011-.295-.011-.443a10.44 10.44 0 0 1 .011-.436c.002-.053.006-.107.009-.16l.02-.263.02-.203c.007-.062.015-.124.024-.185a9.58 9.58 0 0 1 2.215-4.953l.13-.15.117-.128c.067-.073.136-.144.205-.215l.07-.071c1.725-1.713 4.099-2.773 6.716-2.773a9.55 9.55 0 0 1 9.536 9.536 9.55 9.55 0 0 1-9.536 9.536z" fill="#000"/></svg>