<svg width="60" height="60" viewBox="0 0 60 60" fill="none" xmlns="http://www.w3.org/2000/svg">
<path d="M34.6562 36.6069C34.1304 36.5012 33.6574 36.2168 33.3176 35.8018C32.9777 35.3869 32.7921 34.8671 32.7921 34.3308V29.0977H22.5216V34.3308C22.5216 34.8671 22.3359 35.3869 21.9961 35.8018C21.6562 36.2167 21.1833 36.5012 20.6575 36.6069L19.4062 36.8584V45.2621H35.9074V36.8584L34.6562 36.6069Z" fill="#FCE0A2"/>
<path d="M27.793 29.0977V36.2643C27.793 36.8006 27.9787 37.3203 28.3185 37.7353C28.6583 38.1502 29.1313 38.4347 29.6571 38.5404L35.908 40.0641V36.8584L34.6568 36.6069C34.1309 36.5012 33.6579 36.2168 33.3181 35.8018C32.9783 35.3869 32.7926 34.8671 32.7927 34.3308V29.0977H27.793Z" fill="#F2CA91"/>
<path d="M45.3487 39.4287L34.9196 36.1769C34.7998 36.1396 34.6727 36.1321 34.5494 36.1552C34.426 36.1783 34.3102 36.2312 34.212 36.3094L27.6573 41.5261L21.1025 36.3094C21.0043 36.2312 20.8885 36.1783 20.7652 36.1552C20.6418 36.1321 20.5147 36.1396 20.3949 36.1769L9.96582 39.4287C5.39914 40.7733 2.26367 44.9651 2.26367 49.7256V56.5875C2.26367 56.8498 2.36788 57.1014 2.55336 57.2869C2.73885 57.4723 2.99042 57.5765 3.25273 57.5765H52.0617C52.324 57.5765 52.5756 57.4723 52.7611 57.2869C52.9465 57.1014 53.0507 56.8498 53.0507 56.5875V49.7256C53.0509 44.9651 49.9154 40.7733 45.3487 39.4287Z" fill="#4CBAD8"/>
<path d="M45.3488 39.4287L34.9197 36.1769C34.7999 36.1396 34.6728 36.1321 34.5494 36.1552C34.4261 36.1783 34.3103 36.2312 34.2121 36.3094L31.2373 38.677L40.3074 41.505C44.8741 42.8496 48.0095 47.0414 48.0095 51.8018V57.5764H52.0619C52.3242 57.5764 52.5758 57.4722 52.7612 57.2867C52.9467 57.1013 53.0509 56.8497 53.0509 56.5874V49.7255C53.0509 44.9651 49.9155 40.7733 45.3488 39.4287Z" fill="#37A6C4"/>
<path d="M40.722 23.6375H38.6355V17.5867H40.722C41.7971 17.5867 42.6687 18.4583 42.6687 19.5334V21.6907C42.6688 22.766 41.7971 23.6375 40.722 23.6375ZM14.5912 23.6375H16.6777V17.5867H14.5912C13.5161 17.5867 12.6445 18.4583 12.6445 19.5334V21.6907C12.6445 22.766 13.5161 23.6375 14.5912 23.6375Z" fill="#F2CA8F"/>
<path d="M27.6565 33.1991C20.9286 33.1991 15.4746 27.7451 15.4746 21.0173V17.5937C15.4746 10.8659 20.9286 5.41187 27.6565 5.41187C34.3843 5.41187 39.8384 10.8659 39.8384 17.5937V21.0173C39.8384 27.7451 34.3843 33.1991 27.6565 33.1991Z" fill="#FCE0A2"/>
<path d="M27.6568 5.41187C26.7951 5.41187 25.9546 5.50187 25.1436 5.67202C30.6655 6.8303 34.8122 11.7275 34.8122 17.5937V21.0173C34.8122 26.8834 30.6655 31.7807 25.1436 32.939C25.9701 33.1122 26.8123 33.1994 27.6568 33.1991C34.3846 33.1991 39.8386 27.7451 39.8386 21.0173V17.5937C39.8386 10.8659 34.3846 5.41187 27.6568 5.41187Z" fill="#F2CA91"/>
<path d="M29.7303 0.878906H25.5845C18.576 0.878906 12.8945 6.56039 12.8945 13.5689V18.5821C13.228 17.9885 13.8627 17.5868 14.592 17.5868H15.4756C15.4764 16.1048 15.7422 14.6849 16.2276 13.3713C21.6141 11.8452 27.0889 16.0103 33.0426 16.0103C36.0162 16.0103 38.0461 15.3448 39.4189 14.531L39.4506 14.5307C39.7087 15.5289 39.8392 16.5558 39.8391 17.5868H40.7227C41.4521 17.5868 42.0868 17.9885 42.4202 18.5821V13.5689C42.4203 6.56039 36.7388 0.878906 29.7303 0.878906Z" fill="#F9A058"/>
<path d="M29.7297 0.878906H25.5839C25.4365 0.878906 25.2898 0.882305 25.1436 0.887344C31.948 1.11949 37.3932 6.70781 37.3932 13.5689V15.4154C38.1893 15.1682 38.8594 14.8624 39.4183 14.5311L39.45 14.5308C39.7081 15.529 39.8386 16.5559 39.8385 17.5869H40.7221C41.4515 17.5869 42.0862 17.9886 42.4196 18.5822V13.569C42.4197 6.56039 36.7382 0.878906 29.7297 0.878906Z" fill="#EF8D43"/>
<path d="M47.3217 59.1211C53.0734 59.1211 57.7361 54.4584 57.7361 48.7067C57.7361 42.9549 53.0734 38.2922 47.3217 38.2922C41.5699 38.2922 36.9072 42.9549 36.9072 48.7067C36.9072 54.4584 41.5699 59.1211 47.3217 59.1211Z" fill="#E9F6FF"/>
<path d="M47.3226 38.292C46.4504 38.292 45.6035 38.3998 44.7939 38.6018C49.3237 39.7318 52.6798 43.827 52.6798 48.7067C52.6798 53.5864 49.3237 57.6815 44.7939 58.8115C45.621 59.0177 46.4702 59.1217 47.3226 59.1214C53.0744 59.1214 57.7372 54.4586 57.7372 48.7068C57.7372 42.955 53.0744 38.292 47.3226 38.292Z" fill="#CCDFED"/>
<path d="M27.6572 41.5261L25.0001 43.8499C24.7881 44.0353 24.5135 44.1333 24.2319 44.1239C23.9504 44.1146 23.6829 43.9986 23.4836 43.7995L16.9346 37.2559L20.3949 36.1769C20.5147 36.1396 20.6418 36.1321 20.7651 36.1552C20.8885 36.1783 21.0043 36.2312 21.1025 36.3094L27.6572 41.5261Z" fill="#2195BD"/>
<path d="M27.6572 41.5261L30.3143 43.8499C30.5264 44.0353 30.801 44.1333 31.0825 44.1239C31.3641 44.1146 31.6316 43.9986 31.8309 43.7995L38.3799 37.2559L34.9196 36.1769C34.7998 36.1396 34.6727 36.1321 34.5493 36.1552C34.426 36.1783 34.3102 36.2312 34.212 36.3094L27.6572 41.5261Z" fill="#2195BD"/>
<path d="M52.6767 48.0134H48.2012V43.5379C48.1974 43.3073 48.1031 43.0874 47.9388 42.9257C47.7744 42.764 47.553 42.6733 47.3224 42.6733C47.0918 42.6733 46.8704 42.764 46.706 42.9257C46.5416 43.0874 46.4473 43.3073 46.4436 43.5379V48.0134H41.9681C41.7375 48.0172 41.5176 48.1114 41.3559 48.2758C41.1942 48.4402 41.1035 48.6616 41.1035 48.8922C41.1035 49.1228 41.1942 49.3442 41.3559 49.5086C41.5176 49.673 41.7375 49.7672 41.9681 49.771H46.4436V54.2466C46.4473 54.4772 46.5416 54.6971 46.706 54.8588C46.8704 55.0205 47.0918 55.1112 47.3224 55.1112C47.553 55.1112 47.7744 55.0205 47.9388 54.8588C48.1031 54.6971 48.1974 54.4772 48.2012 54.2466V49.771H52.6767C52.9072 49.7672 53.1271 49.673 53.2888 49.5086C53.4506 49.3442 53.5412 49.1228 53.5412 48.8922C53.5412 48.6616 53.4506 48.4402 53.2888 48.2758C53.1271 48.1114 52.9072 48.0172 52.6767 48.0134Z" fill="black"/>
<path d="M47.3221 37.4132C46.0985 37.4122 44.8828 37.6108 43.7231 38.0012L38.6415 36.4168L38.6412 36.4167L35.1809 35.3379C34.8269 35.2274 34.4532 35.2436 34.1152 35.3698C33.8377 35.1012 33.6712 34.7259 33.6712 34.3308V32.6084C36.8477 30.9536 39.2626 28.0314 40.2412 24.5164H40.7226C42.2806 24.5164 43.5481 23.2488 43.5481 21.6908V19.5335C43.5481 19.1209 43.4585 18.729 43.2987 18.3752V13.5689C43.2987 11.5787 42.8776 9.66082 42.0467 7.86855C41.9992 7.76222 41.9311 7.66639 41.8462 7.58661C41.7614 7.50684 41.6615 7.44473 41.5525 7.40388C41.4434 7.36303 41.3274 7.34426 41.211 7.34866C41.0946 7.35307 40.9803 7.38055 40.8746 7.42952C40.769 7.47849 40.6741 7.54797 40.5955 7.63392C40.5169 7.71987 40.4562 7.82058 40.4169 7.9302C40.3776 8.03982 40.3604 8.15616 40.3665 8.27245C40.3725 8.38875 40.4016 8.50269 40.452 8.60766C41.1747 10.1667 41.5411 11.8359 41.5411 13.5689V16.8293C41.4776 16.8102 41.4134 16.7934 41.3488 16.7788L41.3371 16.7761C41.1968 16.7448 41.0542 16.7243 40.9107 16.7149C40.8495 16.7107 40.7882 16.7084 40.7268 16.708L40.7223 16.7079H40.6878C40.6798 16.5909 40.6702 16.4741 40.6591 16.3574L40.6544 16.3059C40.6527 16.2877 40.6501 16.2693 40.6482 16.251C40.6387 16.1579 40.6282 16.0651 40.6167 15.9723L40.6058 15.8857C40.5915 15.7762 40.5759 15.667 40.5589 15.5582L40.556 15.538L40.5547 15.5302C40.5329 15.3939 40.509 15.2579 40.483 15.1223L40.4711 15.0604C40.469 15.0497 40.4666 15.0393 40.4645 15.0286C40.4477 14.9446 40.4301 14.8607 40.4117 14.777C40.4101 14.7693 40.4086 14.7614 40.4068 14.7537L40.3927 14.6889C40.3906 14.6796 40.3882 14.6706 40.3861 14.6613C40.3591 14.5439 40.3311 14.4268 40.301 14.3102C40.2783 14.2252 40.243 14.1441 40.1962 14.0696C40.1911 14.0613 40.1873 14.0518 40.1819 14.0436C40.173 14.0302 40.1618 14.0188 40.152 14.0059C39.9897 13.789 39.7334 13.6516 39.4502 13.6516H39.4389L39.4072 13.652C39.2533 13.654 39.1026 13.6963 38.9702 13.7748C37.4519 14.6749 35.4574 15.1312 33.042 15.1312C32.737 15.1312 32.4321 15.1193 32.1275 15.097C31.5391 15.054 30.9516 14.9715 30.3662 14.8622C30.3455 14.8583 30.3248 14.855 30.3041 14.8512C29.1916 14.6396 28.0868 14.3295 26.9961 13.9972C26.6015 13.877 26.2086 13.7542 25.8181 13.6318C22.612 12.627 19.297 11.5877 15.9873 12.5256C15.8541 12.5633 15.7317 12.632 15.6301 12.726C15.5285 12.82 15.4505 12.9367 15.4025 13.0665L15.4007 13.0717C15.3524 13.203 15.3063 13.3351 15.2623 13.4679C15.2529 13.4963 15.2436 13.5247 15.2343 13.5531L15.2265 13.5769L15.2127 13.6195C15.1834 13.7113 15.1549 13.8048 15.1271 13.8994C15.1133 13.9463 15.1002 13.9931 15.0869 14.0401C15.0791 14.0679 15.0709 14.0952 15.0632 14.1232L15.0495 14.1741C15.044 14.1945 15.0398 14.2145 15.0343 14.2349C15.0017 14.3576 14.971 14.4806 14.9421 14.6043C14.935 14.6343 14.9264 14.6645 14.9196 14.6945L14.9151 14.7156C14.9102 14.7376 14.9059 14.7593 14.9011 14.7813C14.8658 14.9404 14.8335 15.1002 14.8044 15.2605L14.8004 15.2844C14.7941 15.3197 14.7886 15.3551 14.7826 15.3904C14.768 15.4766 14.754 15.5662 14.7403 15.6586C14.7316 15.717 14.7226 15.7753 14.7147 15.8339L14.7116 15.8562C14.691 16.0138 14.6731 16.1717 14.6579 16.33C14.6565 16.3443 14.6548 16.3581 14.6536 16.3724L14.6464 16.452C14.642 16.5034 14.6387 16.5518 14.6348 16.6013C14.6321 16.6369 14.6281 16.6723 14.6258 16.7079H14.5914L14.5866 16.7081C14.5104 16.7085 14.4342 16.7119 14.3582 16.7183C14.23 16.7288 14.1027 16.7481 13.9771 16.776L13.9641 16.779C13.8995 16.7938 13.8356 16.8103 13.7727 16.8294V13.5689C13.7727 7.05621 19.0711 1.75781 25.5838 1.75781H29.7295C33.0008 1.75781 36.0433 3.0648 38.2966 5.4382C38.4577 5.60457 38.678 5.70062 38.9095 5.70549C39.141 5.71035 39.3651 5.62364 39.5331 5.46419C39.7011 5.30474 39.7993 5.08545 39.8065 4.85397C39.8136 4.62249 39.7291 4.39754 39.5714 4.22801C36.983 1.50141 33.4878 0 29.7298 0H25.5841C18.1023 0 12.0153 6.08695 12.0153 13.5688V18.3755C11.8508 18.7394 11.7658 19.1342 11.7661 19.5335V21.6908C11.7661 23.2488 13.0337 24.5164 14.5916 24.5164H15.073C16.0516 28.0314 18.4665 30.9536 21.6429 32.6084V34.3308C21.6429 34.7259 21.4762 35.1012 21.1987 35.3698C20.8569 35.241 20.4819 35.2298 20.133 35.3378L9.71059 38.5874C8.03375 39.0821 6.5259 39.925 5.22934 41.0924C5.14222 41.1692 5.0712 41.2626 5.02039 41.3671C4.96958 41.4715 4.93998 41.585 4.93331 41.701C4.92664 41.817 4.94302 41.9331 4.98152 42.0427C5.02002 42.1523 5.07986 42.2532 5.15759 42.3396C5.23532 42.4259 5.32939 42.496 5.43437 42.5457C5.53934 42.5955 5.65314 42.6239 5.76918 42.6294C5.88522 42.6349 6.0012 42.6173 6.1104 42.5777C6.21961 42.5381 6.31989 42.4773 6.40543 42.3987C7.50699 41.4069 8.7882 40.6913 10.2137 40.2716L10.227 40.2675L16.6887 38.2528L22.8621 44.4211C23.2479 44.8065 23.758 45.0013 24.2693 45.0013C24.7506 45.0022 25.2159 44.828 25.5784 44.5113L27.6569 42.6935L29.7355 44.5113C30.0979 44.8282 30.5632 45.0023 31.0446 45.0014C31.5557 45.0014 32.066 44.8066 32.4516 44.4212L38.625 38.2529L41.3696 39.1087C40.6916 39.5316 40.0604 40.0253 39.4868 40.5816C39.4475 40.6195 39.4081 40.6575 39.3695 40.6961C37.4757 42.5762 36.2432 45.1211 36.0547 47.9471L36.0511 48.0034C36.0453 48.0968 36.0407 48.1905 36.0372 48.2845C36.0362 48.3116 36.035 48.3386 36.0342 48.3656C36.0306 48.4793 36.0287 48.593 36.0286 48.7068C36.0286 48.8038 36.0298 48.9006 36.0322 48.9971L36.0327 49.0111C36.1098 51.9502 37.3017 54.6756 39.3349 56.6978H9.73016V48.7068C9.72639 48.4762 9.63215 48.2563 9.46775 48.0946C9.30336 47.9328 9.08198 47.8422 8.85137 47.8422C8.62075 47.8422 8.39938 47.9328 8.23498 48.0946C8.07059 48.2563 7.97634 48.4762 7.97258 48.7068V56.6978H3.2525C3.22327 56.6977 3.19526 56.6861 3.1746 56.6654C3.15395 56.6448 3.14234 56.6167 3.14234 56.5875V49.7256C3.14234 48.2396 3.46695 46.8084 4.10715 45.4718C4.15703 45.3677 4.18591 45.2548 4.19216 45.1396C4.1984 45.0244 4.18189 44.909 4.14355 44.8002C4.10521 44.6913 4.0458 44.5911 3.96872 44.5052C3.89163 44.4193 3.79839 44.3494 3.6943 44.2996C3.48407 44.1989 3.24245 44.1858 3.0226 44.2633C2.80274 44.3407 2.62265 44.5023 2.52195 44.7125C1.76738 46.2881 1.38477 47.9748 1.38477 49.7256V56.5875C1.38477 57.6175 2.22266 58.4555 3.25262 58.4555H41.6271C43.3 59.4364 45.2464 60 47.3221 60C53.5494 60 58.6156 54.9337 58.6156 48.7065C58.6156 42.4793 53.5493 37.4132 47.3221 37.4132ZM40.6034 22.7438C40.6392 22.4743 40.6665 22.2023 40.6855 21.928C40.6877 21.8968 40.6895 21.8657 40.6914 21.8346C40.6979 21.7307 40.703 21.6264 40.7071 21.5218C40.7084 21.4867 40.7101 21.4514 40.7111 21.4162C40.7151 21.2837 40.7178 21.1508 40.7178 21.0173V18.4656H40.7225L40.7254 18.4657C40.7683 18.4658 40.8107 18.4691 40.8527 18.4743C40.8638 18.4757 40.8747 18.4777 40.8856 18.4793C40.9202 18.4847 40.9543 18.4915 40.9878 18.5003C40.9961 18.5024 41.0046 18.5044 41.0128 18.5067C41.0978 18.5309 41.1795 18.5656 41.2561 18.6098L41.2689 18.6177C41.3039 18.6386 41.3375 18.6614 41.3698 18.6861C41.3735 18.6888 41.3771 18.6914 41.3806 18.6942C41.456 18.7535 41.523 18.8226 41.58 18.8998C41.6064 18.9356 41.6313 18.9729 41.6534 19.0123L41.6546 19.0141C41.7436 19.1727 41.7902 19.3516 41.7902 19.5334V21.6907C41.7902 22.2796 41.3111 22.7586 40.7223 22.7586H40.6016L40.6034 22.7438ZM14.5916 22.7587C14.0027 22.7587 13.5236 22.2797 13.5236 21.6908V19.5335C13.5231 19.3056 13.5966 19.0836 13.7332 18.9011L13.7454 18.8848C13.7996 18.8139 13.8625 18.7501 13.9326 18.6949C13.9367 18.6916 13.9411 18.6887 13.9452 18.6855C13.9768 18.6614 14.0098 18.639 14.0439 18.6185L14.0585 18.6096C14.1347 18.5655 14.216 18.531 14.3007 18.507C14.3093 18.5045 14.3179 18.5025 14.3265 18.5003C14.3598 18.4917 14.3936 18.4849 14.4279 18.4795C14.439 18.4778 14.4501 18.4758 14.4614 18.4744C14.5034 18.469 14.5458 18.4661 14.5882 18.4658L14.5916 18.4657L14.5962 21.0175C14.5962 21.1511 14.5989 21.2841 14.6029 21.4167C14.604 21.4516 14.6056 21.4866 14.6069 21.5215C14.6109 21.6262 14.6161 21.7307 14.6226 21.8348C14.6246 21.866 14.6264 21.8971 14.6286 21.9282C14.6476 22.2026 14.6749 22.4746 14.7106 22.744C14.7113 22.7489 14.7117 22.7539 14.7124 22.7589L14.5916 22.7587ZM16.598 23.3569C16.5787 23.2659 16.5606 23.1747 16.5438 23.0832C16.5264 22.9897 16.5103 22.896 16.4954 22.8021C16.4854 22.7385 16.4759 22.6748 16.4669 22.6111C16.4623 22.5787 16.4577 22.5464 16.4533 22.5139C16.444 22.4433 16.4354 22.3725 16.4274 22.3017C16.4244 22.2744 16.421 22.2471 16.418 22.2197C16.4102 22.1444 16.4031 22.0691 16.3967 21.9936C16.3946 21.9696 16.3923 21.9456 16.3903 21.9214C16.3841 21.8438 16.3791 21.7659 16.3745 21.6881C16.3732 21.6655 16.3714 21.643 16.3701 21.6203C16.3661 21.5409 16.3629 21.4615 16.3605 21.382C16.3598 21.3607 16.3586 21.3395 16.358 21.318C16.3553 21.2178 16.354 21.1174 16.3539 21.0171V17.6005L16.3541 17.587V17.5869C16.3542 17.4621 16.3573 17.3378 16.3614 17.2136C16.3626 17.18 16.3632 17.1482 16.3647 17.1137L16.3652 17.1035C16.3699 16.9925 16.3768 16.8819 16.3846 16.7715C16.388 16.7254 16.3914 16.6788 16.3955 16.6305C16.4048 16.521 16.4152 16.4115 16.4277 16.3024C16.4323 16.2608 16.4376 16.2209 16.4427 16.1802C16.4541 16.0886 16.4666 15.9972 16.4804 15.906C16.4865 15.8648 16.4925 15.8227 16.4987 15.7834C16.5171 15.6688 16.5376 15.5546 16.5595 15.4409C16.565 15.4125 16.57 15.3847 16.5758 15.356C16.5993 15.2387 16.6251 15.1219 16.6524 15.0053C16.6602 14.9726 16.6679 14.9399 16.676 14.9068C16.7029 14.7966 16.7314 14.6865 16.7618 14.5771C16.794 14.46 16.8293 14.3441 16.8649 14.2294C16.8747 14.1976 16.8835 14.1656 16.8937 14.134L16.9002 14.1142L16.9026 14.1069C17.0689 14.0702 17.2363 14.0389 17.4046 14.013C19.29 13.7231 21.2314 14.1105 23.2435 14.6857C23.9184 14.8786 24.6011 15.0923 25.2925 15.309C27.7706 16.0857 30.3329 16.8888 33.0421 16.8888C33.1858 16.8888 33.3282 16.8872 33.4694 16.8843C35.5202 16.8411 37.3136 16.485 38.8215 15.8223C38.8239 15.8379 38.8258 15.8538 38.8282 15.8695C38.8454 15.9824 38.861 16.0955 38.8748 16.2089C38.8802 16.2533 38.885 16.2976 38.8898 16.342C38.9054 16.4835 38.9184 16.6252 38.9288 16.7672C38.9357 16.8626 38.9411 16.9582 38.9457 17.0538C38.9473 17.0885 38.9495 17.1238 38.9507 17.158L38.9518 17.1848C38.9566 17.3183 38.9598 17.4519 38.9598 17.5857V17.5874L38.9599 17.5969V21.0171C38.9599 21.1174 38.9585 21.2177 38.9558 21.318C38.9552 21.3394 38.954 21.3606 38.9533 21.382C38.9509 21.4615 38.9477 21.5409 38.9437 21.6203C38.9425 21.6429 38.9407 21.6655 38.9394 21.6881C38.9349 21.7659 38.9297 21.8437 38.9237 21.9214C38.9218 21.9456 38.9193 21.9695 38.9172 21.9936C38.9108 22.0691 38.9037 22.1444 38.8958 22.2197C38.8929 22.2471 38.8895 22.2743 38.8864 22.3017C38.8784 22.3725 38.8698 22.4433 38.8605 22.5139C38.8562 22.5464 38.8515 22.5787 38.8469 22.6111C38.8379 22.6748 38.8285 22.7385 38.8184 22.8021C38.8121 22.8418 38.8054 22.8813 38.7987 22.9209C38.7738 23.0667 38.7461 23.2121 38.7158 23.3569C37.6938 28.1934 33.5702 31.8994 28.5315 32.2868C28.5162 32.288 28.501 32.2888 28.4859 32.2898C28.4064 32.2956 28.3268 32.3009 28.2468 32.3051C28.2073 32.3071 28.1676 32.3082 28.128 32.3099C28.0705 32.3122 28.013 32.3149 27.9553 32.3164C27.7563 32.3216 27.5573 32.3216 27.3583 32.3164C27.3005 32.3149 27.2431 32.3122 27.1856 32.3099C27.146 32.3082 27.1064 32.3072 27.0668 32.3051C26.987 32.3009 26.9073 32.2958 26.8277 32.2898C26.8125 32.2888 26.7972 32.288 26.7821 32.2868C21.7436 31.8994 17.62 28.1934 16.598 23.3569ZM24.4214 43.1882C24.377 43.2268 24.3196 43.2472 24.2608 43.2453C24.202 43.2434 24.1461 43.2192 24.1044 43.1777L18.5841 37.662L20.6005 37.0332L26.2856 41.5579L24.4214 43.1882ZM22.6385 36.4086C23.1236 35.8414 23.4005 35.1118 23.4005 34.3308V33.3686C23.6266 33.4467 23.8549 33.516 24.0843 33.5812L24.0903 33.5829C24.2818 33.6373 24.4746 33.687 24.6683 33.7324L24.7496 33.7513C24.918 33.7896 25.0873 33.8245 25.2573 33.8561C25.2927 33.8626 25.3279 33.8698 25.3634 33.8761C25.5287 33.9052 25.6945 33.9311 25.8608 33.9539C26.0594 33.9813 26.2586 34.0042 26.4582 34.0225C26.5116 34.0273 26.5651 34.0325 26.6186 34.0368C26.7643 34.0482 26.9108 34.057 27.0577 34.0637C27.097 34.0655 27.1364 34.0668 27.1757 34.0682C27.3355 34.074 27.4957 34.078 27.6569 34.078C27.8182 34.078 27.9782 34.074 28.1381 34.0682C28.1775 34.0668 28.2168 34.0655 28.2561 34.0637C28.4026 34.0572 28.549 34.0482 28.6952 34.0368C28.7487 34.0325 28.8022 34.0273 28.8556 34.0225C29.0553 34.0042 29.2545 33.9813 29.453 33.9539C29.6193 33.9312 29.7851 33.9053 29.9504 33.8761C29.9859 33.8698 30.0212 33.8627 30.0566 33.8561C30.2266 33.8245 30.3958 33.7896 30.5642 33.7513L30.6455 33.7324C30.8393 33.687 31.032 33.6373 31.2235 33.5829L31.2295 33.5812C31.4593 33.5167 31.6874 33.4457 31.9133 33.3686V34.3308C31.9133 35.1118 32.1902 35.8414 32.6752 36.4086L27.6568 40.4027L22.6385 36.4086ZM31.2093 43.1777C31.1676 43.2192 31.1118 43.2432 31.0531 43.2452C30.9943 43.2471 30.937 43.2267 30.8927 43.1882L29.0284 41.5576L32.543 38.7604L34.6306 37.099L34.6307 37.0989L34.7134 37.0331L36.7298 37.6618L31.2093 43.1777ZM47.3221 58.2423C42.2409 58.2423 38.0761 54.2471 37.8016 49.2333C37.8001 49.2055 37.7989 49.1776 37.7976 49.1498C37.7904 49.0022 37.7867 48.8544 37.7864 48.7066C37.7864 48.5605 37.7909 48.4155 37.7974 48.2711C37.7998 48.2177 37.8035 48.1645 37.8069 48.1113C37.8123 48.0237 37.819 47.9361 37.8269 47.8487C37.8331 47.781 37.8392 47.7132 37.8468 47.6459C37.8538 47.5838 37.8623 47.5222 37.8704 47.4606C38.1161 45.6114 38.9005 43.8945 40.0855 42.5073C40.1284 42.4573 40.1711 42.4069 40.2151 42.3578C40.2535 42.3146 40.2929 42.2721 40.332 42.2297C40.3992 42.157 40.4675 42.0854 40.5369 42.0149C40.5601 41.9913 40.583 41.9675 40.6065 41.9441C42.3312 40.2312 44.705 39.1709 47.3221 39.1709C52.5802 39.1709 56.8579 43.4486 56.8579 48.7066C56.8579 53.9647 52.5802 58.2423 47.3221 58.2423Z" fill="black"/>
</svg>
