<svg xmlns="http://www.w3.org/2000/svg" width="60" height="60" fill="none" xmlns:v="https://vecta.io/nano"><g clip-path="url(#B)"><mask id="A" maskUnits="userSpaceOnUse" x="0" y="0" width="60" height="60"><path d="M0 0h60v60H0V0z" fill="#fff"/></mask><g mask="url(#A)"><path d="M42.537 28.913c0 1.515-.91 2.744-2.032 2.744s-1.774-1.411-1.774-2.926.652-2.562 1.774-2.562 2.032 1.228 2.032 2.744z" fill="#e8916f"/><path d="M55.315 28.913c0 1.515.91 2.744 2.032 2.744s1.774-1.411 1.774-2.926-.652-2.562-1.774-2.562-2.032 1.228-2.032 2.744zm-4.317 15.159h-4.145V37.42h4.145v6.652z" fill="#d98868"/><use href="#C" fill="#ebad88"/><use href="#D" fill="#e8916f"/><path d="M58.623 48.985v1.405H39.228v-1.405c0-4.086 2.869-7.398 6.408-7.398h6.581c3.539 0 6.407 3.312 6.407 7.398z" fill="#47d5e6"/><path d="M52.216 41.587H48.7c3.539 0 6.408 3.312 6.408 7.398v1.405h3.516v-1.405c0-4.086-2.869-7.398-6.408-7.398z" fill="#22c0d4"/><use href="#E" fill="#dcdfe8"/><use href="#F" fill="#20b5c7"/><path d="M41.434 27.35s.621.251 1.258-.948c.729-1.372 2.649-2.137 4.95-2.054 2.856.104 4.028-.905 4.596-1.918.785 2.6 1.888 1.918 2.606 4.135.411 1.272 1.49.784 1.49.784s2.968-1.726 1.438-4.468c.263-5.508-4.044-5.835-4.044-5.835s-1.968-2.507-7.363-1.203c-7.786 1.882-6.403 7.37-6.403 7.37s-1.339 2.599 1.473 4.136z" fill="#ffd659"/><path d="M57.771 22.883c.263-5.508-4.044-5.835-4.044-5.835s-1.708-2.172-6.297-1.419c.986.2 1.68.553 2.128.856a6.49 6.49 0 0 0 1.532.767c1.245.427 3.351 1.729 3.165 5.631.605 1.084.505 2.008.165 2.731.151.248.293.552.422.952.411 1.272 1.49.784 1.49.784s2.968-1.726 1.438-4.468z" fill="#ffbd54"/><path d="M13.146 44.072H9.002V37.42h4.144v6.652z" fill="#d98868"/><path d="M3.614 31.456v-5.621a7.04 7.04 0 0 1 7.04-7.04h.839a7.04 7.04 0 0 1 7.04 7.04v5.621a7.46 7.46 0 1 1-14.92 0z" fill="#ebad88"/><path d="M11.494 18.795h-.84c-.275.001-.55.017-.824.05 3.5.409 6.217 3.392 6.217 7.012v5.576a7.48 7.48 0 0 1-6.217 7.379c.411.069.827.104 1.243.104 4.12 0 7.46-3.35 7.46-7.483v-5.576c0-3.9-3.152-7.062-7.04-7.062z" fill="#e8916f"/><path d="M20.772 48.985v1.405H1.376v-1.405c0-4.086 2.869-7.398 6.408-7.398h6.581c3.539 0 6.408 3.312 6.408 7.398z" fill="#ff2c5c"/><path d="M14.364 41.587h-3.516c3.539 0 6.408 3.312 6.408 7.398v1.405h3.516v-1.405c0-4.086-2.869-7.398-6.408-7.398z" fill="#e62753"/><path d="M7.968 41.587h6.212l-3.106 8.803-3.106-8.803z" fill="#dcdfe8"/><path d="M11.074 50.391l-2.285-9.645-2.5.842v3.718l4.785 5.085zm0 0l2.285-9.645 2.5.842v3.718l-4.785 5.085z" fill="#d6244d"/><path d="M12.517 22.436s-4.354 1.961-5.858 4.494C4.59 30.413 4.629 34.01 3.51 37.421c0 0-2.631-3.649-2.631-7.48 0-16.435 11.997-14.445 12.533-13.197 2.42-1.014 7.272 1.082 7.272 10.71 0 4.954-.596 8.258-2.235 10.28 0 0-1.006-4.299-1.429-8-.776-6.778-4.503-7.298-4.503-7.298z" fill="#ffd659"/><path d="M13.412 16.744c-.216-.503-2.291-1.126-4.692-.617.425.104.746.369 1.14 1.071.524.935 1.307 1.704 2.278 2.153 2.614 1.208 4.262 3.731 5.047 8.104.185 1.032-.027 2.023-.085 2.927.457 3.537 1.35 7.353 1.35 7.353 1.638-2.022 2.235-5.326 2.235-10.28 0-9.628-4.852-11.725-7.272-10.71z" fill="#ffbd54"/><path d="M20.967 24.339c0 2.136-1.286 3.867-2.873 3.867s-2.508-1.988-2.508-4.124.922-3.61 2.508-3.61 2.873 1.731 2.873 3.867z" fill="#e8916f"/><path d="M39.032 24.339c0 2.136 1.286 3.867 2.873 3.867s2.508-1.988 2.508-4.124-.922-3.61-2.508-3.61-2.873 1.731-2.873 3.867zM32.93 45.703h-5.86v-9.375h5.859v9.375z" fill="#d98868"/><path d="M19.453 27.891v-7.859c0-5.497 4.456-9.953 9.953-9.953h1.187c5.497 0 9.953 4.456 9.953 9.953v7.859A10.55 10.55 0 0 1 30 38.438a10.55 10.55 0 0 1-10.547-10.547z" fill="#ebad88"/><path d="M30.593 10.078h-1.187a10.01 10.01 0 0 0-1.164.07c4.948.577 8.789 4.78 8.789 9.883v7.859a10.55 10.55 0 0 1-8.789 10.4 10.62 10.62 0 0 0 1.758.147 10.55 10.55 0 0 0 10.547-10.547v-7.859c0-5.497-4.456-9.953-9.953-9.953z" fill="#e8916f"/><path d="M43.711 52.629v1.98H16.289v-1.98c0-5.759 4.056-10.427 9.059-10.427h9.304c5.003 0 9.059 4.668 9.059 10.427z" fill="#685c79"/><path d="M34.651 42.202h-3.516c5.003 0 9.059 4.668 9.059 10.427v1.98h3.516v-1.98c0-5.759-4.056-10.427-9.059-10.427z" fill="#594f69"/><path d="M25.608 42.202h8.783L30 54.609l-4.392-12.407z" fill="#ffd659"/><path d="M30 54.609l-3.231-13.594-3.535 1.186v5.24l1.714 1.243v2.253L30 54.609zm0 0l3.23-13.594 3.535 1.186v5.24l-1.714 1.243v2.253L30 54.609z" fill="#50475e"/><path d="M19.408 22.137s.877.354 1.778-1.336c1.03-1.933 3.745-3.012 6.999-2.895 4.037.146 5.695-1.275 6.497-2.703 1.109 3.664 2.67 2.703 3.684 5.828.581 1.792 2.106 1.105 2.106 1.105s4.196-2.433 2.034-6.296c.371-7.764-5.717-8.224-5.717-8.224s-2.783-3.534-10.411-1.696c-11.007 2.652-9.053 10.387-9.053 10.387s-1.893 3.663 2.082 5.829z" fill="#6e4124"/><path d="M42.506 15.84c.372-7.764-5.717-8.224-5.717-8.224s-2.215-2.813-8.11-2.114c3.285.451 4.594 2.114 4.594 2.114s6.088.46 5.717 8.224c1.275 2.278.34 4.058-.643 5.136l.018.055c.582 1.792 2.107 1.105 2.107 1.105s4.196-2.433 2.033-6.296z" fill="#633a21"/></g></g><defs><clipPath id="B"><path fill="#fff" d="M0 0h60v60H0z"/></clipPath><path id="C" d="M41.466 31.456v-5.621a7.04 7.04 0 0 1 7.04-7.04h.839a7.04 7.04 0 0 1 7.04 7.04v5.621a7.46 7.46 0 1 1-14.92 0z"/><path id="D" d="M49.346 18.795h-.84c-.275.001-.55.017-.824.05 3.5.409 6.217 3.392 6.217 7.012v5.576a7.48 7.48 0 0 1-6.217 7.379c.411.069.827.104 1.243.104 4.12 0 7.46-3.35 7.46-7.483v-5.576c0-3.9-3.152-7.062-7.04-7.062z"/><path id="E" d="M45.819 41.587h6.212l-3.106 8.803-3.106-8.803z"/><path id="F" d="M48.926 50.391l-2.285-9.645-2.5.842v3.718l4.785 5.085zm0 0l2.285-9.645 2.5.842v3.718l-4.785 5.085z"/></defs></svg>