<svg width="40" height="42" viewBox="0 0 40 42" fill="none" xmlns="http://www.w3.org/2000/svg">
<path d="M0.689655 8.96552H39.3103V32.4138H0.689655V8.96552Z" fill="#D6D6D4"/>
<path d="M0.689655 8.96552V12.4138C0.689655 13.1454 0.980295 13.8471 1.49764 14.3644C2.01498 14.8818 2.71664 15.1724 3.44828 15.1724C4.17991 15.1724 4.88157 14.8818 5.39892 14.3644C5.91626 13.8471 6.2069 13.1454 6.2069 12.4138C6.2069 13.1454 6.49754 13.8471 7.01488 14.3644C7.53222 14.8818 8.23389 15.1724 8.96552 15.1724C9.69715 15.1724 10.3988 14.8818 10.9162 14.3644C11.4335 13.8471 11.7241 13.1454 11.7241 12.4138C11.7241 13.1454 12.0148 13.8471 12.5321 14.3644C13.0495 14.8818 13.7511 15.1724 14.4828 15.1724C15.2144 15.1724 15.9161 14.8818 16.4334 14.3644C16.9507 13.8471 17.2414 13.1454 17.2414 12.4138C17.2414 13.1454 17.532 13.8471 18.0494 14.3644C18.5667 14.8818 19.2684 15.1724 20 15.1724C20.7316 15.1724 21.4333 14.8818 21.9506 14.3644C22.468 13.8471 22.7586 13.1454 22.7586 12.4138C22.7586 13.1454 23.0493 13.8471 23.5666 14.3644C24.0839 14.8818 24.7856 15.1724 25.5172 15.1724C26.2489 15.1724 26.9505 14.8818 27.4679 14.3644C27.9852 13.8471 28.2759 13.1454 28.2759 12.4138C28.2759 13.1454 28.5665 13.8471 29.0838 14.3644C29.6012 14.8818 30.3029 15.1724 31.0345 15.1724C31.7661 15.1724 32.4678 14.8818 32.9851 14.3644C33.5025 13.8471 33.7931 13.1454 33.7931 12.4138C33.7931 13.1454 34.0837 13.8471 34.6011 14.3644C35.1184 14.8818 35.8201 15.1724 36.5517 15.1724C37.2834 15.1724 37.985 14.8818 38.5024 14.3644C39.0197 13.8471 39.3103 13.1454 39.3103 12.4138V8.96552H0.689655Z" fill="#CFCFCD"/>
<path d="M3.44828 15.8621H24.8276V28.2759H3.44828V15.8621ZM27.5862 15.8621H35.8621V32.4138H27.5862V15.8621Z" fill="#4DB7E5"/>
<path d="M27.5862 15.8621H35.8621V17.2414H27.5862V15.8621Z" fill="#4AAFDB"/>
<path d="M28.2759 8.96552H33.7931L32.4138 0.689655H27.5862L28.2759 8.96552ZM17.2414 0.689655H22.7586V8.96552H17.2414V0.689655ZM6.2069 8.96552H11.7241L12.4138 0.689655H7.58621L6.2069 8.96552Z" fill="#FFB531"/>
<path d="M33.7931 8.96552H39.3103L37.2414 0.689655H32.4138L33.7931 8.96552ZM22.7586 8.96552H28.2759L27.5862 0.689655H22.7586V8.96552ZM11.7241 8.96552H17.2414V0.689655H12.4138L11.7241 8.96552ZM0.689655 8.96552H6.2069L7.58621 0.689655H2.75862L0.689655 8.96552Z" fill="#D75246"/>
<path d="M28.2759 8.96552H33.7931V10.3448C33.7931 11.0765 33.5025 11.7781 32.9851 12.2955C32.4678 12.8128 31.7661 13.1034 31.0345 13.1034C30.3029 13.1034 29.6012 12.8128 29.0838 12.2955C28.5665 11.7781 28.2759 11.0765 28.2759 10.3448V8.96552ZM17.2414 8.96552H22.7586V10.3448C22.7586 11.0765 22.468 11.7781 21.9506 12.2955C21.4333 12.8128 20.7316 13.1034 20 13.1034C19.2684 13.1034 18.5667 12.8128 18.0494 12.2955C17.532 11.7781 17.2414 11.0765 17.2414 10.3448V8.96552ZM6.2069 8.96552H11.7241V10.3448C11.7241 11.0765 11.4335 11.7781 10.9162 12.2955C10.3988 12.8128 9.69715 13.1034 8.96552 13.1034C8.23389 13.1034 7.53222 12.8128 7.01488 12.2955C6.49754 11.7781 6.2069 11.0765 6.2069 10.3448V8.96552Z" fill="#FCAC1F"/>
<path d="M33.7931 8.96552H39.3103V10.3448C39.3103 11.0765 39.0197 11.7781 38.5024 12.2955C37.985 12.8128 37.2834 13.1034 36.5517 13.1034C35.8201 13.1034 35.1184 12.8128 34.6011 12.2955C34.0837 11.7781 33.7931 11.0765 33.7931 10.3448V8.96552ZM22.7586 8.96552H28.2759V10.3448C28.2759 11.0765 27.9852 11.7781 27.4679 12.2955C26.9505 12.8128 26.2489 13.1034 25.5172 13.1034C24.7856 13.1034 24.0839 12.8128 23.5666 12.2955C23.0493 11.7781 22.7586 11.0765 22.7586 10.3448V8.96552ZM11.7241 8.96552H17.2414V10.3448C17.2414 11.0765 16.9507 11.7781 16.4334 12.2955C15.9161 12.8128 15.2144 13.1034 14.4828 13.1034C13.7511 13.1034 13.0495 12.8128 12.5321 12.2955C12.0148 11.7781 11.7241 11.0765 11.7241 10.3448V8.96552ZM0.689655 8.96552H6.2069V10.3448C6.2069 11.0765 5.91626 11.7781 5.39892 12.2955C4.88157 12.8128 4.17991 13.1034 3.44828 13.1034C2.71664 13.1034 2.01498 12.8128 1.49764 12.2955C0.980295 11.7781 0.689655 11.0765 0.689655 10.3448V8.96552Z" fill="#CA4C41"/>
<path d="M0.689655 32.4138H39.3103V35.1724H0.689655V32.4138Z" fill="#E0E0DE"/>
<path d="M3.44828 15.8621H24.8276V17.2414H3.44828V15.8621Z" fill="#4AAFDB"/>
<path d="M16.5517 40.6897H5.51724V30.3448H0.689655V27.5862C0.689655 26.6717 1.05295 25.7946 1.69963 25.1479C2.34631 24.5012 3.22339 24.1379 4.13793 24.1379H17.931C18.8456 24.1379 19.7227 24.5012 20.3693 25.1479C21.016 25.7946 21.3793 26.6717 21.3793 27.5862V30.3448H16.5517V40.6897Z" fill="#348FD9"/>
<path d="M13.7931 22.069V24.1379L11.0345 26.8966L8.27586 24.1379V22.069H13.7931Z" fill="#FEC9A3"/>
<path d="M13.7931 22.069V24.0897C12.9541 24.5731 12.0028 24.8276 11.0345 24.8276C10.0662 24.8276 9.11486 24.5731 8.27586 24.0897V22.069H13.7931Z" fill="#FEC093"/>
<path d="M0.689655 30.3448H5.51724V40.6897H3.44828C2.71664 40.6897 2.01498 40.399 1.49764 39.8817C0.980295 39.3643 0.689655 38.6627 0.689655 37.931V30.3448ZM16.5517 30.3448H21.3793V37.931C21.3793 38.6627 21.0887 39.3643 20.5713 39.8817C20.054 40.399 19.3523 40.6897 18.6207 40.6897H16.5517V30.3448Z" fill="#FEB784"/>
<path d="M5.51724 33.1034H0.689655V37.931H5.51724L17.2414 40.6897H18.6207C19.3523 40.6897 20.054 40.399 20.5713 39.8817C21.0887 39.3643 21.3793 38.6627 21.3793 37.931V35.8621L5.51724 33.1034Z" fill="#FEC093"/>
<path d="M16.5517 33.1034L0.689655 35.8621V37.931C0.689655 38.6627 0.980295 39.3643 1.49764 39.8817C2.01498 40.399 2.71664 40.6897 3.44828 40.6897H4.82759L16.5517 37.931H21.3793V33.1034H16.5517Z" fill="#FEC9A3"/>
<path d="M8.27586 27.5862L11.0345 26.8966L8.27586 24.1379V27.5862ZM13.7931 24.1379L11.0345 26.8966L13.7931 27.5862V24.1379Z" fill="#459DE6"/>
<path d="M5.51724 15.1724H6.2069V17.931H5.51724C5.15143 17.931 4.80059 17.7857 4.54192 17.527C4.28325 17.2684 4.13793 16.9175 4.13793 16.5517C4.13793 16.1859 4.28325 15.8351 4.54192 15.5764C4.80059 15.3177 5.15143 15.1724 5.51724 15.1724ZM16.5517 17.931H15.8621V15.1724H16.5517C16.9175 15.1724 17.2684 15.3177 17.527 15.5764C17.7857 15.8351 17.931 16.1859 17.931 16.5517C17.931 16.9175 17.7857 17.2684 17.527 17.527C17.2684 17.7857 16.9175 17.931 16.5517 17.931Z" fill="#FEC093"/>
<path d="M8.27586 9.65517H13.7931C14.5247 9.65517 15.2264 9.94581 15.7437 10.4632C16.2611 10.9805 16.5517 11.6822 16.5517 12.4138V17.931C16.5517 19.3943 15.9704 20.7976 14.9358 21.8323C13.9011 22.867 12.4977 23.4483 11.0345 23.4483C9.57122 23.4483 8.16789 22.867 7.1332 21.8323C6.09852 20.7976 5.51724 19.3943 5.51724 17.931V12.4138C5.51724 11.6822 5.80788 10.9805 6.32522 10.4632C6.84257 9.94581 7.54423 9.65517 8.27586 9.65517Z" fill="#FEC9A3"/>
<path d="M5.51724 15.8621L7.58621 12.4138H14.4828L16.5517 15.8621V12.4138C16.5517 11.6822 16.2611 10.9805 15.7437 10.4632C15.2264 9.94581 14.5247 9.65517 13.7931 9.65517H8.27586C7.54423 9.65517 6.84257 9.94581 6.32522 10.4632C5.80788 10.9805 5.51724 11.6822 5.51724 12.4138V15.8621Z" fill="#804A32"/>
<path d="M17.2414 8.27586H8.27586C7.54423 8.27586 6.84257 8.5665 6.32522 9.08384C5.80788 9.60118 5.51724 10.3029 5.51724 11.0345V15.8621L7.58621 12.4138H15.1724C15.7211 12.4138 16.2474 12.1958 16.6354 11.8078C17.0234 11.4198 17.2414 10.8936 17.2414 10.3448V8.27586Z" fill="#92563A"/>
<path d="M32.4138 26.2069H33.7931V27.5862H32.4138V26.2069Z" fill="#4AAFDB"/>
<path d="M40 35.1724V28.9655H38.6207V31.7241H36.5517V15.8621C36.5517 15.6792 36.4791 15.5037 36.3497 15.3744C36.2204 15.2451 36.045 15.1724 35.8621 15.1724H27.5862C27.4033 15.1724 27.2279 15.2451 27.0985 15.3744C26.9692 15.5037 26.8966 15.6792 26.8966 15.8621V31.7241H23.4483V33.1034H38.6207V34.4828H23.4483V35.8621H39.3103C39.4933 35.8621 39.6687 35.7894 39.798 35.6601C39.9273 35.5307 40 35.3553 40 35.1724ZM35.1724 31.7241H28.2759V16.5517H35.1724V31.7241ZM4.13793 22.069H2.75862V19.3103H4.13793V22.069ZM24.1379 27.5862V16.5517H20V15.1724H24.8276C25.0105 15.1724 25.1859 15.2451 25.3152 15.3744C25.4446 15.5037 25.5172 15.6792 25.5172 15.8621V28.2759C25.5172 28.4588 25.4446 28.6342 25.3152 28.7635C25.1859 28.8929 25.0105 28.9655 24.8276 28.9655H23.4483V27.5862H24.1379ZM37.9104 0.522414C37.8731 0.3732 37.787 0.240736 37.6658 0.146079C37.5446 0.0514214 37.3952 4.06134e-06 37.2414 0H2.75862C2.60482 4.06134e-06 2.45543 0.0514214 2.3342 0.146079C2.21297 0.240736 2.12687 0.3732 2.08957 0.522414C2.08957 0.522414 0.0213792 8.79509 0.0206034 8.79828C0.00751798 8.851 0.000603935 8.90507 6.16102e-08 8.9594V23.4483H1.37931V13.1016C1.97533 13.5511 2.70174 13.7939 3.44828 13.7931V12.4138C2.89974 12.4132 2.37385 12.195 1.98598 11.8071C1.5981 11.4193 1.37993 10.8934 1.37931 10.3448V9.65517H4.13793V8.27586H1.57293L3.29707 1.37931H6.77207L5.87147 6.78319L7.23198 7.00991L8.17043 1.37931H11.6643L11.2096 6.83931L12.5841 6.95379L13.0484 1.37931H16.5517V6.2069H17.931V1.37931H22.069V8.27586H19.3103V9.65517H22.069V10.3448C22.0688 10.7079 21.9732 11.0646 21.7917 11.379C21.6101 11.6935 21.349 11.9546 21.0346 12.1362C20.7202 12.3179 20.3636 12.4136 20.0005 12.4138C19.6374 12.414 19.2806 12.3187 18.966 12.1374L18.2753 13.3313C19.0058 13.753 19.8655 13.8923 20.6917 13.7228C21.5179 13.5532 22.2533 13.0867 22.7586 12.4114C23.0794 12.8403 23.4957 13.1885 23.9746 13.4284C24.4535 13.6682 24.9817 13.7931 25.5172 13.7931C26.0528 13.7931 26.581 13.6682 27.0599 13.4284C27.5388 13.1885 27.9551 12.8403 28.2759 12.4114C28.5966 12.8403 29.013 13.1885 29.4918 13.4284C29.9707 13.6682 30.4989 13.7931 31.0345 13.7931C31.5701 13.7931 32.0983 13.6682 32.5771 13.4284C33.056 13.1885 33.4724 12.8403 33.7931 12.4114C34.0643 12.7742 34.4045 13.08 34.7941 13.3112C35.1838 13.5423 35.6152 13.6943 36.0637 13.7584C36.5121 13.8226 36.9688 13.7975 37.4076 13.6848C37.8464 13.5721 38.2586 13.3739 38.6207 13.1016V27.5862H40V8.95948C39.9996 8.90514 39.9928 8.85103 39.9797 8.79828L37.9104 0.522414ZM23.4483 1.37931H26.9516L27.5264 8.27586H23.4483V1.37931ZM27.5862 10.3448C27.5862 10.8936 27.3682 11.4198 26.9802 11.8078C26.5922 12.1958 26.066 12.4138 25.5172 12.4138C24.9685 12.4138 24.4423 12.1958 24.0543 11.8078C23.6663 11.4198 23.4483 10.8936 23.4483 10.3448V9.65517H27.5862V10.3448ZM28.3357 1.37931H31.8296L32.979 8.27586H28.9104L28.3357 1.37931ZM33.1034 10.3448C33.1034 10.8936 32.8855 11.4198 32.4975 11.8078C32.1095 12.1958 31.5832 12.4138 31.0345 12.4138C30.4858 12.4138 29.9595 12.1958 29.5715 11.8078C29.1835 11.4198 28.9655 10.8936 28.9655 10.3448V9.65517H33.1034V10.3448ZM33.8026 4.82759L33.2279 1.37931H36.7029L38.4271 8.27586H34.3773L33.8026 4.82759ZM38.6207 10.3448C38.6207 10.8936 38.4027 11.4198 38.0147 11.8078C37.6267 12.1958 37.1004 12.4138 36.5517 12.4138C36.003 12.4138 35.4768 12.1958 35.0887 11.8078C34.7007 11.4198 34.4828 10.8936 34.4828 10.3448V9.65517H38.6207V10.3448ZM33.7931 26.2069H32.4138V22.069H33.7931V26.2069ZM1.43448 27.0338L0.0827586 26.7593C0.0276764 27.0315 -4.7702e-05 27.3085 6.16102e-08 27.5862V37.931C0.00102683 38.8453 0.364656 39.7217 1.01111 40.3682C1.65757 41.0147 2.53405 41.3783 3.44828 41.3793H18.6207C19.5349 41.3783 20.4114 41.0147 21.0579 40.3682C21.7043 39.7217 22.0679 38.8453 22.069 37.931V27.5862C22.0677 26.4891 21.6313 25.4374 20.8556 24.6616C20.0799 23.8859 19.0281 23.4495 17.931 23.4483H14.4828V23.0927C15.233 22.5889 15.8648 21.928 16.3343 21.1558C16.8038 20.3836 17.0998 19.5186 17.2019 18.6207H17.2414C17.7901 18.6207 18.3164 18.4027 18.7044 18.0147C19.0924 17.6267 19.3103 17.1004 19.3103 16.5517C19.3103 16.003 19.0924 15.4768 18.7044 15.0887C18.3164 14.7007 17.7901 14.4828 17.2414 14.4828C17.2414 14.4828 17.2378 12.2557 17.2328 12.1768C17.6829 11.6728 17.9315 11.0206 17.931 10.3448V8.27586C17.931 8.09295 17.8584 7.91754 17.729 7.7882C17.5997 7.65887 17.4243 7.58621 17.2414 7.58621H8.27586C7.36164 7.58723 6.48515 7.95086 5.8387 8.59732C5.19224 9.24377 4.82861 10.1203 4.82759 11.0345V14.4828C4.27886 14.4828 3.75261 14.7007 3.36461 15.0887C2.9766 15.4768 2.75862 16.003 2.75862 16.5517C2.75862 17.1004 2.9766 17.6267 3.36461 18.0147C3.75261 18.4027 4.27886 18.6207 4.82759 18.6207H4.86707C4.96915 19.5186 5.2652 20.3836 5.73471 21.1558C6.20422 21.928 6.83597 22.5889 7.58621 23.0927V23.4483H4.13793C3.49516 23.4457 2.86076 23.5941 2.2858 23.8814C1.71083 24.1688 1.21136 24.5871 0.827586 25.1028L1.93103 25.931C2.18689 25.5873 2.51986 25.3083 2.90316 25.1167C3.28646 24.925 3.70939 24.826 4.13793 24.8276H7.58621V27.5862C7.58621 27.691 7.6101 27.7944 7.65606 27.8886C7.70201 27.9828 7.76883 28.0653 7.85144 28.1298C7.93404 28.1943 8.03026 28.2391 8.13278 28.2608C8.2353 28.2826 8.34143 28.2807 8.4431 28.2553L10.3448 27.7798V33.243L6.2069 32.5234V28.2759H4.82759V29.6552H1.37931V27.5862C1.37923 27.4007 1.39771 27.2156 1.43448 27.0338ZM17.2414 15.8621C17.4243 15.8621 17.5997 15.9347 17.729 16.0641C17.8584 16.1934 17.931 16.3688 17.931 16.5517C17.931 16.7346 17.8584 16.91 17.729 17.0394C17.5997 17.1687 17.4243 17.2414 17.2414 17.2414V15.8621ZM4.82759 17.2414C4.64468 17.2414 4.46926 17.1687 4.33993 17.0394C4.21059 16.91 4.13793 16.7346 4.13793 16.5517C4.13793 16.3688 4.21059 16.1934 4.33993 16.0641C4.46926 15.9347 4.64468 15.8621 4.82759 15.8621V17.2414ZM18.6207 40H17.3215L14.0456 39.2292L16.6318 38.6207H20.5715C20.4284 39.0238 20.1641 39.3728 19.8149 39.6198C19.4656 39.8667 19.0485 39.9996 18.6207 40ZM20.6897 32.4138H17.2414V31.0345H20.6897V32.4138ZM17.931 24.8276C18.6624 24.8284 19.3636 25.1193 19.8808 25.6365C20.3979 26.1536 20.6888 26.8548 20.6897 27.5862V29.6552H17.2414V28.2759H15.8621V32.5234L11.7241 33.243V27.7798L13.6259 28.2553C13.7275 28.2807 13.8337 28.2826 13.9362 28.2608C14.0387 28.2391 14.1349 28.1943 14.2175 28.1298C14.3001 28.0653 14.367 27.9828 14.4129 27.8886C14.4589 27.7944 14.4828 27.691 14.4828 27.5862V24.8276H17.931ZM12.3834 26.5229L13.1034 25.8028V26.7029L12.3834 26.5229ZM15.8621 13.3722L15.673 13.0571C15.7365 13.0457 15.7996 13.032 15.8621 13.0161V13.3722ZM6.2069 12.4138V11.0345C6.20751 10.4859 6.42569 9.96006 6.81356 9.57218C7.20144 9.18431 7.72733 8.96613 8.27586 8.96552H16.5517V10.3448C16.5513 10.7105 16.4058 11.0611 16.1473 11.3197C15.8887 11.5782 15.5381 11.7237 15.1724 11.7241H7.58621C7.46711 11.7241 7.35005 11.755 7.24641 11.8137C7.14278 11.8723 7.0561 11.9568 6.99483 12.059L6.2069 13.3722V12.4138ZM6.2069 17.931V16.0531L7.97664 13.1034H14.0923L15.8621 16.0531V17.931C15.8621 18.565 15.7372 19.1928 15.4946 19.7785C15.252 20.3642 14.8964 20.8964 14.4481 21.3447C13.9998 21.7929 13.4676 22.1485 12.8819 22.3911C12.2962 22.6338 11.6685 22.7586 11.0345 22.7586C10.4005 22.7586 9.77276 22.6338 9.18705 22.3911C8.60134 22.1485 8.06915 21.7929 7.62086 21.3447C7.17258 20.8964 6.81698 20.3642 6.57438 19.7785C6.33177 19.1928 6.2069 18.565 6.2069 17.931ZM8.96552 26.7029V25.8028L9.68552 26.5229L8.96552 26.7029ZM8.96552 23.8523V23.7834C10.3043 24.2561 11.7646 24.2561 13.1034 23.7834V23.8523L11.0345 25.9213L8.96552 23.8523ZM16.6112 33.7931H20.6897V37.2414H16.5517C16.4985 37.2414 16.4455 37.2475 16.3937 37.2597L4.74759 40H3.44828C2.89974 39.9994 2.37385 39.7812 1.98598 39.3933C1.5981 39.0055 1.37993 38.4796 1.37931 37.931V36.4422L16.6112 33.7931ZM5.45767 33.7931L7.0094 34.0629L1.37931 35.0422V33.7931H5.45767ZM4.82759 31.0345V32.4138H1.37931V31.0345H4.82759ZM8.96552 29.6552V31.0345H7.58621V29.6552H8.96552ZM11.0345 20.6288C10.1616 20.6284 9.30851 20.3693 8.58293 19.8841L9.3481 18.7366C9.84712 19.0705 10.434 19.2488 11.0345 19.2488C11.6349 19.2488 12.2218 19.0705 12.7209 18.7366L13.486 19.8841C12.7605 20.3693 11.9073 20.6284 11.0345 20.6288ZM8.62069 17.2414C8.41609 17.2414 8.21608 17.1807 8.04596 17.067C7.87584 16.9534 7.74325 16.7918 7.66495 16.6028C7.58665 16.4137 7.56617 16.2057 7.60608 16.0051C7.646 15.8044 7.74452 15.6201 7.8892 15.4754C8.03387 15.3307 8.2182 15.2322 8.41887 15.1923C8.61954 15.1524 8.82754 15.1729 9.01657 15.2512C9.2056 15.3295 9.36716 15.462 9.48083 15.6322C9.5945 15.8023 9.65517 16.0023 9.65517 16.2069C9.65488 16.4812 9.54579 16.7441 9.35185 16.9381C9.15791 17.132 8.89496 17.2411 8.62069 17.2414ZM12.4138 16.2069C12.4138 16.0023 12.4745 15.8023 12.5881 15.6322C12.7018 15.462 12.8634 15.3295 13.0524 15.2512C13.2414 15.1729 13.4494 15.1524 13.6501 15.1923C13.8508 15.2322 14.0351 15.3307 14.1798 15.4754C14.3244 15.6201 14.423 15.8044 14.4629 16.0051C14.5028 16.2057 14.4823 16.4137 14.404 16.6028C14.3257 16.7918 14.1931 16.9534 14.023 17.067C13.8529 17.1807 13.6529 17.2414 13.4483 17.2414C13.174 17.2411 12.9111 17.132 12.7171 16.9381C12.5232 16.7441 12.4141 16.4812 12.4138 16.2069Z" fill="black"/>
</svg>
