<svg width="20" height="20" viewBox="0 0 20 20" fill="none" xmlns="http://www.w3.org/2000/svg">
<g clip-path="url(#clip0_7_2)">
<path d="M18.9913 1.61939C19.6722 2.29996 19.6722 3.40371 18.9913 4.08429L18.1107 4.9649L15.0609 1.91515L15.9415 1.03454C16.6225 0.353762 17.7263 0.353762 18.407 1.03454L18.9913 1.61939Z" fill="#00ACEA"/>
<path d="M18.1107 4.9649L10.134 12.9422H10.1335L7.08366 9.89241L15.0609 1.91515L18.1107 4.9649Z" fill="#00EFD1"/>
<path d="M7.08366 9.89241L10.1334 12.9422L10.105 12.9706L5.88687 14.1392L7.05522 9.92081L7.08366 9.89241Z" fill="#FEDB41"/>
<path d="M18.4584 12.5133C18.1832 12.5133 17.9603 12.7363 17.9603 13.0114V17.4339C17.9593 18.2588 17.291 18.9271 16.4661 18.9281H2.49041C1.66543 18.9271 0.997158 18.2588 0.996162 17.4339V4.45436C0.997158 3.62964 1.66548 2.96112 2.49041 2.96012H6.91287C7.18796 2.96012 7.41095 2.73718 7.41095 2.46204C7.41095 2.18695 7.18796 1.96396 6.91287 1.96396H2.49041C1.1156 1.9655 0.00154405 3.07961 0 4.45436V17.4339C0.00154405 18.8087 1.1156 19.9227 2.49041 19.9243H16.4661C17.8408 19.9227 18.9549 18.8087 18.9565 17.4339V13.0114C18.9565 12.7364 18.7335 12.5133 18.4584 12.5133Z" fill="#083863"/>
<path d="M18.7594 0.682396C17.8833 -0.191587 16.4653 -0.191587 15.5893 0.682396L6.70308 9.56866C6.64236 9.62949 6.59835 9.70493 6.57527 9.78772L5.40692 14.0061C5.38334 14.091 5.38272 14.1807 5.40515 14.2659C5.42757 14.3512 5.47223 14.429 5.53455 14.4913C5.59688 14.5537 5.67464 14.5983 5.75988 14.6208C5.84513 14.6432 5.93481 14.6427 6.01976 14.6191L10.2381 13.4506C10.3211 13.4276 10.3967 13.3835 10.4576 13.3225L10.4858 13.2942L19.3435 4.43643C20.2189 3.5613 20.2189 2.14232 19.3435 1.26714L18.7594 0.682396ZM7.31965 10.8327L9.19308 12.7064L6.60157 13.4243L7.31965 10.8327ZM10.1338 12.9424V12.942L10.4586 13.2667L10.1338 12.9424ZM10.1338 12.2381L7.78815 9.89241L15.061 2.61963L17.4064 4.9649L10.1338 12.2381ZM18.6391 3.73215L18.1107 4.26061L15.7654 1.91515L16.2939 1.38668C16.7803 0.901253 17.5681 0.901253 18.0546 1.38668L18.6391 1.97173C19.1255 2.45776 19.1255 3.24612 18.6391 3.73215Z" fill="#083863"/>
</g>
<defs>
<clipPath id="clip0_7_2">
<rect width="20" height="20" fill="white"/>
</clipPath>
</defs>
</svg>
