<svg xmlns="http://www.w3.org/2000/svg" width="60" height="60" fill="none" xmlns:v="https://vecta.io/nano"><g clip-path="url(#A)"><path d="M36.3 50.145c-.606-.331-1.138-.782-1.565-1.325l-.004.006-2.601-.506a1.21 1.21 0 0 1-.795-.643l.337 5.814 2.969-.934.401-.126c.364-.115.696-.33.919-.64a1.79 1.79 0 0 0 .339-1.049v-.592-.006zm22.578-6.246c-.033-.591-.254-1.156-.63-1.612s-.89-.781-1.463-.925l-1.346-.34-3.495-.882c-.405-.102-.797-.246-1.171-.431l-1.674-.825c-.315-.155-.58-.396-.766-.694a1.88 1.88 0 0 1-.284-.994v-2.053a6.71 6.71 0 0 1-6.44 0v.078c2.919 1.421 4.983 4.906 4.983 8.984 0 1.151-.166 2.254-.468 3.277a1.21 1.21 0 0 1-.869.838c-.86.211-1.73.381-2.606.507l-.002-.007a5.1 5.1 0 0 1-1.568 1.326l.001.005v.592a1.79 1.79 0 0 0 .339 1.049c.224.31.555.525.919.64l.401.126 3.693 1.162c.753.237 1.417.698 1.902 1.321s.77 1.379.816 2.167l.128 2.206h9.365a.77.77 0 0 0 .561-.241c.072-.076.128-.166.164-.265a.77.77 0 0 0 .046-.308l-.535-14.701z" fill="#f98fa6"/><path d="M54.423 28.365c-.5.794-1.383 1.323-2.39 1.323-.154 0-.304-.016-.451-.039-.159 2.369-1.549 4.414-3.533 5.495v2.053a1.88 1.88 0 0 0 .897 1.599c.221.136-.059-.024 1.826.914.274.133.557.246.847.338l.155.045c.996-.364 1.875-.944 2.444-1.845 1.044-1.653.435-3.254.05-3.971-.135-.252-.112-.554.042-.795 1.293-2.028.682-4.002.112-5.117zm-19.035 5.912a4.54 4.54 0 0 0-.484 1.441c1.124-.752 2.414-1.18 3.786-1.18 1.032 0 2.016.244 2.919.684v-.078c-1.984-1.081-3.374-3.127-3.533-5.495-.147.024-.297.039-.451.039a2.82 2.82 0 0 1-2.39-1.323c-.571 1.115-1.181 3.09.112 5.117.154.241.177.543.042.794z" fill="#fce4be"/><path d="M16.747 46.052a2.11 2.11 0 0 1-.336.029c-.332 0-.659-.078-.954-.229s-.551-.368-.747-.636-.325-.578-.377-.906-.027-.663.074-.978l-.759.759c-.156.156-.369.244-.59.244s-.433-.088-.59-.244l-3.398-3.397a.46.46 0 0 1-.131-.37l-1.301.381-4.02 1.012a2.93 2.93 0 0 0-2.211 2.679L.587 58.554c-.006.111.01.221.048.325s.097.199.173.28.168.145.27.188.211.066.322.066h9.79l.128-2.206c.046-.788.33-1.544.816-2.167s1.149-1.084 1.902-1.321l2.919-.919 1.174-.37c.364-.115.696-.33.919-.64a1.79 1.79 0 0 0 .339-1.049v-.592c.016.009.034.016.05.024-1.509-.797-2.571-2.336-2.692-4.123z" fill="#a57453"/><path d="M15.208 42.25c.129-.09.268-.166.413-.225v-1.331a6.13 6.13 0 0 1 1.636-4.168c-.325.044-.653.067-.981.067a7.36 7.36 0 0 1-3.421-.843v1.208c0 .754-.331 1.456-.884 1.936l3.11 3.11a.46.46 0 0 1 .127.244z" fill="#b57d7d"/><path d="M31.335 47.678c-.032-.063-.058-.129-.079-.196a11.58 11.58 0 0 1-.468-3.277l.04-.976a2.93 2.93 0 0 0-1.894-1.511l-.997-.251v.559c.771.313 1.315 1.068 1.315 1.951 0 .558-.222 1.094-.617 1.489s-.93.617-1.489.617c-.115 0-.227-.012-.336-.029-.119 1.767-1.159 3.29-2.641 4.094l.001.004v.592c0 .377.119.744.339 1.049s.555.525.919.64l4.094 1.288a3.87 3.87 0 0 1 .713.308c.227-.126.466-.229.713-.308l.724-.228-.337-5.814z" fill="#a57453"/><g fill="#f9d0b4"><path d="M24.972 39.682h-6.387c-.994 0-1.842.785-1.85 1.779v4.253a5.06 5.06 0 0 0 5.043 5.043 5.06 5.06 0 0 0 5.043-5.043v-4.253c-.008-.994-.855-1.779-1.85-1.779z"/><path d="M27.146 41.871c-.11 0-.218.009-.324.026v3.818l-.013.338a2.12 2.12 0 0 0 .336.029c.278.003.555-.049.813-.154s.493-.259.691-.455.355-.429.462-.686.162-.533.162-.811-.055-.554-.162-.811-.264-.49-.462-.686-.433-.351-.691-.455-.534-.157-.813-.154zm-10.41 3.843v-3.818c-.3-.047-.607-.028-.899.055s-.563.228-.794.426-.416.443-.543.719-.193.576-.193.88c0 .276.055.55.16.806s.261.488.457.683.428.351.683.456.529.16.806.16c.115 0 .227-.012.336-.029l-.013-.338z"/></g><path d="M21.779 34.537a6.18 6.18 0 0 0-6.158 6.158v1.331c.251-.102.52-.155.791-.155.11 0 .218.009.324.026v-.435c.008-.995.856-1.779 1.85-1.779h6.387c.994 0 1.842.785 1.85 1.779v.435c.106-.016.213-.026.324-.026.271 0 .54.053.791.155v-1.331a6.18 6.18 0 0 0-6.158-6.158z" fill="#fce4be"/><path d="M43.444 42.832a4.66 4.66 0 0 1-4.282-2.054c-.051-.078-.121-.142-.204-.187s-.174-.068-.268-.068-.186.023-.268.068-.152.108-.204.187a4.66 4.66 0 0 1-4.282 2.054l-.289-.036v2.918a5.06 5.06 0 0 0 5.043 5.043 5.06 5.06 0 0 0 5.043-5.043v-2.918l-.289.036z" fill="#f9d0b4"/><path d="M38.69 34.537c-4.364 0-7.902 4.328-7.902 9.667 0 1.151.166 2.254.468 3.277.06.204.172.389.325.536s.343.252.549.303a27.34 27.34 0 0 0 2.601.506 5.01 5.01 0 0 1-1.084-3.113v-2.918a4.49 4.49 0 0 0 .289.036 4.66 4.66 0 0 0 4.282-2.054c.052-.078.122-.142.204-.186s.174-.067.268-.067.186.023.268.067.153.108.204.186a4.66 4.66 0 0 0 4.282 2.054 4.51 4.51 0 0 0 .289-.036v2.918a5.01 5.01 0 0 1-1.084 3.113c.876-.127 1.746-.296 2.606-.508a1.21 1.21 0 0 0 .869-.838c.312-1.064.47-2.168.468-3.277 0-5.339-3.538-9.667-7.902-9.667z" fill="#5b5d60"/><path d="M25.427 52.431c-.364-.115-.696-.33-.919-.64a1.79 1.79 0 0 1-.339-1.049v-.592a5 5 0 0 1-4.78 0v.592a1.79 1.79 0 0 1-.339 1.049c-.224.31-.555.525-.919.64l-4.094 1.288c-.753.237-1.417.698-1.902 1.321s-.77 1.379-.816 2.168l-.128 2.206h16.911l.128-2.206c.048-.826.357-1.615.884-2.253.312-.377.692-.692 1.121-.928-.227-.126-.466-.229-.713-.308l-4.094-1.288z" fill="#b2e26d"/><path d="M38.69 50.757a5 5 0 0 1-2.39-.606v.592a1.79 1.79 0 0 1-.339 1.049c-.224.31-.555.525-.919.64l-4.094 1.288c-.754.237-1.417.698-1.902 1.321s-.77 1.379-.816 2.168l-.128 2.206h21.176l-.128-2.206c-.046-.788-.33-1.544-.816-2.168s-1.149-1.084-1.902-1.321l-4.094-1.288c-.364-.115-.696-.33-.919-.64a1.79 1.79 0 0 1-.339-1.049v-.592a5 5 0 0 1-2.39.607z" fill="#f5c84c"/><g fill="#f9d0b4"><path d="M44.693 42.54a4.54 4.54 0 0 1-.96.255v2.918l-.013.338c.111.019.224.028.336.029.364 0 .721-.095 1.038-.274s.581-.438.768-.75.29-.668.298-1.031-.077-.724-.249-1.044c-.233-.431-.762-.618-1.219-.441zm-11.047.255a4.54 4.54 0 0 1-.96-.255c-.457-.177-.986.01-1.219.441-.172.321-.258.681-.249 1.044s.111.719.298 1.031.451.571.768.75.674.274 1.038.274c.115 0 .227-.012.336-.029l-.013-.338v-2.918zm18.386-18.761a2.82 2.82 0 0 0-.434.034v5.125l-.017.454c.147.024.297.039.451.039 1.561 0 2.826-1.265 2.826-2.826s-1.265-2.826-2.826-2.826z"/><path d="M48.067 21.824c-1.031 1.203-4.687 4.854-10.008 3.339v4.031c0 3.723 3.046 6.77 6.77 6.77s6.77-3.046 6.77-6.77v-5.469a.53.53 0 0 0-.416-.516c-.685-.159-1.517-.555-2.47-1.422a.45.45 0 0 0-.33-.119.45.45 0 0 0-.315.155z"/><path d="M38.06 25.162a11.01 11.01 0 0 1-1.432-.52.86.86 0 0 0-.936.161 2.81 2.81 0 0 0-.893 2.058c0 1.561 1.265 2.826 2.826 2.826.154 0 .304-.016.451-.039l-.017-.454v-4.032z"/></g><path d="M35.692 24.803a.86.86 0 0 1 .936-.161c.465.206.943.38 1.432.52 5.321 1.516 8.977-2.135 10.008-3.339.039-.046.087-.083.142-.11a.45.45 0 0 1 .35-.02.45.45 0 0 1 .153.093c.953.866 1.785 1.263 2.47 1.422a.53.53 0 0 1 .416.516v.344c.44-.069.89-.033 1.314.105s.808.375 1.122.691V23.21c0-5.063-4.143-9.205-9.205-9.205s-9.206 4.142-9.206 9.206v1.664c.023-.023.044-.048.068-.07z" fill="#fce4be"/><path d="M46.5 45.665c-.076.615-.201 1.223-.376 1.817a1.21 1.21 0 0 1-.869.838l-2.606.507-.004-.006c-.426.542-.958.992-1.563 1.323l-.002.007v.592a1.79 1.79 0 0 0 .339 1.049c.224.31.555.525.919.64l.4.126 3.693 1.162c.753.237 1.417.698 1.902 1.321s.77 1.379.816 2.167l.128 2.206h.958V44.303c-1.147.688-2.415 1.151-3.736 1.361z" fill="#70d6f9"/><g fill="#f9d0b4"><path d="M49.099 38.884c-.315-.155-.58-.396-.766-.694a1.88 1.88 0 0 1-.284-.994v-2.053a6.71 6.71 0 0 1-6.44 0v.078c2.736 1.332 4.719 4.478 4.957 8.225.05.74.028 1.483-.066 2.218 1.321-.211 2.589-.673 3.736-1.362v-4.858l-1.137-.561zm-32.822-2.29c.333 0 .66-.024.981-.067a6.15 6.15 0 0 1 4.118-1.975c1.43-1.356 2.327-3.269 2.327-5.384v-6.232a3.84 3.84 0 0 0-1.061-2.65 1.36 1.36 0 0 0-1.829-.122c-.875.687-2.389 1.536-4.528 1.536-2.144 0-3.666-.853-4.545-1.541a1.36 1.36 0 0 0-1.826.124l-.003.003a3.84 3.84 0 0 0-1.061 2.65v6.232a7.45 7.45 0 0 0 7.426 7.426z"/><path d="M15.205 42.252c.13-.091.269-.167.416-.227v-1.331a6.13 6.13 0 0 1 1.636-4.168 7.38 7.38 0 0 1-.981.067 7.36 7.36 0 0 1-3.421-.843v1.208c0 .754-.331 1.456-.885 1.936l3.11 3.11c.07.07.109.156.124.247zm8.974-18.744c-.162 0-.321.014-.476.038v5.622l-.019.498c.162.026.326.043.495.043a3.1 3.1 0 1 0 0-6.201zM8.85 29.168v-5.622c-.158-.025-.317-.037-.476-.038a3.1 3.1 0 1 0 0 6.201c.169 0 .334-.017.495-.043l-.019-.498z"/></g><path d="M23.675 17.174c-.249 0-.464-.192-.468-.44-.057-4.138-4.782-4.915-9.488-4.103a8.32 8.32 0 0 0-6.906 8.197v3.105c.473-.278 1.012-.424 1.561-.424a3.09 3.09 0 0 1 .476.038v-.61a3.84 3.84 0 0 1 1.061-2.65l.003-.003a1.36 1.36 0 0 1 1.826-.124c.879.688 2.401 1.541 4.545 1.541 2.139 0 3.653-.849 4.528-1.536a1.36 1.36 0 0 1 1.829.122 3.84 3.84 0 0 1 1.061 2.65v.61c.158-.025.317-.037.476-.038a3.08 3.08 0 0 1 1.577.434v-2.549c0-3.705-1.338-4.22-2.081-4.22z" fill="#5b5d60"/><path d="M6.164 51.013H1.025l-.437 7.541c-.006.111.01.221.048.325s.097.199.173.28.168.145.27.188.211.066.322.066h4.763v-8.401z" fill="#f9d0b4"/><path d="M13.648 44.091l.759-.759a2.11 2.11 0 0 1 .8-1.082.46.46 0 0 0-.127-.244l-3.239-3.239a1.06 1.06 0 0 0-.748-.31 1.06 1.06 0 0 0-.405.081c-.128.053-.245.131-.343.23L9.071 40.04c-.18.181-.18.473 0 .654l3.398 3.398c.156.156.369.244.59.244s.433-.088.59-.244z" fill="#c18e6b"/><path d="M16.956 52.801c.844 1.822 2.692 3.095 4.823 3.095s3.978-1.273 4.823-3.095l-1.174-.37c-.364-.115-.696-.33-.919-.64a1.79 1.79 0 0 1-.339-1.049v-.592a5 5 0 0 1-4.78 0v.592a1.79 1.79 0 0 1-.339 1.049c-.224.31-.555.525-.919.64l-1.175.37zm21.734 2.721c1.654 0 3.128-1.169 4.049-2.965l-.401-.126c-.364-.115-.696-.33-.919-.64a1.79 1.79 0 0 1-.339-1.049v-.592c-.733.399-1.555.607-2.39.606a5 5 0 0 1-2.39-.606v.592a1.79 1.79 0 0 1-.339 1.049c-.224.31-.555.525-.919.64l-.401.126c.921 1.796 2.395 2.965 4.049 2.965z" fill="#f9d0b4"/><g fill="#000"><path d="M58.643 60h-9.364c-.155 0-.304-.062-.414-.172s-.172-.259-.172-.414.062-.304.172-.414.259-.172.414-.172h9.365c.025 0 .05-.005.073-.015s.044-.025.062-.043.031-.04.04-.064.012-.049.011-.074l-.536-14.711c-.053-.951-.717-1.755-1.651-1.99l-4.84-1.222a6.52 6.52 0 0 1-1.287-.473l-1.674-.826a2.45 2.45 0 0 1-1.377-2.213v-1.901c0-.155.062-.304.172-.414s.259-.172.414-.172.304.062.414.172.172.259.172.414v1.901a1.29 1.29 0 0 0 .723 1.163l1.674.825c.337.166.691.296 1.055.388l4.841 1.222c.696.173 1.318.565 1.775 1.118s.723 1.238.761 1.955l.536 14.712c.02.36-.114.727-.37.997-.127.134-.28.241-.449.314a1.36 1.36 0 0 1-.536.111z"/><path d="M54.093 59.752c-.155 0-.304-.062-.414-.172s-.172-.259-.172-.414V46.981c0-.155.062-.304.172-.414s.259-.172.414-.172.304.062.414.172.172.259.172.414v12.186c0 .155-.062.304-.172.414s-.259.172-.414.172zM44.83 33.055c-.96 0-1.862-.393-2.414-1.052-.1-.119-.148-.273-.135-.428s.088-.298.207-.398.273-.148.428-.135.298.088.398.207c.332.396.899.633 1.516.633s1.184-.236 1.516-.633c.1-.119.243-.194.398-.207s.309.035.428.135.194.243.207.398-.035.309-.135.428c-.552.658-1.455 1.052-2.414 1.052z"/><use href="#B"/><path d="M41.884 28.52a.88.88 0 0 0 .877-.877.88.88 0 0 0-.877-.877.88.88 0 0 0-.877.877.88.88 0 0 0 .877.877zm9.958 12.134c-.137 0-.27-.048-.375-.136s-.177-.21-.201-.345-.001-.274.066-.394.175-.211.303-.26c.948-.358 1.65-.891 2.088-1.585.867-1.372.39-2.708.029-3.382-.231-.431-.206-.962.064-1.386 1.069-1.676.671-3.32.15-4.404a.59.59 0 0 1-.057-.221.6.6 0 0 1 .032-.226.59.59 0 0 1 .116-.197c.051-.057.113-.104.183-.137s.145-.053.221-.057a.6.6 0 0 1 .226.032c.072.025.14.065.197.116s.104.113.137.183c.919 1.911.842 3.879-.218 5.542-.034.053-.056.134-.02.203.388.723 1.157 2.616-.072 4.561-.576.913-1.473 1.605-2.665 2.055a.58.58 0 0 1-.207.038zm-16.931-4.388a.58.58 0 0 1-.246-.054.59.59 0 0 1-.319-.374c-.023-.082-.028-.167-.014-.251a5.14 5.14 0 0 1 .54-1.587c.037-.069.014-.15-.019-.203-1.439-2.257-.744-4.461-.202-5.574a.58.58 0 0 1 .336-.297.59.59 0 0 1 .448.027.58.58 0 0 1 .297.336.59.59 0 0 1-.027.448c-.531 1.09-.939 2.744.137 4.43.271.424.295.956.064 1.387a3.95 3.95 0 0 0-.416 1.219.59.59 0 0 1-.198.352c-.105.09-.24.14-.38.14zM11.191 60H1.4a1.39 1.39 0 0 1-.554-.115c-.175-.076-.333-.185-.464-.324s-.232-.302-.297-.481a1.42 1.42 0 0 1-.084-.559l.821-14.159a3.5 3.5 0 0 1 2.652-3.213l4.02-1.012 1.12-.323a.6.6 0 0 1 .227-.028.58.58 0 0 1 .22.061.59.59 0 0 1 .18.141c.05.058.088.126.112.199a.6.6 0 0 1 .028.227.58.58 0 0 1-.061.22c-.034.068-.083.13-.141.18s-.126.088-.199.112l-1.199.346-4.02 1.012c-.486.12-.92.394-1.238.78s-.504.864-.531 1.363l-.821 14.159c-.002.031.003.062.014.091a.22.22 0 0 0 .049.078c.022.022.047.041.075.053s.059.019.09.018h9.79a.59.59 0 0 1 .414.171c.11.109.172.259.172.414s-.062.304-.172.414-.259.172-.414.172zm4.017-17.164a.59.59 0 0 1-.36-.124c-.103-.08-.176-.192-.208-.319l-3.083-3.083a.58.58 0 0 1-.131-.2.59.59 0 0 1-.04-.235c.003-.08.022-.159.057-.232s.084-.137.145-.19a1.98 1.98 0 0 0 .683-1.494V35.75a.59.59 0 0 1 .282-.502c.086-.053.184-.081.285-.084s.201.02.29.067c.971.512 2.052.778 3.149.776a6.83 6.83 0 0 0 .903-.062c.119-.016.241.005.348.061a.59.59 0 0 1 .25.25.58.58 0 0 1 .061.348c-.016.12-.068.231-.15.32a5.55 5.55 0 0 0-1.481 3.771v1.331c0 .117-.035.231-.1.327s-.158.172-.266.216-.205.097-.297.162c-.1.07-.218.106-.336.106zm-2.422-3.954l2.25 2.25v-.437c-.001-1.243.345-2.461.997-3.519a8 8 0 0 1-2.591-.52v.304c0 .701-.234 1.376-.656 1.922z"/><path d="M6.164 59.819c-.155 0-.304-.062-.414-.172s-.172-.259-.172-.414V46.896c0-.155.062-.304.172-.414s.259-.172.414-.172.304.062.414.172.172.259.172.414v12.337c0 .155-.062.304-.172.414s-.259.172-.414.172zm10.221-27.241c-.978 0-1.898-.401-2.461-1.072-.1-.119-.148-.273-.135-.428s.088-.298.207-.398.273-.148.428-.135.298.088.398.207c.342.409.927.653 1.563.653s1.22-.244 1.563-.652c.049-.059.11-.108.178-.143s.143-.057.22-.064.154.002.227.025.141.06.2.11a.59.59 0 0 1 .207.398c.007.077-.002.154-.025.227s-.06.142-.11.201c-.562.671-1.482 1.072-2.461 1.072z"/><use href="#C"/><path d="M13.034 27.95a1 1 0 0 0 .998-.998 1 1 0 0 0-.998-.998 1 1 0 0 0-.998.998 1 1 0 0 0 .998.998zm8.745 23.393a5.64 5.64 0 0 1-5.629-5.629v-4.257c.01-1.302 1.103-2.361 2.436-2.361h6.387c1.333 0 2.426 1.059 2.436 2.361v4.257c0 3.104-2.525 5.629-5.629 5.629zm-3.193-11.075c-.692 0-1.259.537-1.264 1.198v4.248c0 2.458 1.999 4.457 4.457 4.457s4.457-1.999 4.457-4.457v-4.233c-.005-.676-.572-1.214-1.264-1.214h-6.387z"/><path d="M27.146 46.668c-.155 0-.305-.062-.414-.172s-.172-.259-.172-.414.062-.304.172-.414.259-.172.414-.172a1.52 1.52 0 0 0 1.52-1.52 1.52 1.52 0 0 0-1.52-1.52c-.155 0-.305-.062-.414-.172s-.172-.259-.172-.414.062-.304.172-.414.259-.172.414-.172c1.484 0 2.692 1.208 2.692 2.692s-1.208 2.691-2.692 2.691zm-10.734 0c-1.484 0-2.692-1.207-2.692-2.691s1.207-2.692 2.692-2.692c.155 0 .304.062.414.172s.172.259.172.414-.062.304-.172.414-.259.172-.414.172a1.52 1.52 0 0 0-1.52 1.52 1.52 1.52 0 0 0 1.52 1.52c.155 0 .304.062.414.172s.172.259.172.414-.062.304-.172.414-.259.172-.414.172z"/><path d="M27.937 42.456c-.155 0-.304-.062-.414-.172s-.172-.259-.172-.414v-1.176a5.58 5.58 0 0 0-5.572-5.572 5.58 5.58 0 0 0-5.572 5.572v1.176c0 .155-.062.304-.172.414s-.259.172-.414.172-.304-.062-.414-.172-.172-.259-.172-.414v-1.176c0-3.718 3.025-6.744 6.744-6.744s6.744 3.025 6.744 6.744v1.176c0 .155-.062.304-.172.414s-.259.172-.414.172zm10.753 8.887c-3.104 0-5.629-2.525-5.629-5.629v-2.918c0-.084.018-.168.053-.245s.087-.145.151-.2.139-.096.22-.119.166-.029.25-.016l.252.031a4.09 4.09 0 0 0 3.745-1.797c.105-.158.248-.287.415-.376s.354-.136.543-.137c.384 0 .742.192.958.513.832 1.238 2.266 1.928 3.745 1.797h0l.252-.031c.084-.013.169-.007.25.016s.156.064.22.119.115.123.151.2.053.16.053.245v2.918c0 3.104-2.525 5.629-5.629 5.629zm-4.457-7.909v2.28c0 2.458 1.999 4.457 4.457 4.457s4.457-1.999 4.457-4.457v-2.28c-1.774.039-3.451-.827-4.457-2.308-1.008 1.482-2.684 2.35-4.457 2.308z"/><path d="M34.664 49.403c-.029 0-.057-.002-.086-.006l-2.588-.507a1.81 1.81 0 0 1-1.297-1.242 12.15 12.15 0 0 1-.492-3.443c0-5.654 3.808-10.254 8.488-10.254s8.488 4.6 8.488 10.254c0 1.179-.165 2.338-.492 3.443-.181.614-.676 1.089-1.291 1.24a27.96 27.96 0 0 1-2.508.496c-.076.012-.154.008-.229-.01s-.145-.051-.208-.097-.115-.103-.155-.169-.066-.139-.078-.215-.008-.154.011-.229.052-.145.098-.207.104-.114.17-.154.139-.066.216-.077c.808-.121 1.61-.28 2.403-.475a.63.63 0 0 0 .447-.434 10.98 10.98 0 0 0 .444-3.111c0-5.008-3.282-9.082-7.316-9.082s-7.316 4.074-7.316 9.082c0 1.067.149 2.113.444 3.111.031.106.089.202.169.278s.177.131.284.158c.802.197 1.636.361 2.479.485.147.021.28.097.373.212s.139.262.128.41-.077.286-.186.387-.252.157-.4.156zM27.92 60H11.191c-.08 0-.159-.016-.232-.048s-.139-.078-.194-.136-.097-.127-.124-.202a.59.59 0 0 1-.034-.234l.128-2.206a4.45 4.45 0 0 1 1.017-2.592c.551-.668 1.284-1.162 2.11-1.422l4.094-1.289c.262-.082.482-.233.62-.424a1.2 1.2 0 0 0 .228-.706v-.41c0-.155.062-.304.172-.414s.259-.172.414-.172.304.062.414.172.172.259.172.414v.41c.001.5-.157.987-.45 1.392s-.71.696-1.218.856l-4.094 1.289a3.3 3.3 0 0 0-1.558 1.05c-.449.541-.712 1.212-.751 1.914l-.092 1.586H27.92c.155 0 .304.062.414.172s.172.259.172.414-.062.304-.172.414-.259.172-.414.172zm2.243-5.425c-.092 0-.186-.022-.273-.068a3.31 3.31 0 0 0-.546-.229l-4.094-1.288c-.508-.16-.93-.456-1.218-.855a2.36 2.36 0 0 1-.45-1.392v-.352c0-.155.062-.304.172-.414s.259-.172.414-.172.304.062.414.172.172.259.172.414v.352a1.2 1.2 0 0 0 .228.706c.138.191.358.341.62.424l4.094 1.288c.256.081.503.185.74.31.116.061.208.159.262.279s.066.254.034.381-.105.24-.208.321-.23.124-.361.124z"/><path d="M49.277 60H28.101c-.08 0-.159-.016-.232-.048s-.139-.078-.194-.136-.097-.127-.124-.201-.039-.155-.035-.234l.128-2.206a4.45 4.45 0 0 1 1.017-2.592c.551-.668 1.284-1.162 2.11-1.422l4.094-1.289c.262-.083.482-.233.62-.424a1.2 1.2 0 0 0 .228-.706v-.294c0-.155.062-.304.172-.414s.259-.172.414-.172.304.062.414.172.172.259.172.414v.294c0 .503-.156.984-.45 1.392a2.35 2.35 0 0 1-1.219.856l-4.094 1.289a3.3 3.3 0 0 0-1.558 1.05c-.448.541-.712 1.212-.751 1.914l-.092 1.586h19.934l-.092-1.586a3.29 3.29 0 0 0-.751-1.914 3.3 3.3 0 0 0-1.558-1.05l-4.094-1.288a2.35 2.35 0 0 1-1.218-.855c-.294-.405-.451-.892-.45-1.392v-.294c0-.155.062-.304.172-.414s.259-.172.414-.172.304.062.414.172.172.259.172.414v.294a1.2 1.2 0 0 0 .228.706c.138.191.358.341.62.424l4.094 1.288c.826.259 1.559.753 2.11 1.422a4.45 4.45 0 0 1 1.017 2.592l.128 2.206c.005.08-.007.159-.034.235s-.07.144-.124.202-.121.104-.194.136-.152.048-.232.048z"/></g><path d="M2.994 32.391c-.727-.141-1.312-.703-1.453-1.43 0-.023-.07-.023-.07 0-.141.727-.727 1.289-1.453 1.43-.023 0-.023.047 0 .07.727.141 1.313.703 1.453 1.43 0 .023.07.023.07 0 .141-.727.727-1.289 1.453-1.43.023-.023.023-.07 0-.07z" fill="#fc657e"/><path d="M52.034 10.664h.539v.539a.74.74 0 0 0 .75.75c.398 0 .75-.328.75-.726v-.562h.539a.74.74 0 0 0 .75-.75c0-.398-.328-.75-.727-.75h-.562v-.539a.74.74 0 0 0-.75-.75c-.398 0-.75.328-.75.727v.563h-.539a.74.74 0 0 0-.75.75c-.023.398.305.75.75.75-.023 0-.023 0 0 0z" fill="#70d6f9"/><path d="M59.203 19.055c.44 0 .797-.357.797-.797s-.357-.797-.797-.797-.797.357-.797.797.357.797.797.797z" fill="#f5c84c"/><path d="M32.675 1.594c.44 0 .797-.357.797-.797S33.115 0 32.675 0s-.797.357-.797.797.357.797.797.797z" fill="#87d147"/><g fill="#000"><path d="M44.057 46.668c-.155 0-.304-.062-.414-.172s-.172-.259-.172-.414.062-.304.172-.414.259-.172.414-.172a1.52 1.52 0 0 0 1.52-1.52c.001-.25-.061-.496-.18-.716a.4.4 0 0 0-.491-.173c-.349.135-.714.232-1.084.288-.076.012-.154.008-.228-.01s-.145-.051-.207-.097-.114-.103-.154-.169-.066-.139-.078-.215c-.023-.154.015-.31.108-.435s.23-.208.384-.232a3.97 3.97 0 0 0 .837-.222 1.57 1.57 0 0 1 1.946.71 2.69 2.69 0 0 1 .32 1.272c0 1.484-1.207 2.692-2.692 2.692zm-10.734 0c-1.484 0-2.692-1.208-2.692-2.692a2.69 2.69 0 0 1 .32-1.272 1.57 1.57 0 0 1 1.946-.71 3.98 3.98 0 0 0 .837.222c.154.023.292.107.384.232s.131.282.108.436-.107.292-.232.384-.282.131-.435.108c-.371-.056-.734-.153-1.084-.288a.4.4 0 0 0-.492.173c-.119.22-.181.466-.18.716a1.52 1.52 0 0 0 1.52 1.52c.155 0 .304.062.414.172s.172.259.172.414-.062.304-.172.414-.259.172-.414.172zm18.71-16.395c-.155 0-.304-.062-.414-.172s-.172-.259-.172-.414.062-.305.172-.414.259-.172.414-.172c1.235 0 2.24-1.005 2.24-2.24s-1.005-2.24-2.24-2.24c-.155 0-.304-.062-.414-.172s-.172-.259-.172-.414.062-.304.172-.414.259-.172.414-.172c1.882 0 3.412 1.531 3.412 3.412s-1.531 3.412-3.412 3.412z"/><path d="M44.829 36.55c-4.056 0-7.356-3.3-7.356-7.356v-4.032c0-.091.021-.18.061-.261s.099-.152.172-.206.156-.092.245-.108.181-.012.268.013c4.995 1.423 8.459-2.056 9.402-3.156.089-.105.199-.191.322-.253s.258-.098.396-.106a1.04 1.04 0 0 1 .766.27c.758.689 1.501 1.121 2.208 1.285.512.119.87.566.87 1.086v5.469c0 4.056-3.3 7.356-7.356 7.356zm-6.184-10.64v3.285c0 3.41 2.774 6.184 6.184 6.184s6.184-2.774 6.184-6.184v-5.423c-.859-.207-1.731-.698-2.594-1.46-1.124 1.275-4.664 4.655-9.774 3.598z"/><path d="M37.625 30.273c-1.882 0-3.412-1.531-3.412-3.412a3.42 3.42 0 0 1 1.078-2.485c.207-.195.466-.324.746-.372s.568-.012.827.103a10.46 10.46 0 0 0 1.356.492c.075.02.145.055.207.102s.113.107.151.174a.59.59 0 0 1 .072.219c.009.077.003.155-.018.23s-.057.145-.106.205-.109.111-.177.148a.59.59 0 0 1-.221.069c-.077.008-.155.001-.23-.022-.515-.148-1.018-.33-1.508-.547-.049-.022-.104-.028-.157-.019s-.102.034-.141.071c-.224.208-.403.46-.525.741s-.184.583-.183.889c0 1.235 1.005 2.24 2.24 2.24l.14-.005a.58.58 0 0 1 .427.14c.058.05.106.112.141.181s.055.144.06.221-.004.154-.028.227-.062.141-.113.199-.111.106-.18.141-.144.055-.22.061l-.226.008z"/><path d="M35.623 25.397c-.155 0-.304-.062-.414-.172s-.172-.259-.172-.414V23.21c0-5.399 4.392-9.792 9.792-9.792s9.792 4.392 9.792 9.792v1.507c0 .155-.062.304-.172.414s-.259.172-.414.172-.304-.062-.414-.172-.172-.259-.172-.414V23.21a8.63 8.63 0 0 0-8.62-8.62 8.63 8.63 0 0 0-8.62 8.62v1.601c0 .155-.062.304-.172.414s-.259.172-.414.172zM50.236 60h-.958c-.155 0-.304-.062-.414-.172s-.172-.259-.172-.414.062-.304.172-.414.259-.172.414-.172h.372V44.303c0-.155.062-.304.172-.414s.259-.172.414-.172.304.062.414.172.172.259.172.414v15.111c0 .155-.062.304-.172.414s-.259.172-.414.172z"/><path d="M46.679 46.22c-.147 0-.288-.055-.396-.154s-.175-.235-.188-.381.03-.291.119-.408.219-.195.363-.22c1.078-.19 2.117-.56 3.074-1.092v-4.419c0-.155.062-.304.172-.414s.259-.172.414-.172.304.062.414.172.172.259.172.414v4.757c0 .206-.108.396-.284.502a11.01 11.01 0 0 1-3.756 1.406c-.035.006-.07.009-.104.009zm-30.402-9.04c-4.418 0-8.012-3.594-8.012-8.012v-6.232c-.002-1.138.436-2.232 1.223-3.054a1.94 1.94 0 0 1 2.613-.184c.825.646 2.222 1.417 4.184 1.417s3.347-.767 4.167-1.411a1.94 1.94 0 0 1 2.614.178c.787.822 1.225 1.916 1.223 3.054v6.232c0 2.18-.915 4.297-2.51 5.809-.099.094-.228.151-.365.159-1.425.093-2.748.728-3.725 1.788-.093.101-.218.165-.353.184-.36.048-.716.073-1.059.073zm-5.385-16.729a.76.76 0 0 0-.553.236 3.24 3.24 0 0 0-.902 2.248v6.232a6.85 6.85 0 0 0 6.84 6.84c.227 0 .463-.013.702-.038a6.71 6.71 0 0 1 4.138-1.985c1.291-1.294 1.999-2.997 1.999-4.817v-6.232a3.24 3.24 0 0 0-.899-2.245c-.275-.288-.723-.316-1.043-.065-.965.758-2.598 1.661-4.89 1.661s-3.936-.906-4.906-1.665a.79.79 0 0 0-.487-.169z"/><path d="M12.072 39.39c-.117 0-.231-.035-.328-.1s-.172-.158-.216-.266-.054-.227-.03-.341.082-.219.166-.3a1.99 1.99 0 0 0 .605-1.422v-1.013c0-.155.062-.304.172-.414s.259-.172.414-.172.305.062.414.172.172.259.172.414v1.013c0 .848-.351 1.674-.962 2.265-.109.106-.255.165-.407.165zm12.107-9.094a3.69 3.69 0 0 1-.589-.051c-.144-.023-.274-.1-.365-.214s-.136-.258-.126-.404l.017-.459v-5.622c0-.14.05-.275.141-.381s.217-.176.355-.198c.187-.03.377-.044.566-.045a3.69 3.69 0 0 1 3.686 3.686 3.69 3.69 0 0 1-3.686 3.686zm.11-6.198v5.024a2.52 2.52 0 0 0 2.405-2.512 2.52 2.52 0 0 0-2.405-2.512zM8.374 30.295a3.69 3.69 0 0 1-3.686-3.686 3.69 3.69 0 0 1 3.686-3.686 3.69 3.69 0 0 1 .566.045c.138.021.264.092.355.198s.141.241.141.381v5.622l.017.458c.01.146-.035.29-.126.404s-.221.191-.365.214c-.211.034-.404.051-.589.051zm-.109-6.198a2.52 2.52 0 0 0-2.405 2.512 2.52 2.52 0 0 0 2.405 2.512v-5.024z"/><path d="M25.756 24.412c-.155 0-.304-.062-.414-.172s-.172-.259-.172-.414v-2.432c0-2.309-.545-3.634-1.495-3.634-.573 0-1.046-.457-1.054-1.018-.015-1.104-.392-1.948-1.151-2.579-1.442-1.197-4.231-1.546-7.651-.955a7.72 7.72 0 0 0-6.42 7.62v2.922c0 .155-.062.305-.172.414s-.259.172-.414.172-.304-.062-.414-.172-.172-.259-.172-.414v-2.921a8.89 8.89 0 0 1 7.392-8.775c2.209-.381 6.264-.732 8.599 1.208.993.825 1.521 1.944 1.571 3.329 1.004.049 2.553.778 2.553 4.803v2.432c0 .155-.062.304-.172.414s-.259.172-.414.172zM5.888 51.599H1.274c-.155 0-.304-.062-.414-.172s-.172-.259-.172-.414.062-.304.172-.414.259-.172.414-.172h4.614c.155 0 .304.062.414.172s.172.259.172.414-.062.304-.172.414-.259.172-.414.172zm7.17-6.678a1.42 1.42 0 0 1-.544-.107c-.172-.071-.329-.176-.461-.308l-3.398-3.398a1.04 1.04 0 0 1-.307-.741 1.04 1.04 0 0 1 .307-.741l1.273-1.273c.641-.641 1.685-.641 2.326 0l3.239 3.239c.151.151.252.344.29.554.02.11.008.224-.035.328s-.114.193-.206.257a1.53 1.53 0 0 0-.578.781c-.029.089-.078.169-.144.235l-.759.759c-.132.132-.288.236-.46.308s-.357.108-.543.108zm-3.486-4.554l3.31 3.31c.047.047.11.073.176.073s.129-.026.176-.073l.665-.665c.12-.309.295-.594.518-.84l-2.99-2.99c-.089-.088-.209-.138-.334-.138s-.245.05-.334.138l-1.186 1.186zm12.206 16.115a5.89 5.89 0 0 1-5.233-3.187c-.067-.137-.079-.296-.031-.441s.15-.266.286-.337.294-.086.44-.041.27.144.344.278a4.72 4.72 0 0 0 4.194 2.557c1.765 0 3.371-.98 4.194-2.557.036-.068.084-.129.143-.178s.127-.087.201-.11.151-.032.227-.025.151.029.22.064.129.084.178.143.087.127.11.2.031.151.025.227-.029.151-.064.22a5.89 5.89 0 0 1-5.233 3.188zm16.911-.374c-1.728 0-3.335-1.087-4.408-2.983-.039-.067-.065-.141-.075-.218s-.005-.155.015-.23a.59.59 0 0 1 .103-.207c.048-.062.107-.113.175-.151s.142-.063.219-.072.155-.003.23.018.145.057.205.106.111.109.148.177c.86 1.518 2.095 2.388 3.389 2.388s2.529-.87 3.389-2.388c.038-.067.089-.126.149-.173s.13-.082.204-.103.152-.026.228-.017a.59.59 0 0 1 .217.072c.067.038.126.089.173.149s.082.13.103.204.026.152.017.228-.034.15-.072.217c-1.073 1.895-2.68 2.983-4.408 2.983z"/></g><path d="M21.05 4.266a2.6 2.6 0 0 0 2.086-2.039c0-.047.094-.047.094 0a2.6 2.6 0 0 0 2.086 2.039c.047 0 .047.07 0 .094a2.6 2.6 0 0 0-2.086 2.039c0 .047-.094.047-.094 0a2.6 2.6 0 0 0-2.086-2.039c-.047-.023-.047-.094 0-.094z" fill="#f5c84c"/><path d="M30.816 43.79c-.107 0-.212-.029-.304-.085s-.166-.135-.216-.23c-.153-.293-.366-.551-.625-.756s-.559-.353-.88-.434l-.875-.22c-.151-.038-.28-.134-.36-.268s-.103-.293-.065-.444.134-.28.268-.36.293-.103.444-.065l.875.22a3.52 3.52 0 0 1 2.258 1.784c.047.089.069.189.066.29s-.032.199-.084.285-.126.157-.213.207-.187.076-.288.076zm.84 10.014c-.149 0-.293-.057-.402-.16s-.174-.243-.182-.392l-.321-5.541c-.006-.078.004-.155.029-.229s.064-.142.115-.2a.59.59 0 0 1 .183-.14c.07-.034.146-.054.223-.059s.155.007.229.032.141.066.198.118.104.115.137.186.052.147.055.224l.321 5.541c.005.08-.007.159-.035.234a.59.59 0 0 1-.125.202c-.055.058-.121.104-.194.136s-.152.048-.232.048zm-9.898-5.882c-.837 0-1.624-.344-2.107-.92-.049-.059-.087-.127-.11-.201s-.032-.151-.025-.227.029-.151.064-.219.084-.129.143-.178.127-.087.2-.11.151-.031.227-.025.151.029.22.064.129.084.178.143c.263.314.715.501 1.209.501s.946-.187 1.209-.501c.1-.119.243-.194.398-.207s.309.035.428.135.194.243.207.398-.035.309-.135.428c-.483.576-1.27.92-2.107.92zm2.278-5.089c-.371 0-.673.302-.673.673s.302.673.673.673.673-.302.673-.673-.302-.673-.673-.673zm-4.555 0c-.371 0-.673.302-.673.673s.302.673.673.673.673-.302.673-.673-.302-.673-.673-.673zm19.179 5.558c-.837 0-1.624-.344-2.107-.92-.05-.059-.087-.127-.11-.2s-.032-.151-.025-.227.029-.151.064-.219.084-.129.143-.178.127-.087.2-.11.151-.032.227-.025.151.029.219.064.129.084.178.143c.263.314.715.501 1.209.501s.946-.187 1.209-.501c.1-.119.243-.194.398-.207s.309.035.428.135.194.243.207.398-.035.309-.135.428c-.483.576-1.271.92-2.107.92zm2.277-5.089c-.371 0-.673.302-.673.673s.302.673.673.673.673-.302.673-.673-.302-.673-.673-.673zm-4.555 0c-.371 0-.673.302-.673.673s.302.673.673.673.673-.302.673-.673-.302-.673-.673-.673z" fill="#000"/></g><defs><clipPath id="A"><path fill="#fff" d="M0 0h60v60H0z"/></clipPath><path id="B" d="M47.775 28.52c.484 0 .877-.393.877-.877s-.393-.877-.877-.877-.877.393-.877.877.393.877.877.877z"/><path id="C" d="M19.735 27.95a1 1 0 0 0 .998-.998 1 1 0 0 0-.998-.998 1 1 0 0 0-.998.998 1 1 0 0 0 .998.998z"/></defs></svg>