<svg width="60" height="60" viewBox="0 0 60 60" fill="none" xmlns="http://www.w3.org/2000/svg">
<g clip-path="url(#clip0_1136_1535)">
<path d="M36.2997 50.1452C35.6937 49.8143 35.1613 49.3636 34.7348 48.8205L34.7313 48.8268C33.8567 48.7003 32.9887 48.5314 32.1304 48.3208C31.9589 48.2782 31.7988 48.1985 31.6614 48.0874C31.524 47.9763 31.4125 47.8365 31.335 47.6777L31.6722 53.4918L34.6413 52.5574L35.0421 52.4313C35.4065 52.3167 35.7377 52.101 35.9613 51.7914C36.1817 51.4861 36.3003 51.1191 36.3002 50.7426V50.1508L36.2997 50.1452ZM58.878 43.8993C58.8451 43.3084 58.6242 42.7434 58.2475 42.2869C57.8708 41.8304 57.358 41.5062 56.7841 41.3617L55.4386 41.0221L51.9438 40.14C51.5393 40.0382 51.1467 39.8939 50.7726 39.7094L49.0989 38.8842C48.7839 38.7288 48.5186 38.4884 48.3331 38.1901C48.1476 37.8918 48.0492 37.5475 48.0492 37.1962V35.1433C47.0616 35.6824 45.9543 35.9645 44.8291 35.9636C43.7039 35.9645 42.5966 35.6824 41.609 35.1433V35.2211C44.5277 36.6421 46.5921 40.1273 46.5921 44.2047C46.5921 45.3555 46.4264 46.4587 46.1243 47.482C46.0653 47.6854 45.9539 47.8699 45.8014 48.0169C45.6489 48.1639 45.4605 48.2684 45.255 48.3199C44.395 48.5311 43.5253 48.7004 42.6489 48.8273L42.6471 48.8203C42.2198 49.3643 41.6862 49.8156 41.0789 50.1468L41.08 50.1513V50.7431C41.08 51.1198 41.1987 51.487 41.4194 51.7924C41.643 52.102 41.9742 52.3174 42.3386 52.432L42.7392 52.5581L46.4322 53.7203C47.1856 53.9576 47.849 54.4182 48.3345 55.0413C48.8199 55.6643 49.1044 56.4203 49.1503 57.2088L49.2782 59.4147H58.6427C58.7476 59.4147 58.8515 59.3933 58.9479 59.3518C59.0443 59.3103 59.1312 59.2495 59.2033 59.1733C59.2754 59.097 59.3312 59.0068 59.3673 58.9083C59.4034 58.8097 59.4189 58.7048 59.4131 58.6L58.878 43.8993Z" fill="#F98FA6"/>
<path d="M54.4234 28.3645C53.923 29.1581 53.0408 29.6871 52.0332 29.6871C51.8792 29.6871 51.729 29.6714 51.5818 29.6477C51.4229 32.0163 50.0331 34.0619 48.0491 35.1431V37.196C48.0496 37.517 48.1323 37.8325 48.2894 38.1124C48.4465 38.3923 48.6728 38.6273 48.9465 38.7949C49.168 38.9313 48.887 38.7712 50.7725 39.7092C51.0465 39.8418 51.3296 39.9549 51.6195 40.0476C51.6709 40.0638 51.7227 40.0776 51.7745 40.0924C52.7708 39.7279 53.6497 39.1488 54.219 38.2474C55.2629 36.5946 54.6538 34.9931 54.2694 34.2764C54.1344 34.0244 54.1578 33.7225 54.3113 33.4816C55.6044 31.454 54.9936 29.4797 54.4234 28.3645ZM35.3888 34.2766C35.2149 34.601 34.9965 35.1077 34.9044 35.7173C36.0287 34.9652 37.3184 34.537 38.69 34.537C39.7215 34.537 40.7056 34.7812 41.6092 35.2211V35.1433C39.6252 34.0619 38.2356 32.0165 38.0764 29.6479C37.929 29.6716 37.779 29.6873 37.625 29.6873C36.6174 29.6873 35.7352 29.1583 35.2349 28.3647C34.6644 29.4799 34.0538 31.4543 35.3469 33.4821C35.5004 33.7228 35.5238 34.0247 35.3888 34.2766Z" fill="#FCE4BE"/>
<path d="M16.7474 46.0523C16.6364 46.071 16.5242 46.0808 16.4117 46.0816C16.0801 46.0816 15.7531 46.0032 15.4575 45.8529C15.1619 45.7026 14.906 45.4845 14.7106 45.2166C14.5152 44.9486 14.3859 44.6383 14.3331 44.3109C14.2804 43.9834 14.3057 43.6482 14.4071 43.3324L13.6482 44.0913C13.4918 44.2477 13.2796 44.3356 13.0584 44.3356C12.8372 44.3356 12.625 44.2477 12.4686 44.0913L9.0711 40.6938C9.0233 40.6457 8.98674 40.5876 8.96405 40.5237C8.94135 40.4598 8.93309 40.3917 8.93985 40.3242C8.51163 40.4687 8.07776 40.5959 7.6393 40.7055L3.61883 41.7176C3.01291 41.8701 2.4716 42.2123 2.07391 42.6943C1.67622 43.1762 1.44297 43.7726 1.40821 44.3965L0.587194 58.5541C0.581042 58.6648 0.597522 58.7755 0.635627 58.8795C0.673731 58.9836 0.732659 59.0788 0.808806 59.1593C0.884954 59.2397 0.97672 59.3039 1.07849 59.3477C1.18027 59.3915 1.28991 59.4141 1.40071 59.4141H11.1908L11.3188 57.2081C11.3646 56.4196 11.6492 55.6637 12.1346 55.0407C12.6201 54.4177 13.2835 53.957 14.0368 53.7197L16.9562 52.8009L18.1306 52.4313C18.4951 52.3167 18.8263 52.1011 19.0498 51.7915C19.2704 51.4864 19.389 51.1194 19.3888 50.7429V50.1511C19.4049 50.16 19.4225 50.1668 19.4389 50.1752C17.93 49.3781 16.8676 47.8395 16.7474 46.0523Z" fill="#A57453"/>
<path d="M15.2077 42.25C15.3366 42.1598 15.4753 42.0844 15.6211 42.0252V40.6947C15.6211 39.0908 16.2431 37.6255 17.2573 36.5268C16.9322 36.571 16.6045 36.5935 16.2764 36.594C15.0846 36.5944 13.9106 36.3052 12.8552 35.7515V36.9599C12.8552 37.7137 12.5241 38.4158 11.9707 38.8961L15.0804 42.0058C15.1495 42.0749 15.1917 42.1605 15.2077 42.25Z" fill="#B57D7D"/>
<path d="M31.3349 47.6777C31.303 47.6148 31.2766 47.5492 31.2559 47.4818C30.9438 46.4174 30.7863 45.3137 30.7881 44.2045C30.7881 43.875 30.802 43.5497 30.8282 43.2286C30.6386 42.8561 30.3714 42.5285 30.0447 42.2679C29.718 42.0072 29.3393 41.8195 28.934 41.7173L27.9367 41.4663V42.0251C28.7076 42.3379 29.2513 43.0929 29.2513 43.9758C29.2513 44.5342 29.0295 45.0698 28.6346 45.4647C28.2397 45.8595 27.7042 46.0814 27.1457 46.0814C27.0309 46.0814 26.9191 46.0697 26.8094 46.0521C26.6908 47.8195 25.6504 49.3422 24.168 50.1466L24.1687 50.1506V50.7424C24.1687 51.1191 24.2873 51.4863 24.5078 51.7917C24.7314 52.1013 25.0626 52.3167 25.427 52.4313L29.5206 53.7197C29.7695 53.7979 30.0079 53.9022 30.2341 54.0274C30.461 53.9012 30.7 53.7981 30.9475 53.7197L31.6715 53.4919L31.3349 47.6777Z" fill="#A57453"/>
<path d="M24.972 39.6819H18.5853C17.5908 39.6819 16.7431 40.467 16.7354 41.4613V45.714C16.7354 48.4878 19.0048 50.7573 21.7786 50.7573C24.5525 50.7573 26.8219 48.4878 26.8219 45.714V41.4613C26.8142 40.467 25.9664 39.6819 24.972 39.6819Z" fill="#F9D0B4"/>
<path d="M27.1462 41.8705C27.036 41.8705 26.9282 41.8799 26.8225 41.896V45.714C26.8225 45.8277 26.8173 45.9404 26.8098 46.0522C26.921 46.0709 27.0335 46.0807 27.1462 46.0815C27.4245 46.0844 27.7007 46.0321 27.9588 45.9276C28.2168 45.8232 28.4515 45.6685 28.6494 45.4727C28.8473 45.2769 29.0044 45.0438 29.1116 44.7869C29.2188 44.53 29.274 44.2544 29.274 43.976C29.274 43.6976 29.2188 43.422 29.1116 43.1651C29.0044 42.9082 28.8473 42.6751 28.6494 42.4793C28.4515 42.2834 28.2168 42.1288 27.9588 42.0243C27.7007 41.9198 27.4245 41.8675 27.1462 41.8705ZM16.7359 45.714V41.896C16.4357 41.8493 16.1289 41.8681 15.8367 41.9512C15.5444 42.0343 15.2736 42.1796 15.0428 42.3772C14.812 42.5748 14.6267 42.82 14.4996 43.096C14.3725 43.372 14.3067 43.6723 14.3066 43.9761C14.3066 44.2526 14.3611 44.5264 14.4669 44.7819C14.5727 45.0374 14.7278 45.2695 14.9234 45.465C15.1189 45.6605 15.351 45.8156 15.6065 45.9214C15.8619 46.0273 16.1358 46.0817 16.4123 46.0817C16.5271 46.0817 16.6389 46.07 16.7486 46.0524C16.7406 45.9398 16.7364 45.8269 16.7359 45.714Z" fill="#F9D0B4"/>
<path d="M21.7788 34.5371C18.3921 34.5371 15.6211 37.3081 15.6211 40.6948V42.0254C15.8722 41.9231 16.1407 41.8705 16.4119 41.8705C16.522 41.8705 16.6298 41.8798 16.7355 41.8963V41.4615C16.7433 40.467 17.591 39.6821 18.5855 39.6821H24.9722C25.9666 39.6821 26.8144 40.4673 26.8221 41.4615V41.8963C26.9276 41.8798 27.0356 41.8705 27.1458 41.8705C27.4169 41.8705 27.6855 41.9231 27.9366 42.0254V40.6948C27.9366 37.3079 25.1655 34.5371 21.7788 34.5371Z" fill="#FCE4BE"/>
<path d="M43.4436 42.8315C41.6691 42.9864 40.0714 42.1305 39.1616 40.7775C39.1101 40.6993 39.0401 40.6352 38.9577 40.5908C38.8754 40.5464 38.7833 40.5232 38.6898 40.5232C38.5962 40.5232 38.5041 40.5464 38.4218 40.5908C38.3394 40.6352 38.2694 40.6993 38.218 40.7775C37.3084 42.1303 35.7104 42.9864 33.9359 42.8315C33.8384 42.8231 33.7421 42.8104 33.6465 42.7959V45.7141C33.6465 48.4879 35.9159 50.7574 38.6898 50.7574C41.4636 50.7574 43.733 48.4879 43.733 45.7141V42.7959C43.6374 42.8102 43.5411 42.8229 43.4436 42.8315Z" fill="#F9D0B4"/>
<path d="M38.69 34.5371C34.326 34.5371 30.7881 38.8655 30.7881 44.2046C30.7881 45.3556 30.9538 46.4586 31.2559 47.4819C31.3156 47.686 31.4277 47.8709 31.5811 48.0181C31.7346 48.1653 31.924 48.2698 32.1304 48.3209C32.9802 48.5302 33.8483 48.6985 34.7312 48.827C34.0534 47.968 33.6468 46.8866 33.6468 45.714V42.7958C33.7424 42.8103 33.8385 42.823 33.9362 42.8314C35.7107 42.9863 37.3086 42.1304 38.2182 40.7773C38.2698 40.6994 38.3399 40.6355 38.4222 40.5912C38.5046 40.547 38.5966 40.5238 38.69 40.5238C38.7835 40.5238 38.8755 40.547 38.9578 40.5912C39.0402 40.6355 39.1103 40.6994 39.1618 40.7773C40.0714 42.1302 41.6694 42.9863 43.4439 42.8314C43.5414 42.823 43.6377 42.8103 43.7333 42.7958V45.714C43.7333 46.8866 43.3267 47.968 42.6489 48.827C43.5253 48.7002 44.395 48.5309 45.2549 48.3195C45.4604 48.2681 45.6488 48.1636 45.8013 48.0166C45.9539 47.8696 46.0652 47.6851 46.1242 47.4816C46.4363 46.4173 46.5939 45.3136 46.592 44.2044C46.592 38.8653 43.0543 34.5371 38.69 34.5371Z" fill="#5B5D60"/>
<path d="M25.4268 52.4313C25.0624 52.3167 24.7312 52.1013 24.5076 51.7917C24.2869 51.4864 24.1682 51.1192 24.1682 50.7424V50.1506C23.4347 50.5492 22.6131 50.7576 21.7783 50.757C20.9151 50.757 20.1007 50.5369 19.3884 50.1506V50.7424C19.3885 51.119 19.2699 51.486 19.0495 51.7913C18.8259 52.1011 18.4947 52.3165 18.1303 52.4311L14.0364 53.7195C13.283 53.9565 12.6195 54.4172 12.134 55.0403C11.6485 55.6633 11.3641 56.4193 11.3184 57.2079L11.1904 59.4138H28.1015L28.2295 57.2079C28.2773 56.3822 28.5869 55.5932 29.1133 54.9553C29.4252 54.5783 29.8054 54.2634 30.2339 54.0272C30.007 53.901 29.7679 53.7979 29.5204 53.7195L25.4268 52.4313Z" fill="#B2E26D"/>
<path d="M38.6895 50.7572C37.8262 50.7572 37.0118 50.5371 36.2995 50.1509V50.7427C36.2996 51.1192 36.181 51.4862 35.9606 51.7915C35.737 52.1013 35.4059 52.3167 35.0414 52.4313L30.9476 53.7197C30.1941 53.9568 29.5306 54.4174 29.0451 55.0405C28.5596 55.6636 28.2752 56.4196 28.2295 57.2081L28.1016 59.4141H49.2776L49.1496 57.2081C49.1039 56.4196 48.8195 55.6636 48.334 55.0405C47.8485 54.4174 47.185 53.9568 46.4316 53.7197L42.338 52.4313C41.9735 52.3167 41.6423 52.1013 41.4188 51.7917C41.1981 51.4864 41.0793 51.1192 41.0794 50.7424V50.1506C40.3459 50.5492 39.5242 50.7578 38.6895 50.7572Z" fill="#F5C84C"/>
<path d="M44.6931 42.5404C44.3833 42.6604 44.0613 42.746 43.7328 42.7957V45.7139C43.7328 45.8276 43.7277 45.9403 43.7202 46.0521C43.8313 46.0708 43.9438 46.0806 44.0565 46.0814C44.4204 46.0813 44.778 45.9869 45.0946 45.8074C45.4111 45.6279 45.6757 45.3694 45.8626 45.0572C46.0495 44.745 46.1523 44.3897 46.1609 44.0259C46.1696 43.6621 46.0839 43.3023 45.912 42.9815C45.6793 42.55 45.1503 42.3635 44.6931 42.5404ZM33.6463 42.7957C33.3178 42.746 32.9958 42.6604 32.686 42.5404C32.2288 42.3633 31.6998 42.5501 31.4673 42.9818C31.2955 43.3025 31.2097 43.6623 31.2184 44.0261C31.227 44.3899 31.3298 44.7452 31.5167 45.0575C31.7036 45.3697 31.9682 45.6281 32.2848 45.8076C32.6013 45.9871 32.9589 46.0815 33.3228 46.0816C33.4377 46.0816 33.5495 46.0699 33.6592 46.0523C33.6512 45.9398 33.6469 45.827 33.6465 45.7141L33.6463 42.7957ZM52.0327 24.0344C51.8849 24.0344 51.74 24.0468 51.5982 24.0689V29.1937C51.5982 29.3463 51.5912 29.4975 51.5811 29.6477C51.7285 29.6714 51.8785 29.6871 52.0325 29.6871C53.5935 29.6871 54.8588 28.4217 54.8588 26.8608C54.8591 25.2998 53.5937 24.0344 52.0327 24.0344Z" fill="#F9D0B4"/>
<path d="M48.0674 21.8235C47.0364 23.0267 43.3804 26.6778 38.0596 25.1624V29.1938C38.0596 32.9171 41.106 35.9635 44.8293 35.9635C48.5525 35.9635 51.5989 32.9171 51.5989 29.1938V23.7247C51.5989 23.476 51.4248 23.2651 51.1825 23.2091C50.4974 23.0504 49.6658 22.6536 48.7124 21.7874C48.6682 21.7464 48.6161 21.7147 48.5594 21.6943C48.5027 21.6739 48.4424 21.6651 48.3822 21.6684C48.322 21.6718 48.2631 21.6873 48.209 21.7139C48.1549 21.7405 48.1068 21.7778 48.0674 21.8235Z" fill="#F9D0B4"/>
<path d="M38.0595 25.1622C37.5708 25.0222 37.0924 24.8485 36.6277 24.6424C36.4731 24.5744 36.3019 24.5534 36.1354 24.582C35.969 24.6106 35.8146 24.6875 35.6916 24.8032C35.4095 25.0666 35.1847 25.3852 35.0311 25.7392C34.8775 26.0932 34.7984 26.4751 34.7988 26.861C34.7988 28.4219 36.0642 29.6873 37.6252 29.6873C37.7791 29.6873 37.9294 29.6716 38.0766 29.6479C38.0658 29.4968 38.0601 29.3454 38.0595 29.194V25.1622Z" fill="#F9D0B4"/>
<path d="M35.6918 24.803C35.8148 24.6873 35.9692 24.6104 36.1356 24.5818C36.3021 24.5532 36.4732 24.5742 36.6278 24.6422C37.0926 24.8483 37.571 25.0221 38.0596 25.1623C43.3802 26.678 47.0364 23.0269 48.0675 21.8234C48.1069 21.7777 48.155 21.7405 48.2091 21.7139C48.2632 21.6873 48.3221 21.6718 48.3823 21.6684C48.4424 21.665 48.5027 21.6738 48.5594 21.6942C48.6161 21.7145 48.6682 21.7461 48.7125 21.787C49.6659 22.6533 50.4977 23.0501 51.1828 23.2088C51.4251 23.265 51.5993 23.4757 51.5993 23.7244V24.0687C52.0393 23.9994 52.4896 24.0354 52.913 24.1739C53.3365 24.3124 53.721 24.5494 54.0351 24.8653V23.2097C54.0351 18.1467 49.8925 14.0042 44.8296 14.0042C39.7666 14.0042 35.624 18.1467 35.624 23.2097V24.8733C35.647 24.8503 35.6681 24.8252 35.6918 24.803Z" fill="#FCE4BE"/>
<path d="M46.5002 45.6645C46.4245 46.2795 46.2988 46.8873 46.1243 47.4818C46.0653 47.6853 45.954 47.8697 45.8014 48.0167C45.6489 48.1638 45.4605 48.2682 45.255 48.3197C44.3951 48.5309 43.5254 48.7003 42.649 48.8271L42.645 48.8213C42.219 49.3635 41.6874 49.8136 41.0824 50.1443L41.0801 50.1509V50.7427C41.08 51.1194 41.1988 51.4866 41.4195 51.792C41.643 52.1016 41.9742 52.317 42.3387 52.4316L42.7392 52.5577L46.4323 53.7199C47.1856 53.9572 47.8491 54.4179 48.3345 55.0409C48.82 55.6639 49.1045 56.4199 49.1503 57.2084L49.2783 59.4143H50.2364V44.3032C49.0895 44.9916 47.8212 45.4537 46.5002 45.6645Z" fill="#70D6F9"/>
<path d="M49.0986 38.8841C48.7836 38.7287 48.5183 38.4883 48.3328 38.19C48.1472 37.8917 48.0489 37.5474 48.0489 37.1961V35.1433C47.0613 35.6823 45.9539 35.9644 44.8288 35.9636C43.7036 35.9645 42.5963 35.6824 41.6087 35.1433V35.2211C44.3446 36.553 46.3274 39.6993 46.5653 43.4465C46.6156 44.1862 46.5937 44.9291 46.4997 45.6646C47.8207 45.4539 49.089 44.9916 50.2358 44.3029V39.445L49.0986 38.8841ZM16.2763 36.594C16.6089 36.594 16.9361 36.5697 17.2574 36.5268C18.2987 35.3985 19.7537 34.6581 21.3751 34.5517C22.8055 33.1961 23.7025 31.2822 23.7025 29.1681V22.9358C23.7025 21.9491 23.3225 21.0001 22.6417 20.2862C22.1561 19.7769 21.3667 19.7301 20.8131 20.1646C19.9379 20.8515 18.4236 21.7007 16.2847 21.7007C14.1407 21.7007 12.6184 20.8476 11.7395 20.1597C11.1864 19.7268 10.3986 19.7753 9.91395 20.2836L9.91137 20.2862C9.23048 21.0003 8.85062 21.9491 8.85059 22.9358V29.1681C8.85035 33.2523 12.1918 36.594 16.2763 36.594Z" fill="#F9D0B4"/>
<path d="M15.2046 42.2524C15.3344 42.1613 15.474 42.0852 15.6209 42.0253V40.6948C15.6209 39.091 16.2429 37.6257 17.257 36.5269C16.9319 36.5711 16.6043 36.5936 16.2762 36.5942C15.0844 36.5945 13.9103 36.3054 12.855 35.7516V36.96C12.855 37.7138 12.5238 38.416 11.9705 38.8962L15.0802 42.0059C15.1498 42.0755 15.1889 42.1622 15.2046 42.2524ZM24.1786 23.5085C24.0164 23.5085 23.8575 23.5221 23.7021 23.5463V29.168C23.7021 29.3356 23.6944 29.5013 23.6834 29.666C23.8451 29.6921 24.0096 29.7092 24.1786 29.7092C25.8909 29.7092 27.2789 28.321 27.2789 26.6089C27.2789 24.8967 25.8909 23.5085 24.1786 23.5085ZM8.85023 29.168V23.5463C8.69261 23.5215 8.53331 23.5088 8.37375 23.5085C6.66141 23.5085 5.27344 24.8967 5.27344 26.6089C5.27344 28.321 6.66164 29.7092 8.37375 29.7092C8.54273 29.7092 8.70727 29.6921 8.86898 29.666C8.85706 29.5004 8.85081 29.3341 8.85023 29.168Z" fill="#F9D0B4"/>
<path d="M23.6746 17.174C23.426 17.174 23.2104 16.9823 23.2071 16.7336C23.1501 12.5957 18.4249 11.8183 13.7191 12.6309C9.72934 13.3199 6.81348 16.7795 6.81348 20.8284V23.9329C7.28665 23.655 7.82544 23.5085 8.37418 23.5084C8.53637 23.5084 8.69527 23.522 8.85066 23.5462V22.9359C8.85066 21.9491 9.23059 21.0002 9.91144 20.2862L9.91402 20.2837C10.3987 19.7755 11.1867 19.7268 11.7396 20.1597C12.6185 20.8476 14.1407 21.7007 16.2848 21.7007C18.4237 21.7007 19.938 20.8516 20.8132 20.1646C21.3668 19.7301 22.1561 19.777 22.6418 20.2862C23.3226 21.0004 23.7025 21.9492 23.7025 22.9359V23.5464C23.8602 23.5216 24.0195 23.509 24.179 23.5087C24.7556 23.5087 25.2937 23.669 25.7561 23.9432V21.3941C25.7561 17.6887 24.4181 17.174 23.6746 17.174Z" fill="#5B5D60"/>
<path d="M6.16368 51.0129H1.02454L0.587194 58.5542C0.581042 58.6648 0.597522 58.7755 0.635627 58.8796C0.673731 58.9836 0.732659 59.0788 0.808806 59.1593C0.884954 59.2398 0.97672 59.3039 1.07849 59.3477C1.18027 59.3915 1.28991 59.4141 1.40071 59.4141H6.16368V51.0129Z" fill="#F9D0B4"/>
<path d="M13.6482 44.0914L14.4071 43.3325C14.5485 42.8939 14.8297 42.5138 15.2075 42.2501C15.191 42.1576 15.1465 42.0724 15.08 42.0059L11.8412 38.7671C11.7429 38.6688 11.6262 38.5908 11.4978 38.5376C11.3694 38.4844 11.2317 38.457 11.0927 38.457C10.9537 38.457 10.8161 38.4844 10.6877 38.5376C10.5592 38.5908 10.4425 38.6688 10.3443 38.7671L9.0709 40.0402C8.89043 40.2207 8.89043 40.5134 9.0709 40.6939L12.4686 44.0914C12.6251 44.2478 12.8372 44.3357 13.0584 44.3357C13.2797 44.3357 13.4918 44.2478 13.6482 44.0914Z" fill="#C18E6B"/>
<path d="M16.9561 52.8009C17.8003 54.6232 19.6476 55.8956 21.7788 55.8956C23.91 55.8956 25.7571 54.623 26.6015 52.8009L25.4273 52.4313C25.0629 52.3167 24.7317 52.1013 24.5081 51.7917C24.2874 51.4864 24.1686 51.1192 24.1687 50.7424V50.1506C23.4352 50.5492 22.6136 50.7576 21.7788 50.757C20.9156 50.757 20.1011 50.5369 19.3889 50.1506V50.7424C19.389 51.119 19.2704 51.486 19.05 51.7912C18.8264 52.1011 18.4952 52.3165 18.1307 52.4311L16.9561 52.8009ZM38.6899 55.5218C40.3436 55.5218 41.8176 54.3527 42.7389 52.5572L42.3384 52.4311C41.9739 52.3165 41.6428 52.1011 41.4192 51.7915C41.1985 51.4861 41.0797 51.1189 41.0798 50.7422V50.1504C40.3463 50.5489 39.5247 50.7574 38.6899 50.7567C37.8267 50.7567 37.0122 50.5366 36.3 50.1504V50.7422C36.3001 51.1187 36.1815 51.4857 35.9611 51.791C35.7375 52.1009 35.4063 52.3162 35.0418 52.4309L34.6411 52.557C35.5621 54.3527 37.0361 55.5218 38.6899 55.5218Z" fill="#F9D0B4"/>
<path d="M58.6426 59.9999H49.2781C49.1227 59.9999 48.9737 59.9382 48.8638 59.8283C48.7539 59.7184 48.6922 59.5694 48.6922 59.414C48.6922 59.2586 48.7539 59.1096 48.8638 58.9997C48.9737 58.8898 49.1227 58.8281 49.2781 58.8281H58.6426C58.6679 58.8281 58.6929 58.823 58.7161 58.813C58.7394 58.803 58.7603 58.7884 58.7776 58.7699C58.795 58.7517 58.8085 58.73 58.8171 58.7063C58.8258 58.6826 58.8295 58.6573 58.828 58.6321L58.2924 43.9206C58.2392 42.9698 57.5755 42.1652 56.641 41.9301L51.8005 40.7083C51.3561 40.5963 50.9247 40.4376 50.5135 40.2351L48.8396 39.4096C48.4253 39.2074 48.0764 38.8925 47.8329 38.501C47.5893 38.1095 47.4611 37.6572 47.4629 37.1962V35.2954C47.4629 35.14 47.5246 34.991 47.6345 34.8811C47.7444 34.7712 47.8934 34.7095 48.0488 34.7095C48.2042 34.7095 48.3533 34.7712 48.4632 34.8811C48.5731 34.991 48.6348 35.14 48.6348 35.2954V37.1962C48.6339 37.4383 48.7012 37.6758 48.829 37.8814C48.9569 38.087 49.1401 38.2524 49.3576 38.3587L51.0313 39.1839C51.3683 39.35 51.7219 39.48 52.0862 39.5718L56.927 40.7938C57.6231 40.9667 58.2453 41.3586 58.7018 41.9119C59.1583 42.4651 59.4249 43.1504 59.4624 43.8667L59.998 58.5782C60.0181 58.9378 59.8836 59.3053 59.6284 59.5753C59.5014 59.7091 59.3486 59.8158 59.1791 59.8888C59.0096 59.9618 58.8271 59.9996 58.6426 59.9999Z" fill="black"/>
<path d="M54.0929 59.7524C53.9375 59.7524 53.7885 59.6907 53.6786 59.5808C53.5687 59.4709 53.507 59.3219 53.507 59.1665V46.9806C53.507 46.8252 53.5687 46.6762 53.6786 46.5663C53.7885 46.4564 53.9375 46.3947 54.0929 46.3947C54.2483 46.3947 54.3974 46.4564 54.5073 46.5663C54.6171 46.6762 54.6789 46.8252 54.6789 46.9806V59.1665C54.6789 59.3219 54.6171 59.4709 54.5073 59.5808C54.3974 59.6907 54.2483 59.7524 54.0929 59.7524ZM44.8295 33.0545C43.8695 33.0545 42.9672 32.6612 42.4152 32.0029C42.3154 31.8838 42.267 31.7299 42.2806 31.5751C42.2942 31.4203 42.3688 31.2772 42.4879 31.1774C42.607 31.0776 42.7608 31.0292 42.9157 31.0428C43.0705 31.0564 43.2135 31.131 43.3133 31.2501C43.6454 31.6462 44.2122 31.8827 44.8295 31.8827C45.4469 31.8827 46.0136 31.6462 46.3457 31.2501C46.4455 31.131 46.5886 31.0564 46.7434 31.0428C46.8982 31.0292 47.052 31.0776 47.1711 31.1774C47.2902 31.2772 47.3648 31.4203 47.3784 31.5751C47.3921 31.7299 47.3436 31.8838 47.2438 32.0029C46.6916 32.6612 45.789 33.0545 44.8295 33.0545Z" fill="black"/>
<path d="M47.7745 28.5202C48.2589 28.5202 48.6515 28.1275 48.6515 27.6431C48.6515 27.1588 48.2589 26.7661 47.7745 26.7661C47.2901 26.7661 46.8975 27.1588 46.8975 27.6431C46.8975 28.1275 47.2901 28.5202 47.7745 28.5202Z" fill="black"/>
<path d="M41.8839 28.5202C42.3682 28.5202 42.7609 28.1275 42.7609 27.6431C42.7609 27.1588 42.3682 26.7661 41.8839 26.7661C41.3995 26.7661 41.0068 27.1588 41.0068 27.6431C41.0068 28.1275 41.3995 28.5202 41.8839 28.5202Z" fill="black"/>
<path d="M51.842 40.6536C51.7049 40.6537 51.572 40.6056 51.4666 40.5178C51.3612 40.4299 51.29 40.3079 51.2653 40.173C51.2407 40.038 51.2642 39.8987 51.3317 39.7793C51.3992 39.6598 51.5065 39.5679 51.6349 39.5195C52.5827 39.1611 53.2853 38.6281 53.7231 37.9348C54.5901 36.5626 54.1136 35.2271 53.7524 34.5533C53.5216 34.1225 53.5462 33.5914 53.8169 33.167C54.8854 31.4912 54.4881 29.8473 53.9667 28.7631C53.9333 28.6937 53.9139 28.6185 53.9097 28.5417C53.9054 28.4649 53.9163 28.388 53.9417 28.3154C53.9672 28.2428 54.0067 28.1759 54.0579 28.1185C54.1092 28.0612 54.1713 28.0145 54.2406 27.9812C54.31 27.9478 54.3852 27.9285 54.462 27.9242C54.5388 27.9199 54.6157 27.9308 54.6883 27.9562C54.7609 27.9817 54.8278 28.0212 54.8851 28.0725C54.9425 28.1238 54.9892 28.1858 55.0225 28.2552C55.942 30.1665 55.8646 32.1345 54.8048 33.797C54.771 33.8499 54.7483 33.9308 54.7853 33.9999C55.173 34.7232 55.9422 36.616 54.7138 38.5606C54.1373 39.4738 53.2406 40.1654 52.049 40.6156C51.981 40.6414 51.911 40.6536 51.842 40.6536ZM34.9106 36.2659C34.8257 36.266 34.7418 36.2477 34.6647 36.2122C34.5877 36.1767 34.5192 36.1249 34.4641 36.0603C34.4091 35.9958 34.3687 35.92 34.3457 35.8383C34.3228 35.7566 34.3179 35.6709 34.3314 35.5871C34.4409 34.9051 34.6858 34.3475 34.8721 33.9999C34.9092 33.931 34.8864 33.8499 34.8527 33.7972C33.4134 31.5399 34.1083 29.3361 34.6504 28.2233C34.7185 28.0836 34.8393 27.9767 34.9862 27.926C35.1332 27.8754 35.2942 27.8852 35.4339 27.9533C35.5736 28.0214 35.6806 28.1422 35.7312 28.2891C35.7818 28.4361 35.772 28.5971 35.7039 28.7368C35.1726 29.8269 34.7653 31.4806 35.8406 33.1672C36.1113 33.5914 36.1359 34.1227 35.905 34.5538C35.7611 34.8224 35.5722 35.2517 35.4885 35.7732C35.4663 35.9105 35.3959 36.0355 35.2901 36.1257C35.1842 36.216 35.0497 36.2657 34.9106 36.2659ZM11.1906 60.0001H1.40033C1.20989 59.9998 1.0215 59.9608 0.846599 59.8854C0.671699 59.8101 0.513941 59.7 0.382906 59.5618C0.252288 59.4233 0.151178 59.2596 0.0857088 59.0808C0.0202398 58.902 -0.00822336 58.7118 0.00204618 58.5216L0.823296 44.3624C0.862789 43.6133 1.14187 42.8967 1.61941 42.3182C2.09695 41.7397 2.74769 41.33 3.47572 41.1493L7.49619 40.1373C7.87324 40.043 8.24684 39.9353 8.61626 39.8145C8.68938 39.7905 8.7665 39.7812 8.84323 39.787C8.91996 39.7928 8.9948 39.8137 9.06346 39.8484C9.13213 39.8832 9.19328 39.9311 9.24342 39.9894C9.29357 40.0478 9.33173 40.1155 9.35572 40.1886C9.37971 40.2617 9.38907 40.3388 9.38325 40.4156C9.37744 40.4923 9.35657 40.5671 9.32183 40.6358C9.2871 40.7045 9.23918 40.7656 9.18081 40.8158C9.12244 40.8659 9.05477 40.9041 8.98166 40.9281C8.58612 41.0575 8.1861 41.1728 7.78236 41.2738L3.76212 42.2858C3.27653 42.4063 2.84251 42.6797 2.52407 43.0656C2.20564 43.4515 2.01965 43.9295 1.99353 44.4291L1.17228 58.5882C1.17061 58.6191 1.17528 58.6499 1.186 58.6789C1.19672 58.7079 1.21327 58.7344 1.23462 58.7567C1.25581 58.7794 1.28148 58.7975 1.31 58.8098C1.33851 58.8221 1.36927 58.8284 1.40033 58.8282H11.1904C11.3458 58.8282 11.4949 58.8899 11.6048 58.9997C11.7147 59.1096 11.7764 59.2586 11.7765 59.414C11.7765 59.5694 11.7148 59.7185 11.6049 59.8284C11.4951 59.9383 11.346 60.0001 11.1906 60.0001ZM15.2076 42.8361C15.0772 42.836 14.9506 42.7925 14.8477 42.7124C14.7448 42.6323 14.6716 42.5202 14.6395 42.3938L11.5563 39.3104C11.4993 39.2536 11.4547 39.1856 11.4252 39.1108C11.3957 39.036 11.382 38.9559 11.3848 38.8755C11.3876 38.7952 11.4069 38.7162 11.4416 38.6437C11.4763 38.5711 11.5255 38.5065 11.5863 38.4538C11.8004 38.2682 11.9722 38.0387 12.09 37.781C12.2078 37.5233 12.2688 37.2432 12.269 36.9599V35.7512C12.269 35.6504 12.295 35.5512 12.3445 35.4634C12.394 35.3756 12.4653 35.302 12.5516 35.2498C12.6378 35.1976 12.7361 35.1685 12.8369 35.1654C12.9376 35.1623 13.0375 35.1853 13.1268 35.232C14.0977 35.7436 15.1789 36.01 16.2763 36.0078C16.5693 36.0078 16.8731 35.987 17.1792 35.9459C17.2986 35.9298 17.4202 35.9509 17.5272 36.0065C17.6342 36.062 17.7215 36.1492 17.777 36.2563C17.8326 36.3632 17.8538 36.4847 17.8379 36.6042C17.8219 36.7237 17.7695 36.8354 17.6878 36.924C16.7327 37.959 16.207 39.298 16.207 40.6946V42.0252C16.207 42.1418 16.1722 42.2558 16.107 42.3526C16.0418 42.4493 15.9492 42.5244 15.8411 42.5682C15.7363 42.6109 15.6365 42.6651 15.5437 42.7299C15.4436 42.8002 15.326 42.8361 15.2076 42.8361ZM12.7853 38.8824L15.0349 41.132V40.6948C15.0344 39.4521 15.3798 38.2338 16.0324 37.1762C15.1457 37.1477 14.2699 36.9721 13.4409 36.6563V36.9599C13.4409 37.6613 13.207 38.3356 12.7853 38.8824Z" fill="black"/>
<path d="M6.16406 59.8185C6.00866 59.8185 5.85963 59.7568 5.74974 59.6469C5.63986 59.537 5.57812 59.388 5.57812 59.2326V46.896C5.57812 46.7406 5.63986 46.5916 5.74974 46.4817C5.85963 46.3718 6.00866 46.3101 6.16406 46.3101C6.31946 46.3101 6.4685 46.3718 6.57838 46.4817C6.68827 46.5916 6.75 46.7406 6.75 46.896V59.2326C6.75 59.388 6.68827 59.537 6.57838 59.6469C6.4685 59.7568 6.31946 59.8185 6.16406 59.8185ZM16.3847 32.5774C15.4062 32.5774 14.4862 32.1768 13.9237 31.5056C13.8239 31.3865 13.7755 31.2326 13.7891 31.0778C13.8027 30.923 13.8773 30.7799 13.9964 30.6801C14.1155 30.5803 14.2694 30.5318 14.4242 30.5455C14.579 30.5591 14.722 30.6337 14.8219 30.7528C15.1643 31.1615 15.7488 31.4055 16.3847 31.4055C17.0208 31.4055 17.6051 31.1615 17.9475 30.753C17.9969 30.694 18.0575 30.6454 18.1257 30.6098C18.194 30.5742 18.2685 30.5525 18.3452 30.5457C18.4218 30.539 18.4991 30.5474 18.5725 30.5705C18.6459 30.5936 18.714 30.6309 18.773 30.6803C18.8319 30.7298 18.8806 30.7903 18.9162 30.8586C18.9517 30.9268 18.9735 31.0014 18.9803 31.078C18.987 31.1547 18.9786 31.2319 18.9555 31.3053C18.9324 31.3787 18.8951 31.4468 18.8456 31.5058C18.2834 32.1768 17.3632 32.5774 16.3847 32.5774Z" fill="black"/>
<path d="M19.735 27.9496C20.2861 27.9496 20.7328 27.5029 20.7328 26.9518C20.7328 26.4008 20.2861 25.9541 19.735 25.9541C19.184 25.9541 18.7373 26.4008 18.7373 26.9518C18.7373 27.5029 19.184 27.9496 19.735 27.9496Z" fill="black"/>
<path d="M13.0339 27.9496C13.5849 27.9496 14.0316 27.5029 14.0316 26.9518C14.0316 26.4008 13.5849 25.9541 13.0339 25.9541C12.4828 25.9541 12.0361 26.4008 12.0361 26.9518C12.0361 27.5029 12.4828 27.9496 13.0339 27.9496Z" fill="black"/>
<path d="M21.7786 51.3432C18.6748 51.3432 16.1494 48.8181 16.1494 45.714V41.4568C16.1595 40.1551 17.2521 39.0959 18.5853 39.0959H24.972C26.3051 39.0959 27.3978 40.1551 27.4079 41.4568V45.714C27.4079 48.8181 24.8827 51.3432 21.7786 51.3432ZM18.5853 40.2681C17.8934 40.2681 17.3262 40.8055 17.3213 41.4659V45.7142C17.3213 48.1719 19.3207 50.1716 21.7786 50.1716C24.2365 50.1716 26.236 48.1721 26.236 45.7142V41.4817C26.2308 40.8055 25.6639 40.2681 24.972 40.2681H18.5853Z" fill="black"/>
<path d="M27.1462 46.6675C26.9908 46.6675 26.8417 46.6058 26.7319 46.4959C26.622 46.386 26.5602 46.237 26.5602 46.0816C26.5602 45.9262 26.622 45.7772 26.7319 45.6673C26.8417 45.5574 26.9908 45.4957 27.1462 45.4957C27.9841 45.4957 28.6659 44.8139 28.6659 43.976C28.6659 43.1381 27.9841 42.4563 27.1462 42.4563C26.9908 42.4563 26.8417 42.3946 26.7319 42.2847C26.622 42.1748 26.5602 42.0258 26.5602 41.8704C26.5602 41.715 26.622 41.5659 26.7319 41.456C26.8417 41.3462 26.9908 41.2844 27.1462 41.2844C28.6302 41.2844 29.8377 42.4919 29.8377 43.976C29.8377 45.46 28.6302 46.6675 27.1462 46.6675ZM16.4123 46.6675C14.9282 46.6675 13.7207 45.46 13.7207 43.976C13.7207 42.4919 14.9282 41.2844 16.4123 41.2844C16.5677 41.2844 16.7167 41.3462 16.8266 41.456C16.9365 41.5659 16.9982 41.715 16.9982 41.8704C16.9982 42.0258 16.9365 42.1748 16.8266 42.2847C16.7167 42.3946 16.5677 42.4563 16.4123 42.4563C15.5744 42.4563 14.8926 43.1381 14.8926 43.976C14.8926 44.8139 15.5744 45.4957 16.4123 45.4957C16.5677 45.4957 16.7167 45.5574 16.8266 45.6673C16.9365 45.7772 16.9982 45.9262 16.9982 46.0816C16.9982 46.237 16.9365 46.386 16.8266 46.4959C16.7167 46.6058 16.5677 46.6675 16.4123 46.6675Z" fill="black"/>
<path d="M27.9366 42.4564C27.7812 42.4564 27.6321 42.3947 27.5222 42.2848C27.4124 42.1749 27.3506 42.0259 27.3506 41.8705V40.6948C27.3506 37.6227 24.851 35.123 21.7788 35.123C18.7066 35.123 16.207 37.6224 16.207 40.6948V41.8705C16.207 42.0259 16.1453 42.1749 16.0354 42.2848C15.9255 42.3947 15.7765 42.4564 15.6211 42.4564C15.4657 42.4564 15.3167 42.3947 15.2068 42.2848C15.0969 42.1749 15.0352 42.0259 15.0352 41.8705V40.6948C15.0352 36.9765 18.0605 33.9512 21.7788 33.9512C25.4972 33.9512 28.5225 36.9765 28.5225 40.6948V41.8705C28.5225 42.0259 28.4608 42.1749 28.3509 42.2848C28.241 42.3947 28.092 42.4564 27.9366 42.4564ZM38.6899 51.3432C35.5859 51.3432 33.0607 48.818 33.0607 45.714V42.7958C33.0607 42.7114 33.0788 42.6279 33.114 42.5512C33.1492 42.4745 33.2006 42.4063 33.2646 42.3512C33.3286 42.2962 33.4038 42.2557 33.4849 42.2324C33.5661 42.2091 33.6513 42.2037 33.7348 42.2164C33.818 42.2291 33.9016 42.2403 33.9867 42.2476C35.4647 42.3767 36.8998 41.6879 37.7318 40.4504C37.8371 40.2928 37.9796 40.1635 38.1467 40.0741C38.3138 39.9846 38.5004 39.9376 38.6899 39.9373C39.0736 39.9373 39.4317 40.1293 39.6478 40.4504C40.4798 41.6881 41.9142 42.3784 43.3927 42.2476H43.3929C43.478 42.2403 43.5616 42.2291 43.6448 42.2164C43.7283 42.2037 43.8135 42.2091 43.8947 42.2324C43.9758 42.2557 44.051 42.2962 44.115 42.3512C44.179 42.4063 44.2304 42.4745 44.2656 42.5512C44.3008 42.6279 44.319 42.7114 44.3189 42.7958V45.714C44.3191 48.818 41.7937 51.3432 38.6899 51.3432ZM34.2326 43.434V45.7142C34.2326 48.1719 36.232 50.1716 38.6899 50.1716C41.1476 50.1716 43.1473 48.1721 43.1473 45.7142V43.434C41.3733 43.4727 39.6963 42.6071 38.6899 41.1259C37.6823 42.6076 36.0054 43.4764 34.2326 43.434Z" fill="black"/>
<path d="M34.6643 49.4033C34.6357 49.4033 34.6069 49.4012 34.5778 49.397C33.7079 49.2687 32.8444 49.0996 31.9903 48.8902C31.6849 48.8139 31.4046 48.6592 31.1772 48.4414C30.9498 48.2235 30.7832 47.9502 30.6938 47.6483C30.3656 46.53 30.2 45.3703 30.2021 44.2049C30.2021 38.551 34.0097 33.9514 38.6899 33.9514C43.3702 33.9514 47.1778 38.551 47.1778 44.2049C47.1778 45.3842 47.0124 46.5427 46.6859 47.6481C46.5049 48.2617 46.0102 48.7372 45.3949 48.8886C44.5668 49.092 43.7299 49.2574 42.8867 49.3843C42.8104 49.3961 42.7326 49.3927 42.6577 49.3744C42.5828 49.356 42.5122 49.3231 42.4501 49.2774C42.3879 49.2317 42.3354 49.1742 42.2955 49.1082C42.2557 49.0422 42.2292 48.9689 42.2177 48.8927C42.2062 48.8164 42.2099 48.7386 42.2285 48.6638C42.2471 48.5889 42.2803 48.5185 42.3262 48.4565C42.3721 48.3945 42.4298 48.3422 42.496 48.3026C42.5622 48.263 42.6355 48.2368 42.7118 48.2256C43.5196 48.1041 44.3214 47.9458 45.1146 47.7509C45.2206 47.7237 45.3175 47.6693 45.396 47.5931C45.4745 47.5169 45.5317 47.4215 45.5621 47.3164C45.8585 46.3059 46.008 45.258 46.006 44.2049C46.006 39.1972 42.724 35.1233 38.6899 35.1233C34.6559 35.1233 31.3739 39.1972 31.3739 44.2049C31.3739 45.2717 31.5232 46.3184 31.8178 47.3164C31.8489 47.4222 31.907 47.5181 31.9864 47.5945C32.0658 47.671 32.1638 47.7254 32.2706 47.7524C33.0724 47.9497 33.9066 48.1131 34.7492 48.2377C34.896 48.2587 35.0295 48.3346 35.1226 48.4501C35.2157 48.5656 35.2615 48.7121 35.2507 48.8601C35.2399 49.0081 35.1734 49.1465 35.0646 49.2473C34.9557 49.3481 34.8127 49.4039 34.6643 49.4033ZM27.9202 60.0001H11.1912C11.1114 60 11.0325 59.9837 10.9593 59.9521C10.8861 59.9205 10.8201 59.8742 10.7653 59.8162C10.7106 59.7582 10.6682 59.6896 10.6409 59.6147C10.6136 59.5398 10.6019 59.46 10.6064 59.3804L10.7344 57.1745C10.7874 56.224 11.1438 55.3156 11.7514 54.5827C12.302 53.9143 13.0351 53.4204 13.8614 53.161L17.9553 51.8724C18.2173 51.7899 18.4376 51.6395 18.5754 51.4484C18.7242 51.2432 18.8041 50.996 18.8037 50.7425V50.3324C18.8037 50.177 18.8654 50.0279 18.9753 49.918C19.0852 49.8081 19.2342 49.7464 19.3896 49.7464C19.545 49.7464 19.6941 49.8081 19.804 49.918C19.9138 50.0279 19.9756 50.177 19.9756 50.3324V50.7425C19.9765 51.2423 19.819 51.7295 19.5258 52.1342C19.2373 52.5343 18.8159 52.8301 18.3073 52.9902L14.2135 54.2788C13.6034 54.4704 13.0621 54.8351 12.6553 55.3285C12.2068 55.8697 11.9436 56.5404 11.9044 57.2422L11.8121 58.8282H27.9202C28.0756 58.8282 28.2246 58.8899 28.3345 58.9998C28.4444 59.1097 28.5061 59.2588 28.5061 59.4142C28.5061 59.5696 28.4444 59.7186 28.3345 59.8285C28.2246 59.9384 28.0756 60.0001 27.9202 60.0001ZM30.1636 54.5752C30.0713 54.5752 29.978 54.5534 29.8908 54.5075C29.7161 54.415 29.5335 54.3384 29.3452 54.2785L25.2516 52.9902C24.7435 52.8301 24.3221 52.5345 24.0333 52.1347C23.7397 51.73 23.582 51.2425 23.5831 50.7425V50.3907C23.5831 50.2353 23.6448 50.0863 23.7547 49.9764C23.8646 49.8665 24.0136 49.8048 24.169 49.8048C24.3244 49.8048 24.4734 49.8665 24.5833 49.9764C24.6932 50.0863 24.7549 50.2353 24.7549 50.3907V50.7425C24.7549 50.9977 24.8339 51.242 24.9832 51.4487C25.121 51.6395 25.3414 51.7902 25.6034 51.8724L29.697 53.1608C29.9525 53.2418 30.2003 53.3456 30.4374 53.4709C30.5533 53.5319 30.6454 53.63 30.699 53.7496C30.7526 53.8691 30.7646 54.0031 30.7331 54.1303C30.7015 54.2574 30.6283 54.3704 30.5251 54.451C30.4219 54.5317 30.2946 54.5754 30.1636 54.5752Z" fill="black"/>
<path d="M49.2774 60H28.1014C28.0216 59.9999 27.9427 59.9836 27.8694 59.9519C27.7962 59.9203 27.7302 59.8741 27.6755 59.8161C27.6207 59.7581 27.5784 59.6895 27.5511 59.6146C27.5238 59.5396 27.512 59.4599 27.5166 59.3803L27.6446 57.1743C27.6976 56.2239 28.054 55.3155 28.6615 54.5826C29.2122 53.9142 29.9453 53.4202 30.7716 53.1609L34.8654 51.8723C35.1274 51.7898 35.3478 51.6393 35.4856 51.4483C35.6344 51.2431 35.7143 50.9959 35.7138 50.7424V50.4482C35.7138 50.2928 35.7756 50.1438 35.8855 50.0339C35.9954 49.924 36.1444 49.8623 36.2998 49.8623C36.4552 49.8623 36.6042 49.924 36.7141 50.0339C36.824 50.1438 36.8857 50.2928 36.8857 50.4482V50.7424C36.8857 51.2454 36.7301 51.7268 36.436 52.1341C36.1474 52.5339 35.726 52.83 35.2174 52.99L31.1236 54.2786C30.5135 54.4703 29.9722 54.835 29.5655 55.3284C29.117 55.8696 28.8538 56.5403 28.8146 57.2421L28.7224 58.8281H48.6565L48.5646 57.2418C48.5253 56.5401 48.2621 55.8694 47.8137 55.3282C47.4069 54.8347 46.8656 54.47 46.2556 54.2784L42.162 52.99C41.6536 52.83 41.2322 52.5342 40.9437 52.1346C40.6501 51.7298 40.4925 51.2424 40.4935 50.7424V50.4482C40.4935 50.2928 40.5552 50.1438 40.6651 50.0339C40.775 49.924 40.924 49.8623 41.0794 49.8623C41.2348 49.8623 41.3838 49.924 41.4937 50.0339C41.6036 50.1438 41.6653 50.2928 41.6653 50.4482V50.7424C41.6653 50.9974 41.7443 51.2416 41.8936 51.4486C42.0314 51.6393 42.2517 51.7898 42.5138 51.8723L46.6074 53.1607C47.4337 53.42 48.1668 53.9139 48.7174 54.5824C49.3249 55.3153 49.6814 56.2236 49.7344 57.1741L49.8624 59.38C49.8671 59.4597 49.8554 59.5395 49.8281 59.6146C49.8008 59.6896 49.7585 59.7583 49.7037 59.8163C49.6489 59.8744 49.5828 59.9206 49.5095 59.9522C49.4362 59.9838 49.3572 60 49.2774 60Z" fill="black"/>
<path d="M2.99414 32.3906C2.26758 32.25 1.68164 31.6875 1.54102 30.9609C1.54102 30.9375 1.4707 30.9375 1.4707 30.9609C1.33008 31.6875 0.744141 32.25 0.0175781 32.3906C-0.00585937 32.3906 -0.00585937 32.4375 0.0175781 32.4609C0.744141 32.6016 1.33008 33.1641 1.4707 33.8906C1.4707 33.9141 1.54102 33.9141 1.54102 33.8906C1.68164 33.1641 2.26758 32.6016 2.99414 32.4609C3.01758 32.4375 3.01758 32.3906 2.99414 32.3906Z" fill="#FC657E"/>
<path d="M52.0344 10.6641H52.5734V11.2031C52.5734 11.625 52.9016 11.9531 53.3234 11.9531C53.7219 11.9531 54.0734 11.625 54.0734 11.2266V10.6641H54.6125C55.0344 10.6641 55.3625 10.3359 55.3625 9.91406C55.3625 9.51563 55.0344 9.16406 54.6359 9.16406H54.0734V8.625C54.0734 8.20313 53.7453 7.875 53.3234 7.875C52.925 7.875 52.5734 8.20313 52.5734 8.60156V9.16406H52.0344C51.6125 9.16406 51.2844 9.49219 51.2844 9.91406C51.2609 10.3125 51.5891 10.6641 52.0344 10.6641C52.0109 10.6641 52.0109 10.6641 52.0344 10.6641Z" fill="#70D6F9"/>
<path d="M59.2031 19.0547C59.6432 19.0547 60 18.6979 60 18.2578C60 17.8177 59.6432 17.4609 59.2031 17.4609C58.763 17.4609 58.4062 17.8177 58.4062 18.2578C58.4062 18.6979 58.763 19.0547 59.2031 19.0547Z" fill="#F5C84C"/>
<path d="M32.6748 1.59375C33.1149 1.59375 33.4717 1.23698 33.4717 0.796875C33.4717 0.356773 33.1149 0 32.6748 0C32.2347 0 31.8779 0.356773 31.8779 0.796875C31.8779 1.23698 32.2347 1.59375 32.6748 1.59375Z" fill="#87D147"/>
<path d="M44.0573 46.6676C43.9019 46.6676 43.7529 46.6058 43.643 46.4959C43.5331 46.386 43.4714 46.237 43.4714 46.0816C43.4714 45.9262 43.5331 45.7772 43.643 45.6673C43.7529 45.5574 43.9019 45.4957 44.0573 45.4957C44.4602 45.4952 44.8465 45.3349 45.1313 45.05C45.4162 44.7651 45.5765 44.3789 45.577 43.976C45.578 43.7259 45.5161 43.4795 45.397 43.2595C45.3065 43.0912 45.0904 43.0153 44.9055 43.0868C44.5568 43.222 44.1918 43.3188 43.8215 43.3748C43.7454 43.3865 43.6678 43.383 43.5931 43.3646C43.5183 43.3461 43.448 43.3132 43.386 43.2675C43.324 43.2219 43.2717 43.1644 43.232 43.0985C43.1922 43.0326 43.1659 42.9594 43.1545 42.8833C43.1312 42.7297 43.1699 42.5731 43.2621 42.448C43.3543 42.323 43.4924 42.2396 43.646 42.2163C43.9321 42.1729 44.2126 42.0983 44.4825 41.9939C45.2198 41.7082 46.0568 42.0133 46.4287 42.7036C46.6388 43.0947 46.7488 43.5318 46.7489 43.9758C46.7486 45.4601 45.5414 46.6676 44.0573 46.6676ZM33.3234 46.6676C31.8393 46.6676 30.6318 45.46 30.6318 43.976C30.6318 43.5325 30.7425 43.0926 30.952 42.7038C31.3239 42.0136 32.1607 41.7082 32.8985 41.9941C33.1671 42.0979 33.4486 42.1729 33.735 42.2163C33.8886 42.2396 34.0267 42.323 34.1189 42.4481C34.2111 42.5733 34.2498 42.7299 34.2264 42.8836C34.2031 43.0372 34.1197 43.1753 33.9946 43.2675C33.8695 43.3597 33.7128 43.3984 33.5592 43.375C33.1884 43.3188 32.825 43.2222 32.4752 43.087C32.29 43.015 32.0742 43.0912 31.9835 43.2597C31.8645 43.4797 31.8026 43.7259 31.8035 43.976C31.804 44.3789 31.9642 44.7651 32.2491 45.05C32.534 45.3349 32.9203 45.4952 33.3232 45.4957C33.4786 45.4956 33.6276 45.5573 33.7375 45.6672C33.8474 45.7771 33.9092 45.9261 33.9092 46.0815C33.9093 46.2369 33.8475 46.3859 33.7377 46.4959C33.6278 46.6058 33.4788 46.6675 33.3234 46.6676ZM52.0336 30.273C51.8782 30.273 51.7291 30.2113 51.6192 30.1014C51.5093 29.9915 51.4476 29.8425 51.4476 29.6871C51.4476 29.5317 51.5093 29.3826 51.6192 29.2728C51.7291 29.1629 51.8782 29.1011 52.0336 29.1011C53.2689 29.1011 54.2739 28.0961 54.2739 26.8608C54.2739 25.6254 53.2689 24.6204 52.0336 24.6204C51.8782 24.6204 51.7291 24.5586 51.6192 24.4487C51.5093 24.3389 51.4476 24.1898 51.4476 24.0344C51.4476 23.879 51.5093 23.73 51.6192 23.6201C51.7291 23.5102 51.8782 23.4485 52.0336 23.4485C53.9151 23.4485 55.4458 24.9792 55.4458 26.8608C55.4458 28.7423 53.9151 30.273 52.0336 30.273Z" fill="black"/>
<path d="M44.8293 36.5495C40.7734 36.5495 37.4736 33.2497 37.4736 29.1939V25.1622C37.4736 25.0715 37.4946 24.9821 37.535 24.9009C37.5754 24.8197 37.6341 24.7491 37.7065 24.6944C37.7788 24.6398 37.8629 24.6027 37.952 24.5861C38.0412 24.5695 38.1329 24.5738 38.2201 24.5987C43.2154 26.0214 46.6794 22.543 47.6223 21.4424C47.7117 21.3373 47.8214 21.2514 47.9448 21.1898C48.0683 21.1282 48.2029 21.0922 48.3407 21.084C48.4799 21.0754 48.6194 21.0948 48.751 21.1411C48.8825 21.1874 49.0035 21.2596 49.1066 21.3536C49.8641 22.0422 50.6073 22.4743 51.3149 22.6382C51.8272 22.757 52.1849 23.2037 52.1849 23.7247V29.1939C52.1846 33.2497 48.8851 36.5495 44.8293 36.5495ZM38.6453 25.9093V29.1939C38.6453 32.6036 41.4193 35.3776 44.829 35.3776C48.2387 35.3776 51.0128 32.6036 51.0128 29.1939V23.7709C50.1533 23.5637 49.2814 23.0729 48.4192 22.3112C47.2951 23.586 43.7549 26.9666 38.6453 25.9093Z" fill="black"/>
<path d="M37.6252 30.2731C35.7436 30.2731 34.2129 28.7424 34.2129 26.8609C34.2129 25.9238 34.6057 25.0182 35.291 24.3755C35.4978 24.1809 35.7573 24.0515 36.0372 24.0036C36.3171 23.9557 36.6049 23.9914 36.8646 24.1062C37.3046 24.3014 37.7576 24.4659 38.2202 24.5987C38.2953 24.6188 38.3656 24.6536 38.4271 24.7012C38.4886 24.7487 38.54 24.8081 38.5783 24.8757C38.6166 24.9433 38.6411 25.0179 38.6504 25.095C38.6596 25.1722 38.6534 25.2505 38.6321 25.3252C38.6108 25.4 38.5748 25.4697 38.5263 25.5304C38.4778 25.5912 38.4177 25.6416 38.3495 25.6789C38.2812 25.7161 38.2063 25.7394 38.129 25.7475C38.0517 25.7555 37.9735 25.748 37.8991 25.7255C37.3845 25.5779 36.8807 25.3951 36.3912 25.1783C36.3418 25.1566 36.2871 25.15 36.234 25.1593C36.1809 25.1686 36.1317 25.1934 36.0926 25.2305C35.8684 25.4386 35.6897 25.691 35.5679 25.9716C35.4461 26.2522 35.3837 26.555 35.3848 26.8609C35.3848 28.0962 36.3898 29.1012 37.6252 29.1012C37.6723 29.1012 37.7187 29.0994 37.7648 29.0959C37.8417 29.0898 37.919 29.0989 37.9922 29.1229C38.0655 29.1469 38.1332 29.1851 38.1916 29.2355C38.25 29.2858 38.2978 29.3472 38.3323 29.4161C38.3668 29.485 38.3872 29.5601 38.3925 29.637C38.3982 29.7138 38.3887 29.7909 38.3646 29.864C38.3405 29.9371 38.3022 30.0047 38.2519 30.063C38.2017 30.1212 38.1404 30.1691 38.0717 30.2037C38.003 30.2383 37.9281 30.259 37.8513 30.2647C37.7761 30.2702 37.7006 30.273 37.6252 30.2731Z" fill="black"/>
<path d="M35.623 25.3967C35.4676 25.3967 35.3186 25.3349 35.2087 25.225C35.0988 25.1151 35.0371 24.9661 35.0371 24.8107V23.2097C35.0371 17.8106 39.4295 13.4182 44.8286 13.4182C50.2277 13.4182 54.6201 17.8106 54.6201 23.2097V24.7165C54.6201 24.8719 54.5583 25.0209 54.4485 25.1308C54.3386 25.2407 54.1895 25.3024 54.0341 25.3024C53.8787 25.3024 53.7297 25.2407 53.6198 25.1308C53.5099 25.0209 53.4482 24.8719 53.4482 24.7165V23.2097C53.4482 18.4568 49.5815 14.5901 44.8286 14.5901C40.0757 14.5901 36.209 18.4568 36.209 23.2097V24.8107C36.209 24.9661 36.1473 25.1151 36.0374 25.225C35.9275 25.3349 35.7784 25.3967 35.623 25.3967ZM50.2359 60H49.2777C49.1223 60 48.9733 59.9383 48.8634 59.8284C48.7535 59.7185 48.6918 59.5695 48.6918 59.4141C48.6918 59.2587 48.7535 59.1096 48.8634 58.9998C48.9733 58.8899 49.1223 58.8281 49.2777 58.8281H49.6499V44.3027C49.6499 44.1473 49.7117 43.9983 49.8215 43.8884C49.9314 43.7785 50.0805 43.7168 50.2359 43.7168C50.3913 43.7168 50.5403 43.7785 50.6502 43.8884C50.7601 43.9983 50.8218 44.1473 50.8218 44.3027V59.4141C50.8218 59.5695 50.7601 59.7185 50.6502 59.8284C50.5403 59.9383 50.3913 60 50.2359 60Z" fill="black"/>
<path d="M46.6787 46.2202C46.5321 46.2203 46.3909 46.1654 46.2828 46.0664C46.1747 45.9674 46.1076 45.8315 46.0948 45.6855C46.082 45.5395 46.1244 45.394 46.2136 45.2777C46.3029 45.1614 46.4324 45.0827 46.5768 45.0573C47.655 44.8669 48.6939 44.4977 49.6506 43.9651V39.546C49.6506 39.3906 49.7123 39.2415 49.8222 39.1316C49.9321 39.0217 50.0811 38.96 50.2365 38.96C50.3919 38.96 50.541 39.0217 50.6509 39.1316C50.7607 39.2415 50.8225 39.3906 50.8225 39.546V44.3028C50.8225 44.5084 50.7149 44.6989 50.5386 44.8049C49.3833 45.4997 48.1101 45.9763 46.7825 46.2111C46.7474 46.2172 46.7127 46.2202 46.6787 46.2202ZM16.2765 37.1802C11.8588 37.1802 8.26465 33.586 8.26465 29.1681V22.9358C8.26271 21.7981 8.70085 20.7038 9.48739 19.8819C10.1823 19.153 11.3047 19.0752 12.1007 19.6981C12.9261 20.3443 14.3223 21.1147 16.2847 21.1147C18.2427 21.1147 19.6314 20.3474 20.4515 19.7035C21.2483 19.078 22.3724 19.1544 23.0659 19.8819C23.8524 20.7039 24.2905 21.7982 24.2886 22.9358V29.1681C24.2886 31.3477 23.3736 33.4651 21.7785 34.977C21.6792 35.0711 21.5502 35.1275 21.4138 35.1364C19.989 35.2299 18.666 35.8649 17.6884 36.924C17.5958 37.0245 17.4709 37.0894 17.3354 37.1075C16.975 37.1558 16.619 37.1802 16.2765 37.1802ZM10.8913 20.4514C10.6881 20.4514 10.4875 20.5313 10.3382 20.6879C9.75842 21.2925 9.43529 22.0981 9.43653 22.9358V29.1681C9.43653 32.9396 12.505 36.0083 16.2765 36.0083C16.5039 36.0083 16.7392 35.9954 16.9787 35.9701C18.0927 34.8374 19.5475 34.1396 21.1171 33.9852C22.408 32.6907 23.1165 30.988 23.1165 29.1681V22.9358C23.1165 22.096 22.7973 21.2984 22.2177 20.6905C21.943 20.4024 21.4949 20.3745 21.175 20.6253C20.2096 21.3831 18.5774 22.2863 16.2847 22.2863C13.9883 22.2863 12.3491 21.3805 11.3783 20.6209C11.2395 20.5115 11.068 20.4519 10.8913 20.4514Z" fill="black"/>
<path d="M12.072 39.3896C11.9552 39.3896 11.8411 39.3548 11.7442 39.2895C11.6474 39.2242 11.5723 39.1315 11.5285 39.0233C11.4847 38.915 11.4743 38.7962 11.4986 38.6819C11.5228 38.5677 11.5806 38.4633 11.6646 38.3822C11.8552 38.1974 12.0069 37.9764 12.1107 37.7321C12.2146 37.4878 12.2685 37.2252 12.2693 36.9598V35.9471C12.2693 35.7917 12.331 35.6426 12.4409 35.5327C12.5508 35.4229 12.6998 35.3611 12.8552 35.3611C13.0106 35.3611 13.1597 35.4229 13.2696 35.5327C13.3794 35.6426 13.4412 35.7917 13.4412 35.9471V36.9598C13.4412 37.8082 13.0905 38.6339 12.4791 39.2248C12.37 39.3306 12.2239 39.3897 12.072 39.3896ZM24.1788 30.2953C23.9944 30.2953 23.8017 30.2787 23.5901 30.2447C23.4459 30.2215 23.3157 30.1452 23.2248 30.0309C23.1339 29.9167 23.089 29.7726 23.0988 29.6269C23.1108 29.4502 23.1162 29.3046 23.1162 29.1682V23.5465C23.1162 23.4067 23.1662 23.2715 23.2571 23.1654C23.3481 23.0592 23.474 22.9891 23.6121 22.9676C23.7995 22.9381 23.9889 22.9232 24.1786 22.9228C26.2111 22.9228 27.8648 24.5766 27.8648 26.6091C27.8651 28.6416 26.2113 30.2953 24.1788 30.2953ZM24.2883 24.0968V29.1209C25.6242 29.0635 26.6932 27.9586 26.6932 26.6089C26.6932 25.2591 25.6242 24.1545 24.2883 24.0968ZM8.37398 30.2953C6.34125 30.2953 4.6875 28.6416 4.6875 26.6089C4.6875 24.5764 6.34125 22.9226 8.37398 22.9226C8.55891 22.9226 8.74945 22.9376 8.94047 22.9674C9.0786 22.9888 9.2045 23.059 9.29545 23.1652C9.38639 23.2713 9.43639 23.4065 9.43641 23.5463V29.168C9.43641 29.3051 9.4418 29.4509 9.45375 29.6264C9.46357 29.772 9.41871 29.9161 9.32794 30.0303C9.23716 30.1446 9.10702 30.2209 8.96297 30.2442C8.75156 30.2785 8.55891 30.2953 8.37398 30.2953ZM8.26453 24.0968C6.92859 24.1545 5.85938 25.2591 5.85938 26.6089C5.85938 27.9586 6.92859 29.0635 8.26453 29.1209V24.0968Z" fill="black"/>
<path d="M25.7558 24.4116C25.6004 24.4116 25.4514 24.3499 25.3415 24.24C25.2316 24.1301 25.1699 23.9811 25.1699 23.8257V21.394C25.1699 19.0845 24.6247 17.76 23.6746 17.76C23.1013 17.76 22.6288 17.3032 22.6208 16.7417C22.6058 15.6373 22.2292 14.7938 21.4696 14.1631C20.0275 12.9657 17.2386 12.6176 13.8184 13.2082C12.0205 13.5151 10.3894 14.4487 9.21429 15.8436C8.03918 17.2384 7.39602 19.0044 7.39887 20.8282V23.7497C7.39887 23.9051 7.33713 24.0542 7.22725 24.1641C7.11737 24.2739 6.96833 24.3357 6.81293 24.3357C6.65753 24.3357 6.50849 24.2739 6.39861 24.1641C6.28872 24.0542 6.22699 23.9051 6.22699 23.7497V20.8285C6.22368 18.7283 6.96425 16.6947 8.31735 15.0885C9.67046 13.4823 11.5487 12.4071 13.6189 12.0537C15.8279 11.6722 19.8824 11.3218 22.2182 13.2617C23.211 14.0862 23.739 15.2056 23.7892 16.591C24.7935 16.64 26.3418 17.3693 26.3418 21.394V23.8257C26.3418 23.9811 26.28 24.1301 26.1701 24.24C26.0603 24.3499 25.9112 24.4116 25.7558 24.4116ZM5.88832 51.5989H1.27441C1.11901 51.5989 0.969978 51.5371 0.860094 51.4273C0.750209 51.3174 0.688477 51.1683 0.688477 51.0129C0.688477 50.8575 0.750209 50.7085 0.860094 50.5986C0.969978 50.4887 1.11901 50.427 1.27441 50.427H5.88832C6.04372 50.427 6.19276 50.4887 6.30264 50.5986C6.41253 50.7085 6.47426 50.8575 6.47426 51.0129C6.47426 51.1683 6.41253 51.3174 6.30264 51.4273C6.19276 51.5371 6.04372 51.5989 5.88832 51.5989ZM13.0586 44.9211C12.872 44.9214 12.6873 44.8849 12.5149 44.8137C12.3426 44.7424 12.186 44.6378 12.0543 44.5058L8.65676 41.1082C8.55905 41.0112 8.48158 40.8957 8.42884 40.7685C8.37609 40.6413 8.34912 40.5049 8.34949 40.3672C8.34912 40.2294 8.37609 40.093 8.42884 39.9658C8.48158 39.8386 8.55905 39.7231 8.65676 39.6261L9.92988 38.3529C10.5711 37.7117 11.6146 37.7117 12.2554 38.3529L15.4942 41.5918C15.6451 41.7424 15.7462 41.9357 15.7839 42.1456C15.8038 42.2559 15.7918 42.3697 15.7491 42.4734C15.7064 42.5771 15.6348 42.6663 15.5429 42.7306C15.2704 42.9212 15.0675 43.1955 14.9647 43.5118C14.9362 43.6004 14.8869 43.681 14.8211 43.7468L14.0621 44.5058C13.9305 44.6377 13.7741 44.7423 13.6018 44.8136C13.4296 44.8849 13.245 44.9214 13.0586 44.9211ZM9.57293 40.3669L12.8828 43.677C12.9294 43.7236 12.9926 43.7498 13.0584 43.7498C13.1243 43.7498 13.1875 43.7236 13.2341 43.677L13.8995 43.0116C14.0191 42.7022 14.1946 42.4173 14.4172 42.1714L11.4271 39.1812C11.3383 39.0928 11.2181 39.0431 11.0929 39.0431C10.9676 39.0431 10.8474 39.0928 10.7586 39.1812L9.57293 40.3669ZM21.7787 56.4816C19.5761 56.4816 17.5707 55.2603 16.5461 53.2941C16.4786 53.1568 16.4675 52.9985 16.5151 52.853C16.5628 52.7076 16.6654 52.5866 16.8011 52.5158C16.9368 52.4451 17.0948 52.4302 17.2413 52.4744C17.3879 52.5185 17.5113 52.6183 17.5853 52.7522C18.4075 54.3296 20.0143 55.3095 21.7789 55.3095C23.5436 55.3095 25.1502 54.3296 25.9726 52.7522C26.0082 52.684 26.0569 52.6234 26.1159 52.574C26.1748 52.5246 26.243 52.4873 26.3164 52.4642C26.3898 52.4411 26.467 52.4327 26.5437 52.4394C26.6204 52.4462 26.6949 52.468 26.7632 52.5036C26.8314 52.5391 26.892 52.5878 26.9414 52.6468C26.9908 52.7058 27.0281 52.7739 27.0512 52.8473C27.0743 52.9207 27.0827 52.998 27.076 53.0746C27.0692 53.1513 27.0474 53.2259 27.0118 53.2941C25.9864 55.2603 23.9814 56.4816 21.7787 56.4816ZM38.6898 56.108C36.9618 56.108 35.3549 55.0207 34.2814 53.1254C34.2421 53.0583 34.2164 52.9842 34.206 52.9071C34.1956 52.8301 34.2006 52.7518 34.2207 52.6767C34.2409 52.6017 34.2758 52.5313 34.3233 52.4699C34.3709 52.4084 34.4302 52.3571 34.4979 52.3187C34.5655 52.2804 34.6401 52.256 34.7173 52.2468C34.7944 52.2376 34.8727 52.2438 34.9474 52.2651C35.0221 52.2864 35.0919 52.3224 35.1526 52.371C35.2133 52.4195 35.2637 52.4796 35.301 52.5479C36.1607 54.0657 37.3958 54.9361 38.6896 54.9361C39.9833 54.9361 41.2187 54.0657 42.0782 52.5479C42.116 52.4809 42.1668 52.422 42.2274 52.3747C42.2881 52.3273 42.3574 52.2923 42.4316 52.2718C42.5058 52.2513 42.5832 52.2456 42.6596 52.255C42.736 52.2645 42.8097 52.2889 42.8767 52.3268C42.9437 52.3647 43.0025 52.4154 43.0499 52.4761C43.0972 52.5367 43.1322 52.6061 43.1527 52.6803C43.1733 52.7544 43.179 52.8319 43.1695 52.9083C43.1601 52.9847 43.1357 53.0584 43.0977 53.1254C42.0247 55.0207 40.4178 56.108 38.6898 56.108Z" fill="black"/>
<path d="M21.0498 4.26563C22.1045 4.07813 22.9248 3.25781 23.1357 2.22656C23.1357 2.17969 23.2295 2.17969 23.2295 2.22656C23.4404 3.25781 24.2607 4.07813 25.3154 4.26563C25.3623 4.26563 25.3623 4.33594 25.3154 4.35938C24.2607 4.54688 23.4404 5.36719 23.2295 6.39844C23.2295 6.44531 23.1357 6.44531 23.1357 6.39844C22.9248 5.36719 22.1045 4.54688 21.0498 4.35938C21.0029 4.33594 21.0029 4.26563 21.0498 4.26563Z" fill="#F5C84C"/>
<path d="M30.8158 43.7901C30.7087 43.7902 30.6036 43.7609 30.5119 43.7054C30.4202 43.6499 30.3456 43.5703 30.296 43.4754C30.1431 43.1822 29.9299 42.9247 29.6706 42.7197C29.4112 42.5146 29.1114 42.3667 28.7908 42.2857L27.9161 42.0656C27.7654 42.0277 27.636 41.9314 27.5562 41.798C27.4765 41.6646 27.453 41.505 27.491 41.3543C27.5289 41.2036 27.6252 41.0741 27.7586 40.9944C27.892 40.9146 28.0516 40.8912 28.2023 40.9291L29.077 41.1492C29.5577 41.2707 30.0074 41.4923 30.3965 41.7997C30.7856 42.1071 31.1053 42.4932 31.3347 42.9328C31.3814 43.0221 31.4042 43.1219 31.4011 43.2226C31.3979 43.3232 31.3689 43.4214 31.3167 43.5076C31.2645 43.5938 31.1911 43.665 31.1033 43.7145C31.0156 43.764 30.9166 43.7901 30.8158 43.7901ZM31.6556 53.8045C31.5062 53.8044 31.3624 53.7472 31.2538 53.6446C31.1452 53.542 31.0799 53.4017 31.0713 53.2526L30.75 47.7117C30.7442 47.6342 30.754 47.5563 30.7786 47.4826C30.8033 47.4088 30.8424 47.3408 30.8936 47.2823C30.9449 47.2238 31.0072 47.1762 31.077 47.142C31.1469 47.1079 31.2228 47.088 31.3004 47.0835C31.378 47.079 31.4558 47.09 31.5291 47.1159C31.6024 47.1417 31.6698 47.1819 31.7275 47.234C31.7851 47.2862 31.8318 47.3493 31.8648 47.4197C31.8978 47.49 31.9165 47.5663 31.9197 47.644L32.2411 53.1848C32.2457 53.2645 32.2339 53.3443 32.2066 53.4193C32.1792 53.4943 32.1368 53.5629 32.082 53.621C32.0272 53.679 31.9611 53.7252 31.8877 53.7568C31.8144 53.7883 31.7354 53.8046 31.6556 53.8045ZM21.7579 47.9222C20.9214 47.9222 20.1337 47.5783 19.6511 47.002C19.6017 46.9431 19.5644 46.8749 19.5413 46.8015C19.5182 46.7281 19.5098 46.6509 19.5165 46.5743C19.5233 46.4976 19.5451 46.4231 19.5807 46.3549C19.6163 46.2867 19.665 46.2261 19.724 46.1768C19.783 46.1273 19.8511 46.09 19.9245 46.0669C19.9979 46.0438 20.0751 46.0354 20.1517 46.0422C20.2284 46.0489 20.3029 46.0707 20.3712 46.1064C20.4394 46.142 20.4999 46.1907 20.5493 46.2497C20.8122 46.5633 21.2639 46.7505 21.7579 46.7505C22.2518 46.7505 22.7036 46.5633 22.9666 46.2497C23.0664 46.1306 23.2095 46.056 23.3643 46.0424C23.5191 46.0288 23.673 46.0772 23.7921 46.177C23.9112 46.2768 23.9857 46.4199 23.9994 46.5747C24.013 46.7295 23.9646 46.8834 23.8647 47.0025C23.3819 47.5783 22.5944 47.9222 21.7579 47.9222ZM24.0356 42.8329C23.6646 42.8329 23.3627 43.1348 23.3627 43.5058C23.3627 43.8769 23.6646 44.1785 24.0356 44.1785C24.4066 44.1785 24.7085 43.8766 24.7085 43.5058C24.7085 43.1351 24.4064 42.8329 24.0356 42.8329ZM19.4805 42.8329C19.1095 42.8329 18.8076 43.1348 18.8076 43.5058C18.8076 43.8769 19.1095 44.1785 19.4805 44.1785C19.8515 44.1785 20.1534 43.8766 20.1534 43.5058C20.1534 43.1351 19.8515 42.8329 19.4805 42.8329ZM38.6592 48.3909C37.8227 48.3909 37.035 48.0471 36.5524 47.4708C36.5029 47.4118 36.4656 47.3437 36.4425 47.2703C36.4194 47.1969 36.411 47.1197 36.4178 47.043C36.4245 46.9664 36.4464 46.8918 36.482 46.8236C36.5176 46.7554 36.5663 46.6949 36.6253 46.6455C36.6842 46.5961 36.7523 46.5587 36.8257 46.5356C36.8991 46.5126 36.9764 46.5041 37.053 46.5109C37.1296 46.5177 37.2042 46.5395 37.2724 46.5751C37.3406 46.6107 37.4011 46.6594 37.4505 46.7184C37.7135 47.032 38.1651 47.2193 38.6592 47.2193C39.153 47.2193 39.6049 47.032 39.8679 46.7184C39.9677 46.5993 40.1107 46.5248 40.2655 46.5111C40.4203 46.4975 40.5742 46.5459 40.6933 46.6458C40.8124 46.7456 40.887 46.8886 40.9006 47.0434C40.9142 47.1983 40.8658 47.3521 40.766 47.4712C40.2829 48.0471 39.4954 48.3909 38.6592 48.3909ZM40.9366 43.3017C40.5656 43.3017 40.2637 43.6036 40.2637 43.9746C40.2637 44.3456 40.5656 44.6472 40.9366 44.6472C41.3076 44.6472 41.6095 44.3454 41.6095 43.9746C41.6095 43.6038 41.3074 43.3017 40.9366 43.3017ZM36.3815 43.3017C36.0105 43.3017 35.7086 43.6036 35.7086 43.9746C35.7086 44.3456 36.0105 44.6472 36.3815 44.6472C36.7525 44.6472 37.0544 44.3454 37.0544 43.9746C37.0544 43.6038 36.7525 43.3017 36.3815 43.3017Z" fill="black"/>
</g>
<defs>
<clipPath id="clip0_1136_1535">
<rect width="60" height="60" fill="white"/>
</clipPath>
</defs>
</svg>
