<svg width="40" height="40" viewBox="0 0 40 40" fill="none" xmlns="http://www.w3.org/2000/svg">
<g clip-path="url(#clip0_2_30)">
<path d="M39.2187 36.1719L34.2019 31.1551C32.9306 29.8838 30.8694 29.8838 29.598 31.1551L24.6045 36.1487L39.2187 36.1719Z" fill="#DCA98B"/>
<path d="M10.2616 26.6699V32.8125H2.46094C1.5332 32.8125 0.78125 33.5645 0.78125 34.4922C0.78125 35.4199 1.5332 36.1719 2.46094 36.1719H10.824C12.7277 36.1719 14.2709 34.6286 14.2709 32.7252V27.0312L10.2616 26.6699Z" fill="#79B2FF"/>
<path d="M14.1629 0.859375H10.4694C9.66977 0.859375 9.02188 1.50727 9.02188 2.3068V4.33961H15.6103V2.3068C15.6103 1.50727 14.9625 0.859375 14.1629 0.859375Z" fill="#FFC15A"/>
<path d="M12.4036 9.98047C10.751 9.98047 9.41164 8.64079 9.41164 6.98852V4.33961H15.3955V6.98852C15.3955 8.64079 14.0558 9.98047 12.4036 9.98047Z" fill="#F2D1A5"/>
<path d="M7.78258 19.3881V14.2245C7.78258 12.1955 9.42781 10.5502 11.4569 10.5502C12.0363 10.5502 12.6076 10.6872 13.124 10.9501C13.6404 11.2131 14.0872 11.5944 14.4281 12.063L17.0013 15.5997H22.4195C23.3701 15.5997 24.1409 16.3702 24.1409 17.3212C24.1409 18.2718 23.3701 19.0423 22.4195 19.0423H15.0787L13.3277 17.074L14.0589 18.0078V22.569H18.6035C20.5072 22.569 22.0502 24.1123 22.0502 26.0156V34.4922C22.0502 35.4199 21.2982 36.1719 20.3705 36.1719C19.4431 36.1719 18.6908 35.4199 18.6908 34.4922V26.8906H11.9422C9.64484 26.8906 7.78266 25.0284 7.78266 22.7312V18.0078" fill="#79B2FF"/>
<path d="M14.0588 22.731V18.0078L13.3276 17.074L15.0784 19.0423H22.4195C23.3701 19.0423 24.1406 18.2718 24.1406 17.3212C24.1406 16.3705 23.3701 15.6 22.4195 15.6H17.0013L14.4281 12.063C14.0872 11.5944 13.6403 11.2131 13.124 10.9502C12.6076 10.6873 12.0363 10.5502 11.4569 10.5502C9.42781 10.5502 7.78265 12.1955 7.78265 14.2245V22.731H14.0588Z" fill="#FFCB7C"/>
<path d="M29.9899 5.40375C29.9899 6.85672 30.7501 8.13141 31.8939 8.85406C33.0377 8.13141 33.7979 6.85672 33.7979 5.40375C33.7979 3.95047 33.0377 2.67578 31.894 1.95312C30.7502 2.67578 29.9899 3.95047 29.9899 5.40375ZM33.3948 13.7273C32.1027 15.0192 31.6452 16.8289 32.0197 18.4884C33.6792 18.8627 35.4886 18.4052 36.7807 17.1134C38.0725 15.8212 38.5299 14.0118 38.1559 12.3523C36.4963 11.9778 34.6866 12.4352 33.3948 13.7273ZM30.5795 10.8573C31.7106 11.9882 32.1109 13.5721 31.7831 15.025C30.3305 15.3525 28.7466 14.9521 27.6156 13.8211C26.4847 12.6902 26.0843 11.1063 26.4117 9.65359C27.8647 9.32586 29.4485 9.72625 30.5795 10.8573ZM30.2417 19.2539C31.6635 20.6759 32.167 22.6672 31.755 24.4937C29.9286 24.9057 27.9374 24.4022 26.5152 22.9803C25.0934 21.5582 24.5898 19.567 25.0019 17.7405C26.8283 17.3288 28.8196 17.8321 30.2417 19.2539Z" fill="#CBE558"/>
<path d="M39.7711 35.6195L34.7543 30.6027C34.1875 30.0344 33.4632 29.6492 32.6752 29.4968V19.3773C32.8391 19.3911 33.0023 19.3978 33.1653 19.3978C34.7141 19.3978 36.2088 18.7899 37.333 17.6656C38.775 16.2237 39.3674 14.1732 38.9178 12.1801C38.8853 12.036 38.8126 11.904 38.7081 11.7996C38.6037 11.6951 38.4718 11.6224 38.3277 11.5899C36.3348 11.1407 34.2841 11.733 32.8424 13.175C32.785 13.232 32.7298 13.2906 32.6752 13.3495V9.26078C33.8748 8.34313 34.5791 6.93172 34.5791 5.40336C34.5791 3.7268 33.7314 2.18984 32.3114 1.29266C32.1865 1.21371 32.0417 1.1718 31.8939 1.1718C31.7461 1.1718 31.6013 1.21371 31.4764 1.29266C30.0565 2.18984 29.2087 3.72672 29.2087 5.40336C29.2087 6.93172 29.913 8.34313 31.1127 9.26078V10.2862C29.8279 9.01391 28.0084 8.49242 26.24 8.89125C26.0959 8.92378 25.9639 8.99648 25.8595 9.10093C25.755 9.20538 25.6823 9.3373 25.6497 9.48141C25.249 11.2587 25.7773 13.0874 27.063 14.3734C28.0658 15.3762 29.3988 15.9182 30.78 15.9182C30.8908 15.9182 31.0016 15.9136 31.1127 15.9069V19.0447C31.0106 18.9265 30.9044 18.812 30.7941 18.7014C29.2423 17.1498 27.042 16.5035 24.8959 16.9647C24.7223 15.7528 23.678 14.8184 22.4194 14.8184H17.399L15.0598 11.6033C14.729 11.1483 14.317 10.7674 13.8528 10.4717C15.2161 9.90227 16.1767 8.55555 16.1767 6.98844V5.12086H17.3812C17.8128 5.12086 18.1625 4.77109 18.1625 4.33961C18.1625 3.90813 17.8128 3.55836 17.3812 3.55836H16.3916V2.3068C16.3916 1.07789 15.3919 0.078125 14.1629 0.078125H10.4694C9.24047 0.078125 8.24063 1.07789 8.24063 2.3068V3.55836H7.25094C6.81945 3.55836 6.46969 3.90805 6.46969 4.33961C6.46969 4.77117 6.81945 5.12086 7.25094 5.12086H8.63039V6.98852C8.63039 8.20492 9.20961 9.28836 10.1062 9.97891C8.30773 10.5523 7.00133 12.2384 7.00133 14.2245V22.731C7.00133 24.5593 8.00016 26.1578 9.48023 27.012V32.0312H2.46094C1.10414 32.0312 0 33.1354 0 34.4922C0 35.849 1.10414 36.9531 2.46094 36.9531H3.4668C3.89828 36.9531 4.24805 36.6034 4.24805 36.1719C4.24805 35.7404 3.89828 35.3906 3.4668 35.3906H2.46094C1.96562 35.3906 1.5625 34.9875 1.5625 34.4922C1.5625 33.9969 1.96562 33.5938 2.46094 33.5938H10.2616C10.693 33.5938 11.0428 33.244 11.0428 32.8125V27.5882C11.3394 27.6435 11.6404 27.6715 11.9421 27.6718H13.4897V32.7249C13.4897 34.1949 12.2937 35.3906 10.824 35.3906H9.7168C9.28531 35.3906 8.93555 35.7404 8.93555 36.1719C8.93555 36.6034 9.28531 36.9531 9.7168 36.9531H10.824C13.1555 36.9531 15.0522 35.0565 15.0522 32.7249V27.6718H17.9095V34.4922C17.9095 35.849 19.0137 36.9531 20.3705 36.9531C21.7276 36.9531 22.8314 35.849 22.8314 34.4922V26.0156C22.8314 23.6841 20.9351 21.7874 18.6035 21.7874H14.8401V19.7861C14.9164 19.8105 14.9966 19.8236 15.0787 19.8236H22.4194C23.0573 19.8236 23.6398 19.5834 24.0823 19.1892C24.1296 20.8056 24.7861 22.3556 25.9628 23.5327C27.1854 24.7552 28.8105 25.4159 30.4941 25.4159C30.6998 25.4159 30.9061 25.4055 31.1127 25.3857V29.4995C30.3292 29.6533 29.6095 30.0374 29.0457 30.6027L24.0521 35.5963C23.747 35.9012 23.747 36.3959 24.0521 36.701C24.357 37.0063 24.852 37.0063 25.1568 36.701L30.1505 31.7077C31.1151 30.7428 32.6846 30.7428 33.6496 31.7077L38.6664 36.7242C38.819 36.8768 39.0188 36.9531 39.2188 36.9531C39.4187 36.9531 39.6185 36.8768 39.7711 36.7242C40.0763 36.4191 40.0763 35.9244 39.7711 35.6195ZM31.1002 14.3417C30.0173 14.4336 28.9499 14.0503 28.168 13.2687C27.3865 12.4869 27.0026 11.4197 27.095 10.3366C28.1778 10.2445 29.2453 10.628 30.0272 11.4096C30.8087 12.1915 31.1923 13.259 31.1002 14.3417ZM33.9471 14.2798C34.8862 13.3411 36.1759 12.8915 37.4777 13.0304C37.6162 14.3316 37.167 15.622 36.2284 16.5607C35.2893 17.4998 33.9996 17.949 32.6977 17.8101C32.6843 17.6783 32.6768 17.5461 32.6752 17.4137V17.2616C32.6969 16.152 33.1405 15.0863 33.9471 14.2798ZM31.894 2.92477C32.6047 3.54648 33.0166 4.44117 33.0166 5.40375C33.0166 6.36594 32.6047 7.26078 31.894 7.88242C31.1832 7.2607 30.7712 6.36625 30.7712 5.40375C30.7712 4.44125 31.1832 3.54648 31.8939 2.92484L31.894 2.92477ZM14.6143 6.98852C14.6143 8.20742 13.6224 9.19922 12.4036 9.19922C11.1844 9.19922 10.1929 8.20742 10.1929 6.98852V5.12086H14.6143V6.98852ZM9.80313 2.3068C9.80313 1.93938 10.102 1.64062 10.4694 1.64062H14.1629C14.5303 1.64062 14.8291 1.93938 14.8291 2.3068V3.55836H9.80313V2.3068ZM18.6035 23.35C20.0733 23.35 21.2689 24.5459 21.2689 26.0157V34.4922C21.2689 34.9875 20.8661 35.3906 20.3705 35.3906C19.8752 35.3906 19.472 34.9875 19.472 34.4922V26.8906C19.472 26.4594 19.1223 26.1094 18.6908 26.1094H11.9418C10.2909 26.1094 8.91328 24.9182 8.62148 23.3499L18.6035 23.35ZM22.4195 18.2612H15.4291L13.9114 16.5549C13.6246 16.2323 13.1308 16.2037 12.8083 16.4902C12.4859 16.7771 12.457 17.2709 12.7438 17.5934L13.2776 18.1931V21.7875H8.56383V14.2246C8.56383 12.6295 9.86172 11.3316 11.4569 11.3316C12.3791 11.3316 13.2537 11.7769 13.7964 12.5227L16.3696 16.0594C16.442 16.159 16.5371 16.2401 16.6468 16.296C16.7566 16.3519 16.8781 16.3811 17.0013 16.381H22.4195C22.9379 16.381 23.3597 16.8027 23.3597 17.3213C23.3597 17.8395 22.9377 18.2612 22.4195 18.2612ZM31.0797 23.8184C29.6027 23.9945 28.1332 23.4934 27.0679 22.428C26.0026 21.3627 25.5008 19.8929 25.6772 18.4159C27.1539 18.2389 28.624 18.7413 29.6893 19.8066C30.6052 20.7224 31.1029 21.9373 31.1127 23.1986V23.3091C31.1105 23.4793 31.0995 23.6493 31.0797 23.8184Z" fill="black"/>
<path d="M6.59148 35.3906C6.38577 35.3906 6.18523 35.4742 6.03913 35.6195C5.89382 35.7648 5.81085 35.9665 5.81085 36.1719C5.81085 36.3773 5.89382 36.5789 6.03913 36.7242C6.18606 36.8701 6.38445 36.9523 6.59148 36.9531C6.79687 36.9531 6.99827 36.8695 7.14445 36.7242C7.28976 36.5789 7.37335 36.3773 7.37335 36.1719C7.37335 35.9665 7.28976 35.7648 7.14445 35.6195C6.99724 35.4737 6.79868 35.3915 6.59148 35.3906Z" fill="black"/>
</g>
<defs>
<clipPath id="clip0_2_30">
<rect width="40" height="40" fill="white"/>
</clipPath>
</defs>
</svg>
