<svg xmlns="http://www.w3.org/2000/svg" width="60" height="60" fill="none" xmlns:v="https://vecta.io/nano"><path d="M50.555 6.528v46.945a5.64 5.64 0 0 1-5.636 5.636H11.162a5.64 5.64 0 0 1-5.637-5.636V6.528A5.64 5.64 0 0 1 11.162.891h33.757a5.64 5.64 0 0 1 5.636 5.636z" fill="#48a5c2"/><path d="M50.556 6.528v46.945a5.64 5.64 0 0 1-5.636 5.636H14.549a5.64 5.64 0 0 1-5.636-5.636V6.528A5.64 5.64 0 0 1 14.549.891h30.371a5.64 5.64 0 0 1 5.636 5.636z" fill="#8bd3f0"/><path d="M12.06 10.515c0 .754-.306 1.438-.801 1.932a2.72 2.72 0 0 1-1.932.801H3.623c-1.509 0-2.733-1.224-2.733-2.733a2.72 2.72 0 0 1 .801-1.932 2.72 2.72 0 0 1 1.932-.801h5.704c1.509 0 2.732 1.224 2.732 2.733zm0 9.743c0 .755-.306 1.438-.801 1.932a2.72 2.72 0 0 1-.886.594c-.332.137-.687.208-1.046.207H3.623c-1.509 0-2.733-1.224-2.733-2.733a2.72 2.72 0 0 1 .801-1.932 2.72 2.72 0 0 1 1.932-.801h5.704c1.509 0 2.732 1.224 2.732 2.733zm0 9.743c0 .755-.306 1.438-.801 1.932a2.72 2.72 0 0 1-.886.594c-.332.137-.687.208-1.046.207H3.623C2.114 32.733.891 31.509.891 30a2.72 2.72 0 0 1 .801-1.932 2.72 2.72 0 0 1 1.932-.801h5.704c1.509 0 2.732 1.224 2.732 2.733zm0 9.743c0 .754-.306 1.438-.801 1.932a2.72 2.72 0 0 1-1.932.801H3.623c-1.509 0-2.733-1.224-2.733-2.733a2.72 2.72 0 0 1 .801-1.932 2.72 2.72 0 0 1 1.932-.801h5.704c1.509 0 2.732 1.224 2.732 2.733h0zm0 9.743c0 .359-.07.714-.208 1.046s-.339.633-.593.886a2.72 2.72 0 0 1-1.932.801H3.623c-1.509 0-2.733-1.224-2.733-2.733a2.72 2.72 0 0 1 .801-1.932 2.72 2.72 0 0 1 1.932-.801h5.704c1.509 0 2.732 1.224 2.732 2.733z" fill="#d6d3c4"/><path d="M12.061 10.515a2.72 2.72 0 0 1-.801 1.932 2.72 2.72 0 0 1-1.932.801H6.951c-1.509 0-2.733-1.224-2.733-2.733a2.72 2.72 0 0 1 .801-1.932 2.72 2.72 0 0 1 1.932-.801h2.378c1.509 0 2.732 1.224 2.732 2.733zm0 9.743c0 .755-.306 1.438-.801 1.932a2.72 2.72 0 0 1-.886.594c-.332.137-.687.208-1.046.207H6.951c-1.509 0-2.733-1.224-2.733-2.733-.001-.359.07-.715.207-1.046s.339-.633.594-.886a2.72 2.72 0 0 1 1.932-.801h2.378c1.509 0 2.732 1.224 2.732 2.733zm0 9.743a2.72 2.72 0 0 1-1.686 2.526c-.332.137-.687.208-1.046.207H6.951c-1.509 0-2.733-1.224-2.733-2.733a2.72 2.72 0 0 1 .801-1.932 2.72 2.72 0 0 1 1.932-.801h2.378c1.509 0 2.732 1.224 2.732 2.733zm0 9.743c0 .754-.306 1.438-.801 1.932a2.72 2.72 0 0 1-1.932.801H6.951c-1.509 0-2.733-1.224-2.733-2.733a2.72 2.72 0 0 1 .801-1.932 2.72 2.72 0 0 1 1.932-.801h2.378c1.509 0 2.732 1.224 2.732 2.733h0zm0 9.743c0 .359-.07.714-.208 1.046s-.339.633-.593.886a2.72 2.72 0 0 1-1.932.801H6.951c-1.509 0-2.733-1.224-2.733-2.733a2.72 2.72 0 0 1 .801-1.932 2.72 2.72 0 0 1 1.932-.801h2.378c1.509 0 2.732 1.224 2.732 2.733z" fill="#fbf2dc"/><path d="M44.919 14.381l-5.524-3.832-5.525 3.832V1.015h11.049v13.366z" fill="#ff7265"/><path d="M44.464 40.369l-1.74 1.74a9.73 9.73 0 0 1-4.201 2.481c-3.303.949-7.008.122-9.61-2.481l-11.04-11.04a9.77 9.77 0 0 1 0-13.811l1.74-1.74a1.67 1.67 0 0 1 2.36 0l4.544 4.543a1.67 1.67 0 0 1 0 2.359l-1.74 1.741-.526.525c-1.172 1.172-1.172 3.074 0 4.247l6.799 6.798c1.172 1.172 3.074 1.172 4.247 0l.526-.525 1.74-1.741a1.67 1.67 0 0 1 2.36 0l4.543 4.544a1.67 1.67 0 0 1 0 2.359z" fill="#ffcf70"/><path d="M38.524 44.59c-3.303.948-7.008.122-9.61-2.481l-11.04-11.04a9.77 9.77 0 0 1 0-13.811l1.461-1.461.704 3.626c-1.714 1.714-3.572 7.334.66 11.567l9.99 9.989c.922.922 4.463 3.855 7.836 3.611z" fill="#ee9e04"/><path d="M26.516 22.421l-1.74 1.74-4.738-4.738-2.165-2.166 1.74-1.74a1.67 1.67 0 0 1 2.36 0l2.165 2.165 2.384 2.384a1.67 1.67 0 0 1-.006 2.354h0z" fill="#d6d3c4"/><path d="M26.516 22.421l-1.74 1.741-4.738-4.738 1.741-1.741a1.67 1.67 0 0 1 2.359 0l2.384 2.384a1.67 1.67 0 0 1-.006 2.354h0z" fill="#fbf2dc"/><path d="M44.464 40.369l-1.74 1.74-6.903-6.903 1.74-1.741a1.67 1.67 0 0 1 2.36 0l4.543 4.544a1.67 1.67 0 0 1 0 2.359z" fill="#d6d3c4"/><path d="M44.465 40.369l-1.74 1.74-4.738-4.738 1.74-1.74a1.67 1.67 0 0 1 2.36 0l2.384 2.384a1.67 1.67 0 0 1-.005 2.354z" fill="#fbf2dc"/><path d="M50.555 17.232a.89.89 0 0 0 .891-.891V6.528C51.447 2.928 48.518 0 44.919 0H11.162a6.54 6.54 0 0 0-6.528 6.528v.364h-1.01A3.63 3.63 0 0 0 0 10.515a3.63 3.63 0 0 0 3.624 3.624h1.011v2.495H3.624A3.63 3.63 0 0 0 0 20.257a3.63 3.63 0 0 0 3.624 3.624h1.011v2.495H3.624A3.63 3.63 0 0 0 0 30a3.63 3.63 0 0 0 3.624 3.624h1.011v2.495H3.624A3.63 3.63 0 0 0 0 39.743a3.63 3.63 0 0 0 3.624 3.624h1.011v2.495H3.624A3.63 3.63 0 0 0 0 49.485a3.63 3.63 0 0 0 3.624 3.624h1.011v.363A6.54 6.54 0 0 0 11.163 60H44.92a6.54 6.54 0 0 0 6.528-6.528V19.906a.891.891 0 1 0-1.782 0v33.567c0 2.617-2.129 4.746-4.745 4.746H11.162a4.75 4.75 0 0 1-4.745-4.746v-.363h2.911a3.63 3.63 0 0 0 3.624-3.624 3.63 3.63 0 0 0-3.624-3.623H6.417v-2.495h2.911a3.63 3.63 0 0 0 3.624-3.624 3.63 3.63 0 0 0-3.624-3.624H6.417v-2.495h2.911A3.63 3.63 0 0 0 12.952 30a3.63 3.63 0 0 0-3.624-3.624H6.417v-2.495h2.911a3.63 3.63 0 0 0 3.624-3.624 3.63 3.63 0 0 0-3.624-3.624H6.417v-2.495h2.911a3.63 3.63 0 0 0 3.624-3.624A3.63 3.63 0 0 0 9.328 6.89H6.417v-.364c0-2.617 2.129-4.746 4.745-4.746h21.817v12.599a.89.89 0 0 0 1.399.732l5.017-3.479 5.017 3.479a.89.89 0 0 0 1.399-.732V1.867c2.192.418 3.854 2.348 3.854 4.661v9.813a.89.89 0 0 0 .891.891zM11.169 49.485c0 1.016-.826 1.842-1.842 1.842H3.624c-1.015 0-1.842-.826-1.842-1.842s.826-1.841 1.842-1.841h5.704c1.015 0 1.842.826 1.842 1.841h0zm0-9.742c0 1.016-.826 1.842-1.842 1.842H3.624c-1.015 0-1.842-.826-1.842-1.842s.826-1.842 1.842-1.842h5.704c1.015 0 1.842.826 1.842 1.842h0zm0-9.743c0 1.016-.826 1.842-1.842 1.842H3.624c-1.015 0-1.842-.826-1.842-1.842s.826-1.842 1.842-1.842h5.704c1.015 0 1.842.826 1.842 1.842h0zm0-9.743c0 1.016-.826 1.842-1.842 1.842H3.624c-1.015 0-1.842-.826-1.842-1.842s.826-1.842 1.842-1.842h5.704c1.015 0 1.842.826 1.842 1.842h0zm0-9.742c0 1.016-.826 1.842-1.842 1.842H3.624c-1.015 0-1.842-.826-1.842-1.841s.826-1.842 1.842-1.842h5.704c1.015 0 1.842.826 1.842 1.842h0zm32.858 2.164l-4.125-2.862a.89.89 0 0 0-1.016 0l-4.125 2.861V1.907h9.267v10.772h0zm-14.484 28.8l-6.426-6.426a.891.891 0 1 0-1.26 1.26l6.426 6.426a10.66 10.66 0 0 0 7.542 3.121 10.67 10.67 0 0 0 2.945-.414 10.68 10.68 0 0 0 4.585-2.707l1.74-1.74c.998-.997.998-2.622 0-3.62l-4.543-4.544c-.998-.998-2.621-.998-3.62 0L34.666 35.1a2.09 2.09 0 0 1-.685.459 2.1 2.1 0 0 1-2.302-.459l-6.798-6.798a2.1 2.1 0 0 1 0-2.986l2.266-2.266c.998-.998.998-2.622 0-3.62l-4.544-4.543c-.998-.998-2.622-.998-3.62 0l-1.74 1.74c-2.013 2.013-3.121 4.689-3.121 7.535s1.108 5.523 3.121 7.536l1.946 1.946a.891.891 0 1 0 1.26-1.26l-1.946-1.946c-1.676-1.676-2.6-3.905-2.6-6.275a8.81 8.81 0 0 1 2-5.614l5.614 5.614c-.67.722-1.038 1.656-1.038 2.646a3.87 3.87 0 0 0 1.14 2.753l6.799 6.799a3.87 3.87 0 0 0 2.753 1.14c.991 0 1.925-.368 2.646-1.038l5.614 5.613a8.87 8.87 0 0 1-3.154 1.656c-3.106.892-6.452.028-8.734-2.254zm-8.201-25.331l4.544 4.543a.78.78 0 0 1 0 1.099l-1.11 1.11-5.643-5.643 1.11-1.11a.78.78 0 0 1 1.1 0zM39.29 34.096l4.543 4.544a.78.78 0 0 1 0 1.099l-1.11 1.11-5.643-5.643 1.111-1.111a.78.78 0 0 1 1.099 0h0z" fill="#000"/></svg>