<svg xmlns="http://www.w3.org/2000/svg" width="60" height="60" fill="none" xmlns:v="https://vecta.io/nano"><style><![CDATA[.B{fill:#ff7265}.C{fill:#bee7f4}.D{fill:#a6e7f0}.E{fill:#84716b}.F{fill:#a98f87}.G{fill:#8bd3f0}]]></style><g clip-path="url(#B)"><mask id="A" maskUnits="userSpaceOnUse" x="0" y="0" width="60" height="60"><path d="M0 0h60v60H0V0z" fill="#fff"/></mask><g mask="url(#A)"><path d="M29.993 18.697s.468 16.225-19.289 22.592l-2.871.195V14.117H30l-.007 4.579z" class="E"/><path d="M30.007 18.697s-.155 16.42 19.602 22.787h2.559V14.117H30l.007 4.579z" class="E"/><path d="M52.135 41.484s-18.184-3.281-18.184-24.492h-7.902c0 21.211-18.184 24.492-18.184 24.492C21.037 41.078 27.169 32.989 30 26.216c2.831 6.772 8.963 14.862 22.135 15.267z" class="F"/><path d="M33.178 6.638c4.622 0 .715-6.758-1.595-2.76 2.311-3.998-5.502-3.998-3.191 0-2.311-3.998-6.217 2.76-1.596 2.76h6.382z" class="E"/><path d="M43.869 6.638c4.622 0 .715-6.758-1.596-2.76 2.311-3.998-5.502-3.998-3.191 0-2.311-3.998-6.217 2.76-1.595 2.76h6.382z" class="F"/><use href="#C" class="E"/><path d="M22.485 6.638c4.622 0 .715-6.758-1.596-2.76 2.311-3.998-5.502-3.998-3.191 0-2.311-3.998-6.217 2.76-1.596 2.76h6.383z" class="F"/><path d="M11.819 6.638c4.622 0 .715-6.758-1.596-2.76 2.311-3.998-5.502-3.998-3.191 0C4.721-.12.815 6.638 5.437 6.638h6.383z" class="E"/><path d="M9.204 33.213h3.847a2.06 2.06 0 0 0 2.06-2.058c0-2.708 2.198-4.903 4.909-4.903 0-2.729 2.215-4.942 4.947-4.942 2.082-.071 3.662-1.142 5.034-2.614 1.466 1.465 2.907 2.512 5.034 2.614 2.732 0 4.947 2.212 4.947 4.942 2.711 0 4.908 2.195 4.908 4.903a2.06 2.06 0 0 0 2.06 2.058h3.847V14.117H9.204v19.096z" fill="#fff"/><path d="M14.06 59.121H1.788v-3.203c0-.777.63-1.406 1.406-1.406h9.459c.777 0 1.406.63 1.406 1.406v3.203zm44.152 0H45.94v-3.203c0-.777.63-1.406 1.406-1.406h9.459c.777 0 1.406.63 1.406 1.406v3.203z" class="B"/><path d="M56.806 54.512H53.29c.777 0 1.406.63 1.406 1.406v3.203h3.516v-3.203c0-.777-.63-1.406-1.406-1.406z" class="B"/><path d="M10.956 33.213H4.892V14.117h6.065v19.096z" class="C"/><path d="M7.44 33.213h3.516V14.117H7.44v19.096z" class="D"/><path d="M9.887 54.512H5.96V40.128h3.927v14.384z" class="C"/><path d="M7.538 54.512h2.344V40.128H7.538v14.384z" class="D"/><path d="M9.984 40.128H5.862L4.712 38.09v-4.876h6.423v4.877l-1.151 2.038z" class="C"/><path d="M7.614 33.214v6.914h2.365l1.151-2.038v-4.876H7.614z" class="D"/><path d="M9.923 40.128H5.925c-.75 0-1.358.607-1.358 1.356s.608 1.356 1.358 1.356h3.998c.75 0 1.358-.607 1.358-1.356s-.608-1.356-1.358-1.356zm1.317-6.914H4.608c-.75 0-1.358.607-1.358 1.356s.608 1.356 1.358 1.356h6.632c.75 0 1.358-.607 1.358-1.356s-.608-1.356-1.358-1.356zm0 18.585H4.608c-.75 0-1.358.607-1.358 1.356v1.356h9.348v-1.356c0-.749-.608-1.356-1.358-1.356z" class="B"/><path d="M55.109 33.213h-6.065V14.117h6.065v19.096z" class="C"/><path d="M51.594 33.213h3.516V14.117h-3.516v19.096z" class="D"/><path d="M54.04 54.512h-3.927V40.128h3.927v14.384z" class="C"/><path d="M51.696 54.512h2.344V40.128h-2.344v14.384z" class="D"/><path d="M54.138 40.128h-4.122l-1.151-2.038v-4.876h6.423v4.877l-1.15 2.038z" class="C"/><path d="M51.773 33.214v6.914h2.365l1.151-2.038v-4.876h-3.516z" class="D"/><path d="M54.075 40.128h-3.998c-.75 0-1.358.607-1.358 1.356s.608 1.356 1.358 1.356h3.998c.75 0 1.358-.607 1.358-1.356s-.608-1.356-1.358-1.356z" class="B"/><path d="M54.075 40.128h-2.344c.75 0 1.358.607 1.358 1.356s-.608 1.356-1.358 1.356h2.344c.75 0 1.358-.607 1.358-1.356s-.608-1.356-1.358-1.356zm-44.152 0H7.579c.75 0 1.358.607 1.358 1.356s-.608 1.356-1.358 1.356h2.344c.75 0 1.358-.607 1.358-1.356s-.608-1.356-1.358-1.356zm45.47-6.914H48.76c-.75 0-1.358.607-1.358 1.356s.608 1.356 1.358 1.356h6.632c.75 0 1.358-.607 1.358-1.356s-.608-1.356-1.358-1.356z" class="B"/><path d="M55.393 33.214h-3.516c.75 0 1.358.607 1.358 1.356s-.608 1.356-1.358 1.356h3.516c.75 0 1.358-.607 1.358-1.356s-.608-1.356-1.358-1.356zm.001 18.585h-6.635c-.749 0-1.356.607-1.356 1.356v1.356h7.992c.749 0 1.356-.607 1.356-1.356s-.607-1.356-1.356-1.356z" class="B"/><path d="M55.393 51.799h-3.516c.75 0 1.358.607 1.358 1.356l.055 1.356h3.516l-.055-1.356c0-.749-.608-1.356-1.358-1.356z" class="G"/><path d="M12.648 54.512H9.132c.777 0 1.406.63 1.406 1.406v3.203h3.516v-3.203c0-.777-.63-1.406-1.406-1.406zm-1.414-21.298H7.719c.75 0 1.358.607 1.358 1.356s-.608 1.356-1.358 1.356h3.516c.75 0 1.358-.607 1.358-1.356s-.608-1.356-1.358-1.356z" class="B"/><path d="M11.234 51.799H7.719c.75 0 1.358.607 1.358 1.356v1.356h3.521l-.006-1.356c0-.749-.608-1.356-1.358-1.356z" class="G"/><path d="M2.591 6.326v4.804l2.301 2.987h50.214l2.301-2.987V6.326H2.591z" class="B"/><path d="M53.891 6.326v4.804l-2.301 2.987h3.516l2.301-2.987V6.326h-3.516z" class="G"/><use href="#D" fill="#000"/><path d="M14.288 18.436c1.131 0 1.133-1.758 0-1.758s-1.133 1.758 0 1.758zm2.943 0c1.131 0 1.133-1.758 0-1.758s-1.133 1.758 0 1.758zm28.477 3.092c1.131 0 1.133-1.758 0-1.758s-1.133 1.758 0 1.758zm0-3.092c1.131 0 1.133-1.758 0-1.758s-1.133 1.758 0 1.758zm-2.942 0c1.131 0 1.133-1.758 0-1.758s-1.133 1.758 0 1.758z" fill="#000"/></g></g><defs><clipPath id="B"><path fill="#fff" d="M0 0h60v60H0z"/></clipPath><path id="C" d="M54.56 6.638c4.622 0 .715-6.758-1.596-2.76 2.311-3.998-5.502-3.998-3.191 0-2.311-3.998-6.217 2.76-1.596 2.76h6.383z"/><path id="D" d="M14.288 21.528c1.131 0 1.133-1.758 0-1.758s-1.133 1.758 0 1.758z"/></defs></svg>