<svg xmlns="http://www.w3.org/2000/svg" width="60" height="60" fill="none" xmlns:v="https://vecta.io/nano"><path d="M1.878 35.16s-.938 5.658-.473 13.864l.57 5.629 7.311-4.049-1.173-16.727-6.235 1.283z" fill="#8486af"/><path d="M1.736 54.867l7.509-4.37-.855-12.194-.247 1.956c-.4 2.649-1.299 5.425-3.44 7.036-.714.537-1.533.917-2.358 1.26-.297.123-.644.355-.945.47 0-.001.086 3.858.336 5.841z" fill="#646193"/><path d="M8.255 34.89l1.978-.422 1.649 13.996-2.643 1.192s-1.607-9.063-.985-14.766z" fill="#fff"/><path d="M9.24 49.657l2.643-1.192-.621-5.27-1.282.281c-.504.128-1.021.202-1.541.22l.801 5.961z" fill="#c4c4d6"/><g fill="#ffcac0"><path d="M10.233 34.469l1.659 14.187s2.641-.662 5.896.314 10.44 3.003 13.756 2.634l1.781-1.781.491-1.842s2.395-.553 3.562-1.842c0 0 2.091.43 3.287-1.228 0 0 1.38 1.167 3.223-.737s3.439-3.346 3.439-3.346l4.36 2.232 6.633 4.553s1.228-7.923-.921-12.222l-11.055-4.299s-4.729-3.255-13.45 0c0 0 2.308-2.027 1.799-4.176l-1.246-1.042s-2.088 2.086-4.79 2.27-6.211-.307-8.541 1.72-8.533 4.606-9.884 4.606z"/><path d="M10.233 34.469l1.659 14.187s2.641-.662 5.896.314 10.44 3.003 13.756 2.634l1.781-1.781.491-1.842s2.395-.553 3.562-1.842c0 0 2.091.43 3.287-1.228 0 0 1.38 1.167 3.223-.737s3.439-3.346 3.439-3.346l4.36 2.232 6.633 4.553.346-5.481c-.201-4.035-.847-6.636-.847-6.636L46.346 31.09s-4.729-3.255-13.45 0c0 0 2.308-2.027 1.799-4.176l-1.246-1.042s-2.088 2.086-4.79 2.27-6.211-.307-8.541 1.72-8.533 4.607-9.884 4.607z"/></g><g fill="#f29797"><path d="M58.722 47.67l-.054-5.54c-.077.13-.167.251-.268.362-.436.471-1.053.636-1.679.575-.672-.065-1.289-.392-1.858-.734l-1.755-1.178-3.387-2.453c-1.088-.71-2.344-1.398-3.688-1.293-.785.061-1.524.42-2.317.415a1.52 1.52 0 0 1-.96-.297c-.125-.094-.225-.216-.291-.357s-.098-.296-.09-.452c-.001-.035-.012-.069-.032-.099s-.048-.052-.08-.065-.068-.017-.103-.011-.067.023-.092.047l-.146.178c-.096.119-.104.293-.133.44l-.181 1.194a14.73 14.73 0 0 0-.068 2.433c.007.12.154.245.271.156.899-.702 1.913-1.244 2.996-1.602.523-.168 1.109-.285 1.638-.075a1.13 1.13 0 0 1 .756 1.117c-.009.19-.029.379-.06.566l.188-.172 4.36 2.232 7.033 4.612z"/><path d="M43.954 41.649c-.517-.361-.886-1.217-.364-1.725.104-.101.032-.324-.127-.307-1.339.136-1.923 1.436-2.706 2.341-.373.431-.855.84-1.456.823-.473-.014-1.036-.285-1.063-.815-.001-.043-.018-.084-.046-.116s-.068-.052-.11-.058a.18.18 0 0 0-.122.027c-.036.023-.063.058-.075.099-.195.701-.605 1.323-1.174 1.778s-1.265.719-1.992.756c-.047.001-.093.02-.126.054s-.053.079-.054.126c-.042.857-.084 1.767-.487 2.544-.325.628-.937 1.114-1.66 1.165-.6.042-1.096-.264-1.224-.858-.115-.535-.029-1.119.078-1.648.068-.348.158-.691.27-1.027.013-.034.014-.072.003-.107a5.53 5.53 0 0 1 .86-1.248c.475-.503.984-.974 1.522-1.409.027-.028.044-.065.049-.104s-.004-.078-.023-.112-.05-.061-.086-.076a.18.18 0 0 0-.114-.009 7.31 7.31 0 0 1-.919.239c-.286.052-.67.093-.863-.177-.172-.242-.135-.593-.111-.872.014-.17-.2-.217-.307-.127-1.584 1.324-3.419 2.834-5.618 2.705-.264.002-.522-.077-.739-.227-.165-.134-.288-.384-.197-.593a13.43 13.43 0 0 0 1.32-1.417l.001-.001.028-.036c.134-.176-.138-.334-.283-.218-.792.655-1.618 1.269-2.475 1.838a11.9 11.9 0 0 1-1.349.753c-.468.22-.972.425-1.495.443-.268.024-.538-.033-.773-.165-.192-.124-.323-.377-.202-.594.023-.041.029-.09.017-.136s-.041-.085-.082-.11l-.105-.07c-.027-.017-.059-.025-.091-.025s-.063.009-.091.025l-1.395.965c-.35.242-.843.492-.971.933a.76.76 0 0 0-.026.268c-.619-.16-1.211-.409-1.759-.738-1.51-.939-2.075-2.736-2.574-4.344l-1.489-5.765a4.05 4.05 0 0 1-.943.174l1.658 14.187s2.641-.662 5.896.314 10.44 3.003 13.756 2.634l1.781-1.781.491-1.842s2.395-.553 3.562-1.843c0 0 2.091.43 3.287-1.228 0 0 1.38 1.167 3.223-.737l2.622-2.587c-.803.287-1.82.578-2.557.064z"/><path d="M26.106 36.95c-1.367 1.106-2.758 2.223-4.357 2.981a9.61 9.61 0 0 1-1.396.534c-.433.137-.886.196-1.34.173a1.82 1.82 0 0 1-.605-.148c-.165-.075-1.831.588-2.083.676-1.511.531.381 4.654 3.737 1.756l1.411-1.339 2.404-2.072 1.339-1.155c.417-.347.801-.733 1.145-1.152a.18.18 0 0 0-.004-.251.18.18 0 0 0-.251-.003zm8.025-7.371l-.475.302c-.561.323-1.145.604-1.746.842-1.221.488-2.448.953-3.754 1.102-.244.028-.637.048-1.032.063-.837.03-1.638.347-2.27.896-.772.674-1.825 1.555-2.446 1.908-.919.523-3.122 1.159-4.053 1.265-.086.01-.167.047-.232.105a.42.42 0 0 0-.105.473.42.42 0 0 0 .166.193c.671.412 1.571.864 2.337.911 1.399.084 1.807-.473 2.118-.73l2.012-1.596c1.347-.996 2.8-1.886 4.407-2.393.84-.265 1.71-.436 2.517-.8.401-.18 1.541-.817 2.558-2.542z"/></g><path d="M29.104 38.956s-.039-1.333 1.565-1.449 2.299 2.511 2.299 2.511l-1.449.927s-.715-2.589-2.415-1.99z" fill="#ffc152"/><path d="M30.857 38.714c.223 0 .444-.051.644-.149a1.47 1.47 0 0 0 .514-.415c-.346-.394-.792-.683-1.347-.643-.532.038-.882.211-1.114.424.126.236.313.434.543.572s.492.211.76.211z" fill="#fff3e3"/><path d="M30.94 39.714a4.63 4.63 0 0 1 .579 1.232l1.449-.927c-.121-.42-.288-.826-.498-1.21a3.59 3.59 0 0 1-1.53.905z" fill="#ef7748"/><path d="M58.592 47.359c-1.863-1.452-3.896-2.695-5.838-4.039-1.574-1.023-3.092-2.208-4.899-2.792.396-1.443-1.233-1.999-2.375-1.843-1.223.127-2.52.722-3.514 1.522.081-.927.235-1.847.461-2.75.108-.452.299-.935.263-1.408-.058-.774-.75-1.002-1.428-.932-1.252.128-2.491.926-2.895 2.126-2.072.282-3.196 2.403-3.499 4.296-1.487-.19-2.846 1.103-3.448 2.349a6.72 6.72 0 0 1-2.759 1.926c-.677.134-1.375.109-2.04-.073 1.351-1.432 2.87-2.684 4.418-3.892 1.21-.921 2.534-1.643 3.776-2.509.3-.209.127-.788-.269-.638a9 9 0 0 0-1.482.746c-.192-.725-.634-1.36-1.249-1.79.52-.336 1.074-.554 1.601-.872.273-.158.082-.539-.205-.486-.82.153-1.577.532-2.303.936-1.055-.258-2.246.514-2.324 1.615a48.57 48.57 0 0 0-6.591 5.735c-.357.383-.79.689-1.271.898-.102.045-.209.081-.317.108-.944.211-2.032.026-2.767-.649 4.864-3.024 8.339-8.002 13.672-10.284.324-.139.093-.681-.24-.571-2.782.919-5.038 2.809-7.206 4.716l-3.307 2.934c-.434.284-.929.463-1.444.523-.814.121-1.68.074-2.201-.557 2.818-2.011 5.655-4.075 8.25-6.386.587-.358 1.082-.841 1.682-1.175.558-.321 1.175-.544 1.751-.83 1.48-.314 3.017-.807 4.24-1.682 2.301-.686 4.801-1.44 7.219-1.462 1.989-.021 3.941.637 5.815 1.239a104.92 104.92 0 0 1 11.294 4.419c.509.231.954-.522.441-.755a117.53 117.53 0 0 0-9.052-3.67c-2.991-1.066-6.291-2.386-9.519-2.039-1.664.195-3.308.535-4.913 1.016a5.76 5.76 0 0 0 1.088-2.971c.069-.978-.839-1.585-1.656-1.9-.083-.024-.171-.025-.254-.003s-.159.066-.219.128c-1.758 1.65-4.38 2.168-6.723 2.299-1.352.066-2.704-.168-4.029.185-2.071.57-3.539 2.269-5.347 3.34-2.078 1.302-8.088 2.811-8.593 3.001-.036-.413.002-1.014-.565-.945-1.896.298-3.859.662-5.672 1.305-.472.169-.289.868.209.757 1.726-.387 3.42-.846 5.161-1.161.201 5.212.76 10.408 1.296 15.594a.8.8 0 0 1-.3.442c-1.677.947-3.336 1.824-4.978 2.818-.571.343-1.343.677-1.763 1.202-.198.248-.02.624.318.545.662-.154 1.286-.678 1.869-1.022l1.899-1.091 1.921-1.052c.541-.289 1.24-.532 1.715-.941.417-.118.182-.694.18-1.014l1.557-.619c3.624-.779 6.724-.12 10.136 1.13 3.299 1.005 6.739 1.666 10.171 1.459.561-.055 1.157-.729 1.468-1.081.305-.346.853-.92.879-1.452l.232-.864c1.09-.694 2.534-.964 3.383-1.982 1.132.349 2.406-.138 3.125-1.047.846-.125 1.618.219 2.452-.171.786-.367 1.287-1.047 1.82-1.7a14.04 14.04 0 0 1 2.428-2.316c.821.28 1.621.594 2.348 1.077 1.881 1.177 3.704 2.448 5.539 3.695.954.657 1.881 1.394 2.875 1.987.393.233.873-.345.503-.653zM30.163 38.03a1.03 1.03 0 0 1 .558.008 2.41 2.41 0 0 1 1.611 1.886l-.629.444c-.293-.977-1.211-1.596-2.235-1.728a1.19 1.19 0 0 1 .695-.611zm-4.02 3.854c.931-.831 1.906-1.611 2.921-2.337.894-.255 1.853.453 1.91 1.358-2.088 1.489-3.897 3.31-5.793 5.02-1.12 1.017-2.282 1.128-3.625.455 1.407-1.606 2.992-3.09 4.587-4.496h0zm-17.213.335l-.47-6.892a8.86 8.86 0 0 0 1.223-.278 329.38 329.38 0 0 0 1.598 13.238l-1.705.683-.646-6.75zm23.991 7.341c-.375.567-.838 1.118-1.432 1.463a30.91 30.91 0 0 1-10.528-1.691c-2.869-.941-5.8-1.588-8.779-1.093a343.17 343.17 0 0 1-1.605-13.43c5.455-1.399 7.06-2.507 10.07-4.853 1.588-1.35 3.592-1.096 5.52-1.092 2.583-.105 5.31-.647 7.365-2.31.732.35.842.721.606 1.484-.587 3.025-3.868 3.98-6.549 4.526-.406.024-.742.196-1.107.477-1.152.941-2.347 1.87-3.752 2.408-.681.267-1.44.321-2.1.609-.322.141-.219.66.096.735.439.105.935.029 1.4-.092l-6.029 4.509c-.098.061-.169.158-.198.269s-.015.23.04.332c.562 1.123 1.717 1.431 2.874 1.33-.634.48-1.294.924-1.977 1.332-.092.056-.159.146-.186.25s-.013.215.039.309c.781 1.249 2.305 1.567 3.74 1.386-.036.091-.036.193-.001.284s.103.167.191.211c2.021.963 3.687 1.019 5.377-.61 1.548.903 3.456.42 4.82-.644-.173.895-.407 1.763-.922 2.526-.029.054-.04.115-.031.176s.037.117.08.16.099.071.16.08.122-.002.176-.032c2.025-1.044.54-5.513 4.263-6.277.047.035.085.08.111.132s.04.11.04.168c-.213 1.023-.522 2.017-.736 3.04-.35 1.303-.529 2.673-1.037 3.925zm2.676-2.703c-.369.173-.832.341-1.224.581l.559-2.377c.177-.74.378-1.482.514-2.23.058-.248.056-.506-.003-.753.405-1.318 1.075-3.036 2.349-3.815.052-.032.113-.049.174-.048s.121.019.173.052.093.081.118.137.035.118.027.179l-.444 3.345c-.293 1.994-.038 4.041-2.243 4.93v.001zm2.902-1.148c-.17.012-.342.009-.511-.008.442-1.028.465-2.219.609-3.315l.495-4.01a1.33 1.33 0 0 0-.007-.585c.164-1.161 1.452-1.81 2.315-1.854.449-.022.465.242.373.626-.097.409-.212.813-.3 1.224a24.71 24.71 0 0 0-.373 2.262c-.214 2.001-.056 5.201-2.601 5.659h0zm8.127-4.963c-1.056.823-1.907 1.768-2.754 2.799-.786.999-1.499 1.313-2.752 1.147.545-1.044.676-2.26.768-3.468 1.087-.596 2.066-1.382 3.312-1.642.539-.098 1.682-.204 1.865.472.061.336-.209.512-.439.692h0z" fill="#4c373c"/><path d="M39.761 8.21c-.897-1.487-3.24-2.658-3.24-2.658-2.316-.403-4.883.64-6.26 2.862-.03.043-.07.078-.116.102s-.098.037-.15.037-.104-.013-.15-.037-.086-.059-.116-.102c-1.25-2.011-3.699-3.281-6.196-2.889-3.459.565-5.249 4.234-4.46 7.13.349 1.808 2.092 3.682 4.092 5.28l6.45 3.256c.137.065.288.099.44.099s.302-.034.44-.099c3.956-1.985 13.06-6.506 9.267-12.981z" fill="#ff668b"/><path d="M36.521 5.552c1.314 1.028 2.188 2.517 2.445 4.166.652 4.349-5.001 7.59-6.823 8.78-3.255 2.125-6.446.557-8.978-.562 2.438 1.949 5.256 3.487 6.391 3.995.137.065.287.099.44.099s.302-.034.44-.099c3.956-1.985 13.613-7.324 9.819-13.799-.396-.676-.936-1.257-1.581-1.703s-1.38-.745-2.152-.876z" fill="#c6305f"/><path d="M25.199 7.74c-.644-.232-1.409-.079-1.973.278s-.953.894-1.237 1.454c-.493.973-.785 2.786.156 3.101.151.055.313.073.473.053s.312-.078.445-.168c.225-.173.336-.43.466-.667a4.18 4.18 0 0 1 1.249-1.386c.492-.349 1.102-.65 1.295-1.18.213-.584-.229-1.253-.873-1.485z" fill="#ffeef3"/><path d="M29.994 22.509a1.49 1.49 0 0 1-.64-.143c-1.296-.581-4.083-2.135-6.478-4.047l-.011-.008c-2.494-1.993-3.927-3.859-4.26-5.547-.443-1.647-.127-3.532.847-5.046.44-.703 1.025-1.304 1.715-1.764s1.47-.767 2.289-.902c2.505-.393 5.098.763 6.54 2.89 1.457-2.157 4.079-3.303 6.608-2.863l.022.004c.836.147 1.63.473 2.327.957a5.87 5.87 0 0 1 1.713 1.844l.003.005c.946 1.614 1.173 3.283.676 4.962-.956 3.228-4.553 6.427-10.694 9.509a1.51 1.51 0 0 1-.657.149zm-6.538-4.956l.01.008c2.314 1.849 5.084 3.393 6.287 3.931l.012.006c.072.034.151.052.231.052s.159-.018.231-.052c5.887-2.955 9.32-5.957 10.197-8.92.424-1.433.234-2.807-.582-4.201a4.92 4.92 0 0 0-3.402-2.351.36.36 0 0 1-.02-.004c-2.225-.378-4.534.683-5.75 2.646a.8.8 0 0 1-.291.269c-.118.064-.25.097-.384.097s-.266-.034-.384-.098-.218-.157-.29-.269C28.115 6.724 25.819 5.653 23.608 6c-.685.114-1.337.373-1.915.759s-1.066.89-1.434 1.479c-.832 1.295-1.103 2.899-.723 4.292.003.012.006.023.008.035.277 1.439 1.63 3.163 3.911 4.988h0z" fill="#4c373c"/></svg>