<svg width="60" height="60" viewBox="0 0 60 60" fill="none" xmlns="http://www.w3.org/2000/svg">
<path d="M1.87774 35.1599C1.87774 35.1599 0.94018 40.818 1.40446 49.0242C1.5061 50.8211 1.71982 52.6314 1.97494 54.6534L9.28582 50.6039L8.11246 33.8772L1.87774 35.1599Z" fill="#8486AF"/>
<path d="M1.73565 54.8672L9.24513 50.4976L8.38965 38.304C8.31669 38.9581 8.24073 39.612 8.14281 40.26C7.74249 42.909 6.84357 45.6852 4.70301 47.2962C3.98889 47.8335 3.17001 48.2134 2.34453 48.5562C2.04717 48.6795 1.70025 48.9111 1.39941 49.0258C1.39941 49.0246 1.48533 52.884 1.73565 54.8672Z" fill="#646193"/>
<path d="M8.25535 34.8903L10.2337 34.4688L11.883 48.465L9.24043 49.6568C9.24043 49.6568 7.63351 40.5939 8.25535 34.8903Z" fill="white"/>
<path d="M9.24021 49.6567L11.8831 48.4647L11.2621 43.1946L9.98049 43.4759C9.47614 43.604 8.95951 43.6776 8.43945 43.6956C8.77221 47.0195 9.24021 49.6567 9.24021 49.6567Z" fill="#C4C4D6"/>
<path d="M10.2334 34.4686L11.8922 48.6555C11.8922 48.6555 14.533 47.9934 17.788 48.9693C21.043 49.9453 28.2281 51.9718 31.5444 51.6034L33.3255 49.8224L33.8169 47.98C33.8169 47.98 36.2121 47.4273 37.379 46.1376C37.379 46.1376 39.4698 46.5674 40.666 44.9092C40.666 44.9092 42.046 46.0761 43.889 44.1723C45.7319 42.2685 47.3282 40.8261 47.3282 40.8261L51.6886 43.0581L58.3215 47.6114C58.3215 47.6114 59.5498 39.6889 57.4002 35.3898L46.3455 31.0908C46.3455 31.0908 41.6165 27.8358 32.8956 31.0908C32.8956 31.0908 35.2036 29.0641 34.6944 26.9148L33.4484 25.873C33.4484 25.873 31.3604 27.9588 28.658 28.1431C25.9556 28.3274 22.4469 27.836 20.1172 29.8627C17.7875 31.8894 11.5846 34.4686 10.2334 34.4686Z" fill="#FFCAC0"/>
<path d="M10.2334 34.4686L11.8922 48.6555C11.8922 48.6555 14.533 47.9934 17.788 48.9693C21.043 49.9453 28.2281 51.9718 31.5444 51.6034L33.3255 49.8224L33.8169 47.98C33.8169 47.98 36.2121 47.4273 37.379 46.1376C37.379 46.1376 39.4698 46.5674 40.666 44.9092C40.666 44.9092 42.046 46.0761 43.889 44.1723C45.7319 42.2685 47.3282 40.8261 47.3282 40.8261L51.6886 43.0581L58.3215 47.6114L58.6674 42.13C58.4667 38.0955 57.8208 35.494 57.8208 35.494L46.3455 31.09C46.3455 31.09 41.6165 27.835 32.8956 31.09C32.8956 31.09 35.2036 29.0634 34.6944 26.914L33.4484 25.8723C33.4484 25.8723 31.3604 27.958 28.658 28.1424C25.9556 28.3267 22.4469 27.8353 20.1172 29.862C17.7875 31.8886 11.5846 34.4686 10.2334 34.4686Z" fill="#FFCAC0"/>
<path d="M58.7217 47.6704C58.7217 47.6704 58.7116 45.0957 58.6675 42.1302C58.5907 42.2599 58.5008 42.3813 58.399 42.4925C57.9634 42.963 57.3463 43.1285 56.7197 43.0678C56.0477 43.0029 55.4305 42.676 54.8621 42.3334C54.2584 41.9694 53.6777 41.5685 53.1073 41.1549C51.9793 40.3368 50.8882 39.4652 49.7204 38.7024C48.6327 37.992 47.3768 37.3048 46.0328 37.4091C45.2474 37.47 44.5088 37.8291 43.7162 37.8245C43.3718 37.8375 43.0332 37.7329 42.7562 37.5279C42.6314 37.4344 42.5314 37.3118 42.465 37.1708C42.3985 37.0298 42.3675 36.8747 42.3747 36.719C42.3739 36.6837 42.3629 36.6495 42.343 36.6204C42.3231 36.5913 42.2952 36.5686 42.2626 36.5551C42.2301 36.5416 42.1943 36.5379 42.1596 36.5444C42.125 36.5508 42.093 36.5673 42.0675 36.5916C42.0188 36.6509 41.9693 36.7097 41.9213 36.7695C41.8253 36.8888 41.8172 37.0622 41.7887 37.2094C41.7123 37.6048 41.6519 38.003 41.6077 38.4038C41.5179 39.2113 41.4952 40.0249 41.5396 40.8363C41.5461 40.9563 41.6941 41.0816 41.8105 40.9923C42.7097 40.2901 43.7232 39.7483 44.8066 39.3908C45.3293 39.2228 45.9155 39.1056 46.4444 39.3153C46.6739 39.3952 46.8715 39.5471 47.0077 39.7483C47.1439 39.9496 47.2115 40.1895 47.2004 40.4322C47.1918 40.622 47.1718 40.8111 47.1404 40.9984C47.2028 40.9409 47.2654 40.8837 47.3282 40.8267L51.6886 43.0587L58.7217 47.6704Z" fill="#F29797"/>
<path d="M43.9539 41.6491C43.4365 41.2882 43.0684 40.432 43.5897 39.9239C43.6936 39.8226 43.6221 39.5999 43.4624 39.6166C42.1231 39.7525 41.5394 41.0526 40.7569 41.9575C40.384 42.3886 39.9022 42.7975 39.3007 42.7801C38.8277 42.7664 38.2649 42.4954 38.2373 41.9651C38.236 41.9223 38.2196 41.8813 38.191 41.8495C38.1623 41.8177 38.1233 41.7971 38.0809 41.7913C38.0385 41.7856 37.9954 41.795 37.9593 41.8181C37.9232 41.8411 37.8965 41.8762 37.8838 41.9171C37.6889 42.6182 37.2783 43.2402 36.7101 43.6949C36.142 44.1496 35.4451 44.4139 34.7183 44.4504C34.6709 44.4514 34.6257 44.4707 34.5922 44.5043C34.5587 44.5378 34.5394 44.583 34.5383 44.6304C34.4962 45.4877 34.4543 46.3969 34.0517 47.1744C33.7268 47.8025 33.1149 48.2886 32.3915 48.3395C31.7915 48.3816 31.2953 48.0755 31.1675 47.4815C31.0522 46.9464 31.1386 46.3627 31.2452 45.8335C31.3129 45.4857 31.4029 45.1426 31.5147 44.8063C31.5275 44.7721 31.5286 44.7345 31.5177 44.6996C31.7456 44.2462 32.0348 43.8262 32.3773 43.4516C32.8527 42.9488 33.361 42.4781 33.8989 42.0426C33.9259 42.0142 33.9429 41.9777 33.9475 41.9387C33.952 41.8998 33.9438 41.8604 33.9241 41.8265C33.9043 41.7926 33.8741 41.766 33.838 41.7507C33.8018 41.7354 33.7617 41.7323 33.7237 41.7418C33.4229 41.8412 33.116 41.921 32.8048 41.9806C32.5191 42.0323 32.1343 42.074 31.9414 41.8034C31.7692 41.5616 31.8067 41.2102 31.8304 40.9319C31.8449 40.7616 31.6309 40.7146 31.5231 40.8047C29.9391 42.129 28.1043 43.6385 25.9052 43.5092C25.6412 43.5111 25.3831 43.4319 25.1657 43.2822C25.0009 43.1483 24.8777 42.8982 24.9692 42.689C25.4427 42.2492 25.8838 41.7757 26.2892 41.2723L26.2906 41.2711C26.3 41.2591 26.3098 41.2471 26.3191 41.2351C26.4526 41.059 26.1815 40.9009 26.0363 41.017C25.2441 41.6725 24.418 42.286 23.5616 42.855C23.1287 43.135 22.6781 43.3865 22.2127 43.608C21.7447 43.8278 21.2407 44.0327 20.7179 44.051C20.4496 44.0752 20.1802 44.0176 19.9453 43.8858C19.7533 43.7614 19.622 43.5089 19.7429 43.2917C19.7659 43.2502 19.772 43.2014 19.76 43.1556C19.748 43.1097 19.7187 43.0702 19.6784 43.0453L19.5734 42.9752C19.546 42.9587 19.5145 42.95 19.4825 42.95C19.4505 42.95 19.4191 42.9587 19.3917 42.9752L17.9967 43.9406C17.6469 44.1827 17.1539 44.4326 17.0257 44.8736C17.0011 44.9608 16.9923 45.0517 16.9997 45.142C16.381 44.9817 15.7885 44.733 15.2407 44.4037C13.7309 43.4646 13.1662 41.6677 12.6668 40.0597C12.0773 38.1637 11.5809 36.242 11.1775 34.2947C10.8711 34.3897 10.5545 34.448 10.2344 34.4683L11.8927 48.6557C11.8927 48.6557 14.5335 47.9935 17.7885 48.9695C21.0435 49.9454 28.2286 51.972 31.5449 51.6036L33.326 49.8226L33.8174 47.9802C33.8174 47.9802 36.2126 47.4274 37.3795 46.1377C37.3795 46.1377 39.4703 46.5676 40.6665 44.9094C40.6665 44.9094 42.0465 46.0763 43.8895 44.1724C44.7441 43.2907 45.6183 42.4282 46.5112 41.5853C45.7087 41.8727 44.6914 42.1637 43.9539 41.6491Z" fill="#F29797"/>
<path d="M26.1056 36.9499C24.7383 38.0561 23.3476 39.1733 21.7487 39.931C21.2979 40.1451 20.8311 40.3237 20.3525 40.4653C19.9199 40.6027 19.4661 40.6612 19.0128 40.6379C18.8042 40.6236 18.5995 40.5735 18.4078 40.4897C18.2426 40.4149 16.5766 41.0777 16.3246 41.1661C14.8136 41.6971 16.7055 45.8198 20.0615 42.9223C20.4311 42.6032 21.1035 41.9023 21.4721 41.5838L23.8758 39.5113C24.3222 39.1264 24.7702 38.7433 25.2149 38.3561C25.632 38.009 26.0155 37.6232 26.3602 37.2041C26.3924 37.1701 26.41 37.1248 26.4093 37.0779C26.4086 37.031 26.3897 36.9863 26.3565 36.9532C26.3234 36.92 26.2786 36.9012 26.2317 36.9006C26.1849 36.8999 26.1396 36.9176 26.1056 36.9499ZM34.1309 29.5789C33.9767 29.6869 33.8177 29.7869 33.656 29.8809C33.095 30.2035 32.5113 30.4848 31.9096 30.7228C30.6888 31.2105 29.4616 31.6757 28.1555 31.825C27.9113 31.853 27.5182 31.873 27.1235 31.8884C26.2865 31.9184 25.4851 32.2349 24.8534 32.7849C24.0815 33.4593 23.0288 34.3395 22.4075 34.6929C21.4884 35.2162 19.2852 35.8519 18.3546 35.9578C18.2683 35.9677 18.1872 36.0043 18.1226 36.0625C18.0581 36.1206 18.0132 36.1974 17.9943 36.2822C17.9754 36.367 17.9834 36.4556 18.0172 36.5357C18.051 36.6158 18.1089 36.6833 18.1828 36.7289C18.854 37.1405 19.7534 37.5929 20.5202 37.6396C21.9194 37.7236 22.3271 37.1663 22.638 36.9091C23.2973 36.3633 23.9614 35.8226 24.6496 35.3131C25.9968 34.3171 27.4491 33.427 29.0562 32.9205C29.8962 32.6558 30.7662 32.4841 31.5731 32.1209C31.9744 31.9412 33.1144 31.3036 34.1309 29.5789Z" fill="#F29797"/>
<path d="M29.1036 38.956C29.1036 38.956 29.0647 37.6227 30.6684 37.5071C32.2721 37.3916 32.9674 40.0186 32.9674 40.0186L31.5184 40.9458C31.5184 40.9458 30.8036 38.3572 29.1036 38.956Z" fill="#FFC152"/>
<path d="M30.8573 38.7137C31.0805 38.7137 31.3008 38.6629 31.5016 38.5652C31.7023 38.4675 31.8782 38.3254 32.0159 38.1497C31.6696 37.7553 31.2239 37.4667 30.6686 37.5066C30.1369 37.5449 29.7865 37.7175 29.5547 37.9305C29.6803 38.167 29.8679 38.3648 30.0973 38.5028C30.3268 38.6408 30.5895 38.7137 30.8573 38.7137Z" fill="#FFF3E3"/>
<path d="M30.9395 39.7135C31.1921 40.0935 31.3872 40.5087 31.5183 40.9457L32.9673 40.0184C32.8462 39.5979 32.6791 39.1921 32.4692 38.8081C32.0433 39.2334 31.5172 39.5448 30.9395 39.7135Z" fill="#EF7748"/>
<path d="M58.5924 47.3585C56.729 45.9063 54.6968 44.6639 52.7545 43.3199C51.1803 42.2965 49.663 41.1119 47.8558 40.5277C48.2518 39.0846 46.623 38.5285 45.4808 38.6845C44.258 38.8115 42.9608 39.4065 41.9668 40.2066C42.0475 39.2792 42.2016 38.3597 42.4276 37.4567C42.5356 37.0045 42.7263 36.5214 42.6909 36.0483C42.633 35.2742 41.941 35.0466 41.2629 35.1158C40.0107 35.2436 38.7717 36.0422 38.3682 37.2414C36.2958 37.5229 35.1727 39.6444 34.8688 41.5374C33.3816 41.3473 32.0232 42.6404 31.4208 43.8869C30.6792 44.7523 29.7297 45.4149 28.6616 45.8125C27.9851 45.9465 27.2868 45.9216 26.6216 45.7398C27.9722 44.3081 29.4918 43.056 31.0401 41.8475C32.2506 40.9261 33.5738 40.2047 34.816 39.3384C35.116 39.1292 34.9426 38.5505 34.5472 38.7009C34.0313 38.9033 33.5351 39.1529 33.0651 39.4466C32.8734 38.7211 32.4308 38.087 31.8158 37.6569C32.3358 37.3209 32.8899 37.1028 33.417 36.7853C33.6895 36.6275 33.4987 36.246 33.2121 36.2995C32.3919 36.4527 31.6347 36.8315 30.9091 37.2355C29.8537 36.9776 28.663 37.7497 28.5853 38.8509C26.2206 40.5606 24.0148 42.48 21.9946 44.5857C21.6372 44.969 21.2046 45.2745 20.724 45.4833C20.6215 45.5285 20.5153 45.5646 20.4066 45.5913C19.4628 45.8018 18.3745 45.6169 17.6401 44.9426C22.504 41.9186 25.979 36.9407 31.3125 34.6586C31.6365 34.5198 31.4056 33.9777 31.0725 34.088C28.2907 35.0065 26.0349 36.8972 23.8666 38.804C22.7643 39.773 21.6814 40.7809 20.5591 41.7383C20.1247 42.0219 19.6304 42.2009 19.1151 42.2612C18.3012 42.3819 17.4351 42.3348 16.9144 41.7039C19.7324 39.6926 22.5697 37.629 25.1649 35.3178C25.7515 34.9593 26.2473 34.4765 26.8468 34.1432C27.4052 33.8225 28.0219 33.5995 28.5979 33.3128C30.078 32.9991 31.6144 32.5057 32.8375 31.6307C35.1388 30.9444 37.6383 30.1907 40.0569 30.1685C42.0456 30.1477 43.9977 30.8058 45.8718 31.4079C49.7186 32.6619 53.4896 34.1374 57.1659 35.8269C57.6745 36.0582 58.1196 35.3046 57.6074 35.0717C54.6438 33.724 51.6264 32.5005 48.5552 31.4013C45.5644 30.3355 42.2637 29.0156 39.036 29.3619C37.3718 29.5572 35.7278 29.8972 34.1227 30.3783C34.7555 29.5089 35.1323 28.4797 35.2104 27.4071C35.279 26.4291 34.3718 25.8224 33.5544 25.5073C33.4715 25.4831 33.3836 25.482 33.3002 25.504C33.2168 25.5261 33.1409 25.5705 33.0808 25.6325C31.3233 27.2822 28.7008 27.801 26.3581 27.9312C25.0062 27.9967 23.654 27.7632 22.329 28.1161C20.258 28.6863 18.7898 30.3854 16.9816 31.4564C14.9038 32.7587 8.89365 34.2679 8.38833 34.4573C8.35233 34.044 8.39073 33.4437 7.82325 33.5127C5.92725 33.8109 3.96429 34.1749 2.15097 34.8179C1.67853 34.9867 1.86177 35.6861 2.35953 35.5745C4.08585 35.1876 5.77953 34.728 7.52037 34.4135C7.72185 39.6252 8.27997 44.8219 8.81637 50.0076C8.76992 50.1849 8.66402 50.3408 8.51637 50.4494C6.83925 51.3966 5.18037 52.2734 3.53793 53.2677C2.96649 53.6112 2.19537 53.9447 1.77513 54.4695C1.57701 54.7171 1.75509 55.0935 2.09265 55.0148C2.75493 54.8611 3.37881 54.3365 3.96165 53.9925C4.59021 53.6215 5.22309 53.2579 5.86029 52.9019C6.49669 52.5443 7.13693 52.1936 7.78101 51.8499C8.32197 51.561 9.02133 51.3175 9.49629 50.9084C9.91353 50.7907 9.67857 50.2146 9.67629 49.8945C10.1957 49.6897 10.7146 49.4833 11.2328 49.2753C14.8568 48.4962 17.9572 49.1553 21.3692 50.4056C24.6681 51.4101 28.1079 52.0721 31.5404 51.8648C32.1016 51.81 32.6977 51.1361 33.0082 50.7839C33.3134 50.4379 33.8608 49.8637 33.8876 49.3319C33.9676 49.0448 34.0448 48.7568 34.1192 48.4679C35.2089 47.7735 36.6531 47.5038 37.5024 46.4862C38.6348 46.835 39.9081 46.3478 40.6275 45.4393C41.4733 45.3147 42.2457 45.6581 43.0795 45.2685C43.8652 44.9015 44.3665 44.2211 44.8994 43.5684C45.6134 42.7021 46.4286 41.9245 47.3277 41.2524C48.1482 41.5329 48.949 41.8467 49.6753 42.3297C51.5564 43.5071 53.3792 44.7777 55.2146 46.0249C56.1687 46.6819 57.0952 47.4188 58.0897 48.0115C58.4832 48.2445 58.9627 47.6664 58.5924 47.3585ZM30.1633 38.0301C30.3466 37.9814 30.5397 37.9842 30.7215 38.0381C31.1359 38.1769 31.5047 38.4257 31.7884 38.7581C32.0722 39.0904 32.2602 39.4936 32.3324 39.9246C32.121 40.0703 31.9113 40.2183 31.7031 40.3686C31.4102 39.392 30.4918 38.7726 29.4678 38.6406C29.5371 38.4976 29.6344 38.3699 29.7538 38.2651C29.8733 38.1602 30.0125 38.0804 30.1633 38.0301ZM26.1433 41.8842C27.0739 41.053 28.0488 40.2729 29.0638 39.5473C29.9581 39.2928 30.9165 40.0003 30.9742 40.905C28.8862 42.3937 27.0775 44.2153 25.1815 45.9251C24.061 46.9425 22.8999 47.0531 21.5562 46.3801C22.9636 44.7745 24.5482 43.2903 26.1429 41.8842H26.1433ZM8.93073 42.2189C8.73873 39.926 8.64129 37.6211 8.46105 35.3265C8.87482 35.2628 9.28356 35.1699 9.6842 35.0484C10.1274 39.4717 10.66 43.8844 11.2819 48.2865C10.7139 48.5157 10.1454 48.7433 9.57657 48.9693C9.33633 46.7217 9.12105 44.4715 8.93073 42.2189ZM32.9214 49.5599C32.546 50.1271 32.0838 50.6778 31.4889 51.0225C27.9082 51.0731 24.3459 50.501 20.961 49.3319C18.092 48.3905 15.161 47.7437 12.1822 48.2389C11.559 43.7735 11.0239 39.2968 10.577 34.809C16.0316 33.4099 17.6372 32.3023 20.6474 29.9557C22.2352 28.6057 24.2394 28.8602 26.1674 28.8637C28.7503 28.7585 31.4775 28.217 33.5329 26.5538C34.2649 26.9034 34.3747 27.2751 34.1392 28.0381C33.5521 31.0628 30.2714 32.0181 27.5904 32.5645C27.1846 32.5885 26.848 32.7608 26.483 33.0413C25.331 33.9828 24.1359 34.911 22.7308 35.4493C22.0494 35.7161 21.2908 35.7699 20.6308 36.0588C20.3089 36.1998 20.4114 36.7188 20.7268 36.7939C21.1662 36.8987 21.662 36.8234 22.1269 36.7017C20.1366 38.2321 18.1268 39.7351 16.0974 41.2106C15.9995 41.2719 15.9288 41.3683 15.8995 41.4799C15.8702 41.5916 15.8846 41.7103 15.9397 41.8117C16.5012 42.9345 17.6566 43.2423 18.8139 43.1413C18.1796 43.6208 17.5196 44.0654 16.837 44.4733C16.7449 44.5295 16.6781 44.6193 16.6508 44.7237C16.6234 44.8281 16.6375 44.939 16.6902 45.0332C17.4711 46.2821 18.995 46.6001 20.4298 46.4192C20.3942 46.5106 20.394 46.6119 20.4291 46.7034C20.4642 46.7949 20.5322 46.8701 20.6198 46.9141C22.6408 47.8766 24.3069 47.9327 25.9972 46.3045C27.5452 47.2074 29.4532 46.7245 30.8172 45.6608C30.6446 46.5561 30.41 47.424 29.8951 48.1871C29.8659 48.2409 29.8548 48.3026 29.8636 48.3632C29.8724 48.4238 29.9005 48.4799 29.9438 48.5232C29.9871 48.5665 30.0432 48.5946 30.1038 48.6034C30.1643 48.6122 30.2261 48.6011 30.2799 48.5719C32.3046 47.5279 30.8199 43.059 34.5432 42.2951C34.59 42.3299 34.628 42.3751 34.6543 42.4272C34.6806 42.4792 34.6944 42.5367 34.6946 42.5951C34.4817 43.6183 34.1728 44.6125 33.9583 45.6349C33.6086 46.9377 33.4298 48.3081 32.9214 49.5599ZM35.5974 46.8566C35.2288 47.0293 34.7654 47.1977 34.3734 47.4377C34.5632 46.6457 34.7431 45.8517 34.932 45.0611C35.1086 44.3213 35.31 43.5794 35.4462 42.8307C35.5037 42.5828 35.5026 42.3249 35.443 42.0775C35.8476 40.7594 36.5176 39.0415 37.7925 38.2621C37.8449 38.23 37.9052 38.2133 37.9667 38.2141C38.0281 38.2149 38.088 38.2331 38.1395 38.2665C38.191 38.3 38.232 38.3474 38.2576 38.4032C38.2833 38.459 38.2926 38.5209 38.2845 38.5818C38.1612 39.4989 37.9282 41.2363 37.8405 41.9264C37.5472 43.9206 37.8022 45.9677 35.5975 46.8561L35.5974 46.8566ZM38.4994 45.7091C38.329 45.7209 38.1579 45.7181 37.9879 45.7008C38.4303 44.6724 38.4532 43.482 38.5968 42.3859C38.7538 41.0495 38.9601 39.7137 39.0922 38.3763C39.1334 38.1831 39.131 37.9832 39.0852 37.791C39.2492 36.6303 40.5372 35.9808 41.4004 35.9372C41.8491 35.9147 41.865 36.1787 41.7735 36.5635C41.6762 36.9727 41.5617 37.3765 41.4735 37.7875C41.313 38.5351 41.1909 39.2903 41.1004 40.0494C40.8862 42.0499 41.0449 45.2502 38.4996 45.7086L38.4994 45.7091ZM46.6264 40.746C45.5704 41.5689 44.7198 42.5144 43.8728 43.5446C43.0872 44.5436 42.3738 44.8577 41.1206 44.6912C41.666 43.6472 41.7964 42.4316 41.8886 41.2232C42.976 40.6275 43.9544 39.8413 45.2006 39.5816C45.7398 39.4835 46.8822 39.3776 47.0653 40.0536C47.1264 40.3895 46.8568 40.566 46.6266 40.7455L46.6264 40.746Z" fill="#4C373C"/>
<path d="M39.7609 8.20958C38.8637 6.72278 36.5209 5.5517 36.5209 5.5517C34.2049 5.14886 31.6378 6.19166 30.2612 8.41406C30.2314 8.45689 30.1916 8.49187 30.1454 8.51602C30.0991 8.54018 30.0476 8.55279 29.9954 8.55279C29.9432 8.55279 29.8918 8.54018 29.8455 8.51602C29.7993 8.49187 29.7595 8.45689 29.7296 8.41406C28.4798 6.40262 26.0303 5.13302 23.5331 5.52542C20.0744 6.09038 18.2839 9.75914 19.0732 12.6551C19.4219 14.4631 21.1655 16.3373 23.1652 17.9351C23.1652 17.9351 28.4802 20.6831 29.6149 21.1907C29.7523 21.256 29.9025 21.2899 30.0546 21.2899C30.2067 21.2899 30.3569 21.256 30.4943 21.1907C34.4501 19.2055 43.5542 14.6844 39.7609 8.20958Z" fill="#FF668B"/>
<path d="M36.5208 5.552C37.8347 6.58008 38.7088 8.06915 38.9659 9.71756C39.6178 14.0665 33.9649 17.3078 32.1428 18.4975C28.8882 20.6227 25.6964 19.0548 23.165 17.9352C25.6028 19.8837 28.421 21.4222 29.5558 21.9304C29.6931 21.9957 29.8433 22.0296 29.9954 22.0296C30.1475 22.0296 30.2977 21.9957 30.4351 21.9304C34.3908 19.945 44.0477 14.6061 40.2542 8.13128C39.8577 7.45508 39.3181 6.87381 38.6731 6.42824C38.0282 5.98268 37.2936 5.68361 36.5208 5.552Z" fill="#C6305F"/>
<path d="M25.1992 7.73999C24.5553 7.50827 23.7905 7.66067 23.2258 8.01839C22.6611 8.37611 22.2727 8.91275 21.9892 9.47243C21.4963 10.4459 21.2043 12.2582 22.1452 12.5739C22.2963 12.6286 22.4583 12.6466 22.6177 12.6265C22.7771 12.6064 22.9295 12.5487 23.0623 12.4581C23.2874 12.2853 23.3983 12.0281 23.528 11.7912C23.8345 11.2409 24.2615 10.7669 24.7769 10.4048C25.2689 10.0556 25.8785 9.75455 26.072 9.22487C26.2846 8.64131 25.843 7.97171 25.1992 7.73999Z" fill="#FFEEF3"/>
<path d="M29.994 22.5093C29.7728 22.5097 29.5543 22.4608 29.3544 22.3661C28.0584 21.7849 25.2709 20.2307 22.8763 18.3187L22.8656 18.3105C20.3719 16.3171 18.9387 14.4511 18.6056 12.764C18.1627 11.1172 18.4788 9.23214 19.4525 7.71774C19.8926 7.01487 20.4772 6.41366 21.1675 5.95404C21.8577 5.49443 22.6379 5.18692 23.4561 5.05194C25.9611 4.65858 28.5545 5.8149 29.9961 7.94202C31.4535 5.78466 34.0752 4.63902 36.6042 5.07906C36.6115 5.08038 36.6188 5.0817 36.6261 5.08338C37.462 5.23025 38.256 5.55665 38.9534 6.04008C39.6509 6.52351 40.2352 7.15247 40.6661 7.88358L40.6693 7.88886C41.6149 9.50286 41.8423 11.1722 41.3455 12.8509C40.3899 16.0789 36.792 19.2776 30.6513 22.3599C30.4463 22.4585 30.2216 22.5096 29.994 22.5093ZM23.4555 17.5533L23.4659 17.5615C25.7798 19.4108 28.5499 20.9543 29.7524 21.4929L29.7644 21.4987C29.8367 21.5326 29.9157 21.5502 29.9955 21.5502C30.0754 21.5502 30.1544 21.5326 30.2267 21.4987C36.1136 18.5435 39.5468 15.5414 40.424 12.5783C40.8481 11.1455 40.6577 9.7713 39.8415 8.3769C39.4791 7.76165 38.987 7.23265 38.3996 6.82663C37.8122 6.4206 37.1434 6.14728 36.4398 6.02562C36.433 6.02445 36.4263 6.02309 36.4196 6.02154C34.1942 5.6439 31.8852 6.70434 30.6692 8.66718C30.5964 8.77968 30.4965 8.87215 30.3787 8.93614C30.2609 9.00014 30.129 9.03362 29.995 9.03355C29.861 9.03348 29.7291 8.99985 29.6114 8.93573C29.4937 8.87161 29.3939 8.77904 29.3211 8.66646C28.1153 6.72438 25.8189 5.6529 23.6079 5.99994C22.9232 6.11424 22.2706 6.37283 21.6934 6.75855C21.1161 7.14426 20.6275 7.6483 20.2599 8.23722C19.4275 9.53202 19.157 11.1365 19.5366 12.5293C19.5398 12.5413 19.5425 12.5527 19.5449 12.5645C19.8224 14.0031 21.1747 15.728 23.4555 17.5528V17.5533Z" fill="#4C373C"/>
</svg>
