<svg xmlns="http://www.w3.org/2000/svg" width="60" height="60" fill="none" xmlns:v="https://vecta.io/nano"><style><![CDATA[.B{stroke-linejoin:round}.C{stroke-linecap:round}]]></style><path d="M54.273 43.708L10.549 52.05c-1.457.273-2.859-.688-3.131-2.144L.925 15.202c-.273-1.457.688-2.859 2.144-3.131l14.924-2.792a2.88 2.88 0 0 1 2.373.618l2.776 2.313a2.88 2.88 0 0 0 2.373.618l22.173-4.309c1.457-.273 2.859.688 3.131 2.144l5.596 29.914c.273 1.456-.687 2.858-2.144 3.131z" fill="#ffd15b"/><path d="M56.417 40.577l-5.596-29.914c-.273-1.457-1.674-2.417-3.131-2.144l-7.07 1.374c1.308-.051 2.49.863 2.738 2.188l5.175 28.496c.273 1.457-.687 2.859-2.144 3.131L7.927 51.046c.596.775 1.595 1.196 2.622 1.004l43.724-8.341c1.457-.273 2.417-1.674 2.144-3.131zM13.543 11.091l2.137 2.536a2.88 2.88 0 0 0 2.373.618l7.064-1.373a2.88 2.88 0 0 1-1.974-.663l-2.776-2.313a2.88 2.88 0 0 0-2.373-.618l-6.147 1.15a2.88 2.88 0 0 1 1.697.663z" fill="#ffc344"/><path d="M8.521 57.064c-2.315 0-4.192-1.877-4.192-4.192V25.456c0-2.315 1.877-4.192 4.192-4.192H49.04c2.315 0 4.192 1.877 4.192 4.192v27.416c0 2.315-1.877 4.192-4.192 4.192H8.521z" fill="#eaf9fa"/><path d="M49.04 21.264h-9.85c2.315 0 4.192 1.877 4.192 4.192v27.416c0 2.315-1.877 4.192-4.192 4.192h9.85c2.315 0 4.192-1.877 4.192-4.192V25.456c0-2.315-1.877-4.192-4.192-4.192z" fill="#d4f2f6"/><path d="M49.572 26.086v26.156c0 .285-.113.557-.314.759s-.474.314-.759.314H9.061c-.285 0-.557-.113-.759-.314s-.314-.474-.314-.759V26.086c0-.284.113-.557.314-.759s.474-.314.759-.314H48.5c.141 0 .28.028.411.082s.248.133.348.233.179.218.233.348.082.27.082.411z" fill="#a6e7f0"/><path d="M48.5 25.013h-6.621c.83 0 1.503.673 1.503 1.503v25.296c0 .83-.673 1.503-1.503 1.503H48.5c.284 0 .557-.113.758-.314s.314-.474.314-.758V26.086c0-.284-.113-.557-.314-.759s-.474-.314-.758-.314z" fill="#81dbea"/><path d="M49.573 40.273v11.97c0 .593-.48 1.073-1.072 1.073H9.062c-.593 0-1.072-.48-1.072-1.073v-2.599l19.535-10.5a1.95 1.95 0 0 1 2.282.319l4.644 4.508 8.856-6.827.076-.055a1.95 1.95 0 0 1 2.339.081l3.852 3.104z" fill="#2ed1e2"/><path d="M49.572 40.273v11.97c0 .593-.48 1.073-1.072 1.073h-6.622c.831 0 1.504-.674 1.504-1.504V37.088a1.95 1.95 0 0 1 2.339.081l3.852 3.104z" fill="#05bddb"/><use href="#B" fill="#bbec6c"/><path d="M20.403 43.039h1.336c.537 0 .857-.598.56-1.045l-2.078-3.123h.576c.537 0 .857-.598.56-1.045l-2.954-4.438a.71.71 0 0 0-1.184 0l-1.083 1.627a.71.71 0 0 1 .821.279l1.671 2.532c.298.447-.023 1.045-.56 1.045h-.577l2.078 3.123c.297.447-.023 1.045-.56 1.045h-1.336l1.896 2.849c.297.447-.023 1.045-.56 1.045h2.728c.537 0 .857-.598.56-1.045l-1.896-2.849z" fill="#97d729"/><use href="#C" fill="#ffd15b"/><path d="M34.887 30.185c-.415 0-.804.105-1.144.291.745.406 1.251 1.197 1.251 2.105s-.506 1.699-1.251 2.105c.351.191.745.291 1.144.291 1.323 0 2.396-1.073 2.396-2.396s-1.073-2.396-2.396-2.396z" fill="#ffc344"/><g stroke="#000" stroke-width="1.758" stroke-miterlimit="10" class="B"><g class="C"><path d="M42.79 21.264h6.25c2.315 0 4.192 1.877 4.192 4.192v27.416c0 2.315-1.877 4.192-4.192 4.192H8.521c-2.315 0-4.192-1.877-4.192-4.192V25.456c0-2.315 1.877-4.192 4.192-4.192h30.145"/><path d="M9.061 53.315c-.285 0-.557-.113-.759-.314s-.314-.474-.314-.758V26.086c0-.284.113-.557.314-.759s.474-.314.759-.314H48.5c.285 0 .557.113.759.314s.314.474.314.759v26.156c0 .285-.113.557-.314.759s-.474.314-.759.314"/><path d="M17.812 53.316h-8.75c-.593 0-1.072-.48-1.072-1.073v-2.599l5.415-2.911m8.873-4.77l5.247-2.819a1.95 1.95 0 0 1 2.282.319l4.644 4.508 8.856-6.827a1.95 1.95 0 0 1 2.415.026l3.852 3.104v11.969c0 .593-.48 1.073-1.072 1.073H21.928"/></g><use href="#B"/><use href="#C"/><path d="M34.45 43.97l3.343 3.356m-19.982-.392v6.382m35.421-9.409l1.041-.198c1.457-.273 2.416-1.675 2.145-3.131l-5.597-29.915c-.272-1.457-1.675-2.416-3.131-2.143l-22.173 4.309c-.417.078-.845.063-1.256-.044a2.88 2.88 0 0 1-1.117-.574l-2.776-2.313c-.326-.271-.707-.467-1.117-.574a2.88 2.88 0 0 0-1.256-.043L3.069 12.071c-1.457.273-2.416 1.675-2.145 3.131l3.404 18.194m5.846-18.169l8.087-1.513M57.5 12.092v3.243m1.621-1.621h-3.243" class="C"/></g><defs ><path id="B" d="M22.299 41.994l-2.078-3.123h.576c.537 0 .858-.598.56-1.045l-2.954-4.438a.71.71 0 0 0-1.184 0l-2.954 4.438c-.297.447.023 1.045.56 1.045h.576l-2.078 3.123c-.298.447.023 1.045.56 1.045h1.336l-1.896 2.849c-.298.447.023 1.045.56 1.045h7.854c.537 0 .857-.598.56-1.045l-1.896-2.849h1.336c.537 0 .858-.598.56-1.045z"/><path id="C" d="M34.887 34.977c1.323 0 2.396-1.073 2.396-2.396s-1.073-2.396-2.396-2.396-2.396 1.073-2.396 2.396 1.073 2.396 2.396 2.396z"/></defs></svg>