<svg xmlns="http://www.w3.org/2000/svg" width="60" height="60" fill="none" xmlns:v="https://vecta.io/nano"><path d="M28.364 49.322a5.11 5.11 0 0 0-.952-2.091c-.472-.616-1.078-1.116-1.772-1.463l-5.973-2.55v-.156a10.64 10.64 0 0 1-9.011 0v.156l-5.973 2.55a5.11 5.11 0 0 0-2.809 4.148v6.495H28.45v-6.495a4.74 4.74 0 0 0-.085-.594z" fill="#50a6ea"/><path d="M8.2 45.767l4.611-1.969c-.742-.168-1.464-.415-2.154-.737v.156l-5.973 2.55a5.11 5.11 0 0 0-2.809 4.149v6.495h3.516v-6.495A5.11 5.11 0 0 1 8.2 45.767z" fill="#72bcef"/><path d="M58.125 8.091v38.886c0 .308-.06.613-.178.897a2.34 2.34 0 0 1-1.269 1.269c-.284.118-.589.178-.897.178H28.365a5.11 5.11 0 0 0-2.724-3.554l-3.839-1.638v-6.888l-.001-.001a9.48 9.48 0 0 0 2.595-6.529v-1.205c.329-.058.643-.183.921-.367a2.44 2.44 0 0 0 1.061-1.627 2.44 2.44 0 0 0-.036-.991c-.091-.377-.299-.715-.594-.966s-.662-.403-1.049-.433h-.23v-3.709a9.68 9.68 0 0 0-2.667-6.684V8.091c0-.622.247-1.218.686-1.657s1.036-.686 1.657-.686h5.79v1.871h21.227V5.748h4.618c.622 0 1.218.247 1.657.686s.687 1.036.687 1.657z" fill="#e5f5fd"/><path d="M33.734 27.178c3.883 0 7.031-3.148 7.031-7.031s-3.148-7.031-7.031-7.031-7.031 3.148-7.031 7.031 3.148 7.031 7.031 7.031z" fill="#49c160"/><path d="M29.047 20.146c.001-1.661.589-3.269 1.662-4.538s2.56-2.117 4.198-2.394a7.03 7.03 0 0 0-5.713 1.561 7.03 7.03 0 0 0-2.494 5.372 7.03 7.03 0 0 0 2.494 5.372 7.03 7.03 0 0 0 5.713 1.561 7.03 7.03 0 0 1-4.198-2.394c-1.073-1.269-1.661-2.877-1.662-4.538z" fill="#5ae070"/><path d="M24.469 25.121v.108s-8.298 1.463-13.862-3.496a29.29 29.29 0 0 1-3.436.087l-.259 4.25c-.003.032-.013.063-.03.091s-.041.05-.07.066-.06.024-.092.025-.064-.007-.093-.022l-1.148-.589c-.121-.062-.224-.155-.3-.269s-.12-.245-.129-.381v-3.578a9.71 9.71 0 0 1 9.71-9.71 9.71 9.71 0 0 1 9.71 9.71v3.709z" fill="#4a5160"/><path d="M10.237 14.546a9.68 9.68 0 0 1 5.702-2.772 9.8 9.8 0 0 0-1.18-.072 9.71 9.71 0 0 0-9.71 9.71v3.578c.01.136.054.267.129.381s.178.207.3.269l1.148.589c.029.015.061.022.093.022s.064-.009.092-.025.052-.038.07-.066.028-.058.031-.091c0 0-.505-7.695 3.325-11.524z" fill="#58606d"/><path d="M19.668 38.935v4.126a10.64 10.64 0 0 1-9.011 0v-3.819c1.411.697 2.972 1.034 4.544.98s3.107-.496 4.467-1.287z" fill="#efc597"/><path d="M13.001 43.061v-3.02a9.46 9.46 0 0 1-2.344-.799v3.819c1.771.828 3.735 1.152 5.677.936a10.63 10.63 0 0 1-3.333-.936z" fill="#d8ad82"/><path d="M19.668 38.935c-1.446.843-3.089 1.289-4.763 1.294s-3.319-.432-4.77-1.266-2.656-2.036-3.495-3.485-1.279-3.093-1.279-4.767v-1.205c-.329-.059-.642-.184-.921-.368s-.516-.424-.699-.704-.306-.594-.362-.923-.045-.666.034-.991a1.84 1.84 0 0 1 1.644-1.399l.011-.002c.027.111.077.215.147.305s.16.164.262.216l1.148.589c.029.015.061.022.093.022s.064-.009.092-.025.052-.038.07-.066.028-.058.03-.091l.259-4.25a29.29 29.29 0 0 0 3.436-.087c5.564 4.958 13.862 3.496 13.862 3.496v-.108h.23c.387.03.754.181 1.049.433s.503.59.594.966a2.44 2.44 0 0 1-.326 1.915 2.44 2.44 0 0 1-1.621 1.071v1.205a9.48 9.48 0 0 1-2.594 6.529c-.062.068-.128.135-.193.2-.579.58-1.231 1.082-1.939 1.495z" fill="#ffd8b7"/><path d="M13.001 39.242c-1.59-.787-2.929-2.003-3.865-3.51s-1.431-3.247-1.431-5.021v-1.205c-.329-.059-.642-.184-.921-.368s-.516-.424-.699-.703-.306-.594-.362-.923-.045-.666.034-.991c.052-.214.142-.417.266-.6l-.546-.28c-.102-.052-.191-.126-.262-.216s-.121-.194-.147-.306l-.011.002c-.387.03-.754.181-1.049.433s-.504.59-.595.966a2.44 2.44 0 0 0 .326 1.915 2.44 2.44 0 0 0 1.621 1.071v1.205a9.51 9.51 0 0 0 2.786 6.731c.884.884 1.933 1.585 3.088 2.063s2.393.724 3.643.723c.391 0 .782-.024 1.17-.072a9.46 9.46 0 0 1-3.047-.914z" fill="#e8bc9e"/><path d="M29.936 3.59h21.227v4.029H29.936V3.59z" fill="#475673"/><path d="M55.781 5.045h-3.916V3.59c0-.186-.074-.365-.206-.497s-.311-.206-.497-.206H29.936c-.186 0-.365.074-.497.206s-.206.311-.206.497v1.455h-5.088a3.05 3.05 0 0 0-3.047 3.047v5.066a10.41 10.41 0 0 0-5.317-2.107 10.4 10.4 0 0 0-5.628 1.021 10.41 10.41 0 0 0-5.807 9.34v3.152c-.397.139-.754.376-1.036.689a2.52 2.52 0 0 0-.579 1.101 3.15 3.15 0 0 0 1.927 3.686v.672a10.22 10.22 0 0 0 1.425 5.2c.932 1.575 2.268 2.871 3.871 3.753v3.089L4.408 45.12l-.038.018a5.85 5.85 0 0 0-3.195 4.719l-.002.059v6.495a.7.7 0 0 0 .206.497c.132.132.311.206.497.206H28.45c.186 0 .365-.074.497-.206s.206-.311.206-.497v-6.386h26.629a3.05 3.05 0 0 0 3.047-3.047V8.092a3.05 3.05 0 0 0-3.047-3.047zm-25.142-.752h19.82v2.623h-19.82V4.293zM5.752 21.412c0-2.389.949-4.68 2.638-6.369s3.98-2.638 6.369-2.638a9.01 9.01 0 0 1 6.369 2.638c1.69 1.689 2.638 3.98 2.638 6.369v3.201c-1.742.188-7.061.473-11.332-2.36 2.935-.391 6.512-1.292 9.165-3.327a.7.7 0 0 0 .264-.745.72.72 0 0 0-.122-.25c-.057-.075-.128-.136-.209-.183s-.171-.076-.264-.087a.7.7 0 0 0-.277.022c-.09.026-.174.069-.247.127-4.827 3.702-13.449 3.311-13.535 3.307a.71.71 0 0 0-.505.178.7.7 0 0 0-.234.481l-.211 3.473-.459-.236c-.012-.006-.022-.015-.03-.025s-.014-.023-.017-.036l-.001-3.542zm.313 9.299v-1.205a.7.7 0 0 0-.165-.452c-.107-.126-.254-.212-.417-.24a1.74 1.74 0 0 1-1.386-2.126c.038-.167.114-.323.223-.455a1.1 1.1 0 0 1 .403-.306 1.46 1.46 0 0 0 .434.338l1.148.59a.9.9 0 0 0 1.308-.728l.219-3.586a32.52 32.52 0 0 0 2.542-.079c5.743 4.885 13.87 3.521 14.218 3.46a.7.7 0 0 0 .208-.074 1.11 1.11 0 0 1 .553.294c.152.149.259.338.307.546a1.74 1.74 0 0 1-1.385 2.126c-.163.029-.311.114-.417.24s-.165.287-.165.452v1.205c-.009 2.332-.941 4.566-2.593 6.211a8.82 8.82 0 0 1-6.221 2.57c-2.332 0-4.569-.924-6.221-2.57s-2.584-3.879-2.593-6.211h-.001zm15.034 8.102v4.25l-.729-.311v-3.427a10.08 10.08 0 0 0 .729-.513zm-2.135 1.265v2.524a10.01 10.01 0 0 1-7.603 0v-2.295c2.47.905 5.193.823 7.603-.229zm8.783 15.63H2.578v-5.762a4.44 4.44 0 0 1 .746-2.079 4.43 4.43 0 0 1 1.656-1.461l5.855-2.499a11.41 11.41 0 0 0 8.654 0l5.855 2.499a4.43 4.43 0 0 1 1.655 1.462c.419.619.676 1.334.746 2.078v5.762zm29.676-8.73a1.64 1.64 0 0 1-1.641 1.641H28.905a5.85 5.85 0 0 0-2.949-3.48l-.038-.018-3.412-1.456v-6.158a10.18 10.18 0 0 0 2.593-6.795v-.672a3.15 3.15 0 0 0 1.659-1.479c.355-.678.45-1.463.268-2.206a2.52 2.52 0 0 0-1.854-1.863v-3.078a10.37 10.37 0 0 0-2.666-6.951V8.092a1.64 1.64 0 0 1 1.641-1.641h5.088v1.168c0 .186.074.365.206.497s.311.206.497.206h21.226c.186 0 .365-.074.497-.206s.206-.311.206-.497V6.451h3.916a1.64 1.64 0 0 1 1.641 1.641v38.886zm-5.089-20.999h-5.141a.7.7 0 0 0-.497.206c-.132.132-.206.311-.206.497s.074.365.206.497.311.206.497.206h5.141c.186 0 .365-.074.497-.206s.206-.311.206-.497-.074-.365-.206-.497-.311-.206-.497-.206zm-9.894 1.406h1.724c.186 0 .365-.074.497-.206s.206-.311.206-.497-.074-.365-.206-.497-.311-.206-.497-.206H42.44a.7.7 0 0 0-.497.206c-.132.132-.206.311-.206.497s.074.365.206.497.311.206.497.206zm9.894 6.199h-1.745a.7.7 0 0 0-.497.206c-.132.132-.206.311-.206.497s.074.365.206.497.311.206.497.206h1.745c.186 0 .365-.074.497-.206s.206-.311.206-.497-.074-.365-.206-.497-.311-.206-.497-.206zm-4.177 1.406a.7.7 0 0 0 .497-.206c.132-.132.206-.311.206-.497s-.074-.365-.206-.497-.311-.206-.497-.206h-9.312a.7.7 0 0 0-.497.206c-.132.132-.206.311-.206.497s.074.365.206.497.311.206.497.206h9.312zM36.38 33.584h-.628a.7.7 0 0 0-.497.206c-.132.132-.206.311-.206.497s.074.365.206.497.311.206.497.206h.628a.7.7 0 0 0 .497-.206c.132-.132.206-.311.206-.497s-.074-.365-.206-.497-.311-.206-.497-.206zm-7.643 0a.7.7 0 0 0-.497.206c-.132.132-.206.311-.206.497s.074.365.206.497.311.206.497.206h3.986c.186 0 .365-.074.497-.206s.206-.311.206-.497-.074-.365-.206-.497-.311-.206-.497-.206h-3.986zm23.598 7.029H48.31a.7.7 0 0 0-.497.206c-.132.132-.206.311-.206.497s.074.365.206.497.311.206.497.206h4.024c.186 0 .365-.074.497-.206s.206-.311.206-.497-.074-.365-.206-.497-.311-.206-.497-.206zm-6.547 0h-.506c-.186 0-.365.074-.497.206s-.206.311-.206.497.074.365.206.497.311.206.497.206h.505a.7.7 0 0 0 .497-.206c.132-.132.206-.311.206-.497s-.074-.365-.206-.497-.311-.206-.497-.206h0zm-2.484 0h-3.822a.7.7 0 0 0-.497.206c-.132.132-.206.311-.206.497s.074.365.206.497.311.206.497.206h3.822c.186 0 .365-.074.497-.206s.206-.311.206-.497-.074-.365-.206-.497-.311-.206-.497-.206h0zm-6.923 0h-7.643a.7.7 0 0 0-.497.206c-.132.132-.206.311-.206.497s.074.365.206.497.311.206.497.206h7.643a.7.7 0 0 0 .497-.206c.132-.132.206-.311.206-.497s-.074-.365-.206-.497-.311-.206-.497-.206zm15.955-20.621h-.454c-.186 0-.365.074-.497.206s-.206.311-.206.497.074.365.206.497.311.206.497.206h.454c.186 0 .365-.074.497-.206s.206-.311.206-.497-.074-.365-.206-.497-.311-.206-.497-.206zm-8.466 1.406h4.984a.7.7 0 0 0 .497-.206c.132-.132.206-.311.206-.497s-.074-.365-.206-.497-.311-.206-.497-.206H43.87a.7.7 0 0 0-.497.206c-.132.132-.206.311-.206.497s.074.365.206.497.311.206.497.206zm8.466-7.266h-5.023a.7.7 0 0 0-.497.206c-.132.132-.206.311-.206.497s.074.365.206.497.311.206.497.206h5.023c.186 0 .365-.074.497-.206s.206-.311.206-.497-.074-.365-.206-.497-.311-.206-.497-.206zm-8.466 1.406h.414a.7.7 0 0 0 .497-.206c.132-.132.206-.311.206-.497s-.074-.365-.206-.497-.311-.206-.497-.206h-.414a.7.7 0 0 0-.497.206c-.132.132-.206.311-.206.497s.074.365.206.497.311.206.497.206zM33.735 27.881a7.74 7.74 0 0 0 4.297-1.303c1.272-.849 2.263-2.058 2.849-3.471s.739-2.968.44-4.469-1.035-2.878-2.117-3.96a7.74 7.74 0 0 0-3.96-2.117c-1.5-.299-3.056-.145-4.469.44s-2.621 1.577-3.471 2.849a7.73 7.73 0 0 0-1.303 4.297 7.74 7.74 0 0 0 7.735 7.735zm0-14.062a6.33 6.33 0 0 1 4.474 10.803 6.33 6.33 0 0 1-10.803-4.475 6.33 6.33 0 0 1 1.856-4.472 6.34 6.34 0 0 1 4.473-1.856zm-2.063 9.393c.132.132.311.206.497.206s.365-.074.497-.206l5.137-5.137c.13-.132.203-.311.202-.496s-.075-.363-.206-.494-.309-.205-.494-.206-.364.072-.496.202L32.17 21.72l-1.507-1.507c-.065-.067-.142-.12-.228-.157S30.257 20 30.164 20s-.186.017-.272.053a.7.7 0 0 0-.23.153.71.71 0 0 0-.153.23.72.72 0 0 0-.053.272.7.7 0 0 0 .213.499l2.004 2.005z" fill="#284268"/></svg>