<svg width="40" height="40" viewBox="0 0 40 40" fill="none" xmlns="http://www.w3.org/2000/svg">
<g clip-path="url(#clip0_3_43)">
<path d="M16.8271 23.1767C16.4502 22.7996 16.0962 22.4003 15.7668 21.9811L12.4908 25.2572L14.7467 27.513L18.0227 24.237C17.6035 23.9076 17.2042 23.5536 16.8271 23.1767Z" fill="#EEEBEE"/>
<path d="M15.3957 25.7219C15.2724 25.5987 15.2032 25.4314 15.2032 25.2571C15.2032 25.0827 15.2724 24.9155 15.3957 24.7923L16.9206 23.2673C16.8896 23.2369 16.8579 23.2074 16.8271 23.1766C16.4503 22.7995 16.0962 22.4003 15.7669 21.981L12.4909 25.2571L14.7467 27.513L15.9668 26.2929L15.3957 25.7219Z" fill="#D6D4D6"/>
<path d="M37.4646 6.93978L33.0641 2.53925C27.9507 -0.593453 21.1758 0.0527282 16.749 4.47959C11.5643 9.66427 11.5643 18.0702 16.749 23.2549C21.9337 28.4395 30.3396 28.4396 35.5243 23.2549C39.9511 18.828 40.5973 12.0531 37.4646 6.93978Z" fill="#365E7D"/>
<path d="M21.7474 23.2549C16.5627 18.0702 16.5627 9.6642 21.7474 4.47952C23.7007 2.52621 26.1113 1.30948 28.6346 0.828141C24.4611 0.0322703 19.9798 1.24877 16.7491 4.47952C11.5644 9.6642 11.5644 18.0702 16.7491 23.2549C19.9801 26.4858 24.4621 27.703 28.636 26.9069C26.1121 26.4255 23.701 25.2085 21.7474 23.2549Z" fill="#294B64"/>
<path d="M26.1362 24.1279C31.8029 24.1279 36.3966 19.5342 36.3966 13.8675C36.3966 8.20089 31.8029 3.60716 26.1362 3.60716C20.4696 3.60716 15.8759 8.20089 15.8759 13.8675C15.8759 19.5342 20.4696 24.1279 26.1362 24.1279Z" fill="#EEEBEE"/>
<path d="M20.0643 13.8675C20.0643 8.91855 23.5681 4.78826 28.2304 3.82137C27.5414 3.67864 26.8397 3.60686 26.1361 3.60715C20.4695 3.60715 15.8758 8.20088 15.8758 13.8675C15.8758 19.5342 20.4695 24.1279 26.1361 24.1279C26.8539 24.1279 27.5542 24.0539 28.2304 23.9137C23.5682 22.9468 20.0643 18.8165 20.0643 13.8675Z" fill="#D6D4D6"/>
<path d="M30.7429 12.7076L26.6719 7.01391C26.4092 6.64657 25.8632 6.64657 25.6006 7.01391L21.5294 12.7076C18.8493 16.4558 21.5285 21.6651 26.1362 21.6651C28.7936 21.6651 30.809 19.9322 31.5254 17.7465H31.5255C32.0687 16.088 31.8451 14.2491 30.7429 12.7076Z" fill="#B3E59F"/>
<path d="M24.7659 12.7076L27.7545 8.52809L26.6719 7.01401C26.4092 6.64666 25.8632 6.64666 25.6006 7.01401L21.5294 12.7077C18.8493 16.4559 21.5285 21.6651 26.1362 21.6651C26.7073 21.6651 27.2486 21.5847 27.7539 21.4373C24.183 20.3951 22.4183 15.9909 24.7659 12.7076Z" fill="#95D6A4"/>
<path d="M14.838 27.4482L12.5556 25.1658C12.1852 24.7954 11.579 24.7954 11.2086 25.1658L0.861415 35.513C0.491019 35.8834 0.491019 36.4896 0.861415 36.86L3.14387 39.1423C3.51426 39.5127 4.12044 39.5127 4.49084 39.1423L14.8381 28.7951C15.2084 28.4248 15.2084 27.8186 14.838 27.4482Z" fill="#F87C68"/>
<path d="M4.18177 36.86C3.81138 36.4896 3.81138 35.8834 4.18177 35.513L13.5423 26.1525L12.5556 25.1658C12.1852 24.7954 11.5791 24.7954 11.2087 25.1658L0.861415 35.513C0.491019 35.8834 0.491019 36.4896 0.861415 36.86L3.14379 39.1423C3.51419 39.5127 4.12037 39.5127 4.49076 39.1423L5.47742 38.1557L4.18177 36.86Z" fill="#EC625E"/>
<path d="M34.4519 8.86903C36.2838 8.86903 37.769 7.38393 37.769 5.55196C37.769 3.71998 36.2838 2.23488 34.4519 2.23488C32.6199 2.23488 31.1348 3.71998 31.1348 5.55196C31.1348 7.38393 32.6199 8.86903 34.4519 8.86903Z" fill="#CBE2FF"/>
<path d="M33.3744 5.55194C33.3744 4.11302 34.2908 2.88847 35.5717 2.42909C35.2124 2.30025 34.8335 2.23452 34.4519 2.23479C32.6199 2.23479 31.1348 3.71989 31.1348 5.55186C31.1348 7.38384 32.6199 8.86894 34.4519 8.86894C34.8449 8.86894 35.2218 8.80019 35.5717 8.67464C34.2908 8.21542 33.3744 6.99087 33.3744 5.55194Z" fill="#9DC6FB"/>
<path d="M32.7446 5.01334C32.6347 5.12322 32.573 5.27225 32.573 5.42763C32.573 5.58302 32.6347 5.73205 32.7446 5.84193L33.7604 6.85779C33.8703 6.96764 34.0193 7.02935 34.1747 7.02937C34.3301 7.02938 34.4791 6.9677 34.589 6.85787L36.1979 5.24896C36.307 5.13892 36.368 4.99014 36.3677 4.83519C36.3674 4.68023 36.3057 4.53172 36.1961 4.42214C36.0865 4.31256 35.938 4.25085 35.7831 4.25051C35.6281 4.25016 35.4793 4.31121 35.3693 4.42029L34.1747 5.6149L33.5733 5.01342C33.4634 4.90355 33.3143 4.84182 33.1589 4.84181C33.0035 4.84179 32.8545 4.90349 32.7446 5.01334Z" fill="black"/>
<path d="M38.1209 6.88486C38.278 6.45577 38.3582 6.00233 38.3578 5.54539C38.3578 3.39317 36.6069 1.64229 34.4548 1.64229C33.9978 1.64184 33.5443 1.72203 33.1152 1.87916C30.56 0.390784 27.5442 -0.245553 24.5867 0.0856236C14.07 1.26384 8.68982 13.4216 14.9169 21.9986L12.4946 24.4209C11.9366 24.1807 11.2591 24.2828 10.7971 24.7448L0.449858 35.092C-0.149993 35.6919 -0.149993 36.6679 0.449858 37.2678L2.73223 39.5501C3.33177 40.1498 4.30811 40.1501 4.90789 39.5501L8.97622 35.4818C9.08532 35.3718 9.14638 35.223 9.14605 35.068C9.14572 34.9131 9.08402 34.7646 8.97445 34.655C8.86489 34.5454 8.71638 34.4837 8.56142 34.4833C8.40646 34.483 8.25768 34.544 8.14762 34.6531L4.0792 38.7215C3.93756 38.8633 3.70264 38.8634 3.56092 38.7215L1.27854 36.4391C1.13682 36.2975 1.13682 36.0624 1.27854 35.9208L11.6258 25.5736C11.7562 25.4432 11.9864 25.4159 12.1574 25.5869L14.4265 27.856C14.567 27.9965 14.567 28.2338 14.4265 28.3743L10.0812 32.7196C9.97214 32.8296 9.91108 32.9784 9.91141 33.1334C9.91174 33.2883 9.97344 33.4368 10.083 33.5464C10.1926 33.656 10.3411 33.7177 10.496 33.7181C10.651 33.7184 10.7998 33.6574 10.9098 33.5483L15.2551 29.203C15.7133 28.7448 15.8203 28.0677 15.5787 27.5059L18.0031 25.0815C19.9666 26.5033 22.2858 27.399 24.7122 27.6487C25.0354 27.6816 25.322 27.4477 25.3551 27.1258C25.3882 26.804 25.1542 26.5161 24.8323 26.4829C22.4112 26.2338 20.1064 25.2821 18.213 23.7696C12.2698 19.0045 11.8666 10.187 17.1662 4.88741C21.1062 0.947354 27.0568 0.0517948 31.9345 2.56699C31.4689 2.96238 31.0808 3.4827 30.8374 4.08216C23.6745 0.639616 15.2927 5.86539 15.2927 13.8605C15.2927 19.9171 20.2113 24.7073 26.1392 24.7073C34.1211 24.7073 39.3652 16.3358 35.918 9.1627C36.5307 8.91395 37.0493 8.51761 37.4332 8.06558C41.5611 16.0709 36.2253 25.5795 27.4466 26.4829C27.292 26.4988 27.1501 26.5755 27.0521 26.696C26.954 26.8166 26.9079 26.9712 26.9238 27.1258C26.9397 27.2803 27.0164 27.4223 27.1369 27.5203C27.2575 27.6184 27.412 27.6646 27.5666 27.6487C33.8378 27.0032 39.1665 22.0898 39.9143 15.4134C40.2456 12.4562 39.6093 9.43997 38.1209 6.88486ZM17.0771 24.3501L14.8276 26.5997L13.4003 25.1725L15.6499 22.923C16.0909 23.4322 16.5679 23.9091 17.0771 24.3501ZM37.1858 5.54539C37.1858 7.05338 35.9562 8.27652 34.4547 8.27652C32.9487 8.27652 31.7236 7.05134 31.7236 5.54539C31.7236 4.05927 32.933 2.81418 34.4547 2.81418C35.9607 2.81418 37.1858 4.03935 37.1858 5.54539ZM26.7251 18.607L29.3113 17.0762C29.4438 16.9964 29.5393 16.8675 29.5771 16.7176C29.6149 16.5677 29.5919 16.4089 29.5132 16.2758C29.4344 16.1428 29.3063 16.0463 29.1567 16.0073C29.0071 15.9683 28.8481 15.99 28.7145 16.0677L26.7252 17.2452V15.0699L28.2615 14.1606C28.3939 14.0808 28.4894 13.9519 28.5272 13.802C28.565 13.6521 28.5421 13.4933 28.4633 13.3603C28.3846 13.2272 28.2564 13.1307 28.1068 13.0917C27.9572 13.0527 27.7983 13.0744 27.6646 13.1521L26.7253 13.7082V10.2435C26.7253 9.91982 26.4629 9.65755 26.1393 9.65755C25.8158 9.65755 25.5534 9.91982 25.5534 10.2435V13.7082L24.6141 13.1521C24.4804 13.0744 24.3215 13.0527 24.1719 13.0917C24.0223 13.1307 23.8941 13.2272 23.8154 13.3603C23.7366 13.4933 23.7137 13.6521 23.7515 13.802C23.7893 13.9519 23.8848 14.0808 24.0172 14.1606L25.5535 15.0699V17.2452L23.5642 16.0677C23.4306 15.99 23.2716 15.9683 23.122 16.0073C22.9724 16.0463 22.8443 16.1428 22.7655 16.2758C22.6868 16.4089 22.6638 16.5677 22.7016 16.7176C22.7394 16.8675 22.8349 16.9964 22.9674 17.0762L25.5536 18.607V21.0403C21.798 20.6272 19.7109 16.2584 22.01 13.0429L26.0808 7.34979C26.0875 7.34029 26.0963 7.33254 26.1065 7.32719C26.1168 7.32183 26.1282 7.31904 26.1398 7.31904C26.1514 7.31904 26.1628 7.32183 26.173 7.32719C26.1833 7.33254 26.1921 7.34029 26.1987 7.34979L30.2694 13.043C32.5301 16.2047 30.5464 20.6179 26.7254 21.0402V18.607H26.7251ZM26.7251 23.5127V22.2176C31.4573 21.793 34.0573 16.326 31.2223 12.3613V12.3613L27.1517 6.66821C26.6562 5.97516 25.6229 5.97477 25.1272 6.66821L21.0564 12.3613C18.2464 16.2915 20.7782 21.7736 25.5532 22.2169V23.5127C20.4751 23.2072 16.4646 19.0154 16.4646 13.8607C16.4646 8.4748 20.8278 4.18943 26.1543 4.18943C27.6588 4.18943 29.172 4.53834 30.5627 5.25382C30.5558 5.35089 30.5521 5.44815 30.5516 5.54546C30.5516 7.6976 32.3025 9.44849 34.4546 9.44849C34.5519 9.44804 34.6492 9.44431 34.7463 9.43731C37.9179 15.6024 33.7185 23.0923 26.7251 23.5127Z" fill="black"/>
</g>
<defs>
<clipPath id="clip0_3_43">
<rect width="40" height="40" fill="white"/>
</clipPath>
</defs>
</svg>
