<svg width="60" height="60" viewBox="0 0 60 60" fill="none" xmlns="http://www.w3.org/2000/svg">
<path d="M28.3641 49.3216C28.2098 48.5612 27.8843 47.846 27.4124 47.2302C26.9406 46.6143 26.3346 46.114 25.6406 45.7673L19.6676 43.2173V43.0613C18.2572 43.7207 16.7192 44.0624 15.1623 44.0624C13.6054 44.0624 12.0674 43.7207 10.657 43.0613V43.2173L4.68398 45.7673C3.89904 46.1594 3.22829 46.7471 2.73632 47.4737C2.24434 48.2003 1.94772 49.0412 1.875 49.9157V56.4102H28.4496V49.9157C28.4337 49.716 28.4051 49.5176 28.3641 49.3216Z" fill="#50A6EA"/>
<path d="M8.19961 45.7671L12.8106 43.7984C12.0684 43.6305 11.3464 43.3833 10.657 43.061V43.217L4.68398 45.767C3.89903 46.1592 3.22827 46.7469 2.73629 47.4735C2.24432 48.2001 1.9477 49.0411 1.875 49.9156V56.4101H5.39062V49.9156C5.46334 49.0411 5.75997 48.2001 6.25194 47.4736C6.74392 46.747 7.41467 46.1593 8.19961 45.7671Z" fill="#72BCEF"/>
<path d="M58.1254 8.09131V46.9776C58.1255 47.2855 58.0649 47.5903 57.9472 47.8747C57.8294 48.1591 57.6568 48.4175 57.4391 48.6351C57.2215 48.8528 56.9631 49.0254 56.6787 49.1432C56.3943 49.2609 56.0895 49.3215 55.7816 49.3214H28.3645C28.2101 48.5611 27.8847 47.8458 27.4128 47.23C26.941 46.6142 26.335 46.1139 25.641 45.7671L21.802 44.1288V37.2405L21.8008 37.2394C23.4699 35.4758 24.3986 33.139 24.3953 30.7108V29.5062C24.7243 29.448 25.0379 29.323 25.3167 29.1388C25.5955 28.9546 25.8334 28.7151 26.0159 28.4352C26.1984 28.1553 26.3214 27.8409 26.3775 27.5115C26.4336 27.1821 26.4214 26.8447 26.3418 26.5202C26.2507 26.1434 26.0427 25.8051 25.7476 25.5538C25.4524 25.3024 25.0853 25.1509 24.6988 25.121H24.4691V21.412C24.4721 18.9239 23.517 16.5302 21.802 14.7276V8.09131C21.802 7.46971 22.0489 6.87357 22.4884 6.43403C22.928 5.99449 23.5241 5.74756 24.1457 5.74756H29.9359V7.61904H51.1633V5.74756H55.7816C56.4032 5.74756 56.9994 5.99449 57.4389 6.43403C57.8785 6.87357 58.1254 7.46971 58.1254 8.09131Z" fill="#E5F5FD"/>
<path d="M33.7344 27.1777C37.6176 27.1777 40.7656 24.0297 40.7656 20.1465C40.7656 16.2632 37.6176 13.1152 33.7344 13.1152C29.8511 13.1152 26.7031 16.2632 26.7031 20.1465C26.7031 24.0297 29.8511 27.1777 33.7344 27.1777Z" fill="#49C160"/>
<path d="M29.0473 20.1464C29.0479 18.485 29.6366 16.8775 30.7091 15.6087C31.7816 14.3398 33.2686 13.4916 34.9067 13.2143C33.8982 13.0432 32.8645 13.0942 31.8778 13.3637C30.891 13.6332 29.975 14.1148 29.1935 14.7749C28.412 15.4349 27.784 16.2575 27.3532 17.1852C26.9224 18.113 26.6992 19.1236 26.6992 20.1465C26.6992 21.1694 26.9224 22.18 27.3532 23.1077C27.784 24.0355 28.412 24.8581 29.1935 25.5181C29.975 26.1782 30.891 26.6597 31.8778 26.9293C32.8645 27.1988 33.8982 27.2498 34.9067 27.0787C33.2685 26.8016 31.7813 25.9534 30.7088 24.6845C29.6363 23.4156 29.0477 21.8079 29.0473 20.1464Z" fill="#5AE070"/>
<path d="M24.4691 25.121V25.2289C24.4691 25.2289 16.1711 26.6914 10.607 21.7332C9.4644 21.8293 8.31712 21.8583 7.17109 21.8199L6.91211 26.0703C6.90958 26.1026 6.89911 26.1337 6.88162 26.161C6.86413 26.1883 6.84017 26.2108 6.81186 26.2266C6.78356 26.2424 6.7518 26.2509 6.7194 26.2514C6.687 26.252 6.65498 26.2445 6.62617 26.2296L5.47773 25.6402C5.35647 25.5777 5.25332 25.485 5.17821 25.3711C5.10309 25.2572 5.05854 25.1259 5.04883 24.9898V21.4121C5.04883 18.8368 6.07186 16.367 7.89287 14.5459C9.71387 12.7249 12.1837 11.7019 14.759 11.7019C17.3343 11.7019 19.8041 12.7249 21.6251 14.5459C23.4461 16.367 24.4691 18.8368 24.4691 21.4121V25.121Z" fill="#4A5160"/>
<path d="M10.2367 14.546C11.7723 13.0079 13.7809 12.0314 15.9391 11.7736C15.5475 11.726 15.1534 11.702 14.759 11.7019C12.1837 11.702 9.71396 12.7251 7.89297 14.546C6.07198 16.367 5.04892 18.8368 5.04883 21.4121V24.9898C5.05854 25.1259 5.10309 25.2572 5.17821 25.3711C5.25332 25.485 5.35647 25.5777 5.47773 25.6402L6.62617 26.2296C6.65498 26.2444 6.687 26.2519 6.71939 26.2514C6.75177 26.2508 6.78352 26.2423 6.81182 26.2265C6.84011 26.2107 6.86407 26.1882 6.88157 26.161C6.89906 26.1337 6.90955 26.1026 6.91211 26.0703C6.91211 26.0703 6.40738 18.3749 10.2367 14.546Z" fill="#58606D"/>
<path d="M19.6678 38.9351V43.0612C18.2574 43.7206 16.7194 44.0623 15.1625 44.0623C13.6056 44.0623 12.0676 43.7206 10.6572 43.0612V39.2421C12.0677 39.939 13.6288 40.2757 15.2011 40.2221C16.7734 40.1685 18.308 39.7264 19.6678 38.9351Z" fill="#EFC597"/>
<path d="M13.001 43.0612V40.0416C12.1881 39.879 11.4001 39.6102 10.6572 39.2422V43.0612C12.4277 43.8889 14.3919 44.2129 16.3344 43.9974C15.1795 43.8696 14.0535 43.5534 13.001 43.0612Z" fill="#D8AD82"/>
<path d="M19.6678 38.9351C18.2216 39.7778 16.5787 40.2241 14.905 40.229C13.2312 40.2338 11.5858 39.7972 10.1347 38.963C8.68363 38.1288 7.47825 36.9266 6.6402 35.4778C5.80216 34.0289 5.3611 32.3847 5.36153 30.7109V29.5062C5.03273 29.4476 4.71942 29.3222 4.4409 29.1379C4.16238 28.9535 3.92456 28.7141 3.74209 28.4343C3.55962 28.1546 3.43637 27.8405 3.37992 27.5113C3.32347 27.1821 3.33503 26.8448 3.41388 26.5203C3.50522 26.1434 3.71346 25.8051 4.00878 25.5537C4.30411 25.3024 4.67138 25.1509 5.05802 25.121L5.06856 25.1187C5.09512 25.23 5.14542 25.3342 5.21602 25.4242C5.28661 25.5142 5.37582 25.5879 5.47755 25.6402L6.62599 26.2296C6.65479 26.2445 6.68682 26.252 6.71921 26.2514C6.75161 26.2509 6.78338 26.2424 6.81168 26.2266C6.83998 26.2108 6.86394 26.1883 6.88143 26.161C6.89892 26.1337 6.9094 26.1026 6.91192 26.0703L7.17091 21.8199C8.31693 21.8583 9.46422 21.8293 10.6068 21.7332C16.1709 26.6914 24.469 25.2289 24.469 25.2289V25.121H24.6986C25.0851 25.151 25.4523 25.3025 25.7474 25.5538C26.0425 25.8051 26.2505 26.1435 26.3416 26.5203C26.4212 26.8448 26.4334 27.1822 26.3773 27.5116C26.3213 27.8409 26.1982 28.1553 26.0157 28.4352C25.8332 28.7151 25.5953 28.9546 25.3165 29.1388C25.0378 29.323 24.7242 29.4481 24.3951 29.5062V30.7109C24.3984 33.139 23.4697 35.4759 21.8006 37.2394C21.7385 37.3074 21.6729 37.3742 21.6072 37.4398C21.0278 38.0196 20.3759 38.5222 19.6678 38.9351Z" fill="#FFD8B7"/>
<path d="M13.001 39.2422C11.4107 38.4553 10.0721 37.2394 9.13637 35.7319C8.2006 34.2244 7.70492 32.4853 7.70531 30.711V29.5063C7.3765 29.4476 7.06319 29.3223 6.78467 29.1379C6.50616 28.9536 6.26834 28.7142 6.08586 28.4344C5.90339 28.1547 5.78014 27.8405 5.72369 27.5114C5.66724 27.1822 5.6788 26.8449 5.75765 26.5204C5.80969 26.3061 5.89966 26.1029 6.02331 25.9204L5.47757 25.6406C5.37584 25.5883 5.28663 25.5146 5.21604 25.4246C5.14545 25.3346 5.09515 25.2304 5.06859 25.1191L5.05804 25.1215C4.6714 25.1514 4.30413 25.3028 4.0088 25.5542C3.71348 25.8055 3.50524 26.1438 3.4139 26.5207C3.33437 26.8453 3.32232 27.1827 3.37848 27.5122C3.43464 27.8416 3.55782 28.156 3.74039 28.4359C3.92297 28.7158 4.16105 28.9553 4.43991 29.1394C4.71876 29.3236 5.03245 29.4486 5.36156 29.5066V30.7113C5.36094 31.9613 5.60668 33.1991 6.08472 34.354C6.56277 35.5089 7.26375 36.5583 8.14759 37.4421C9.03143 38.3259 10.0808 39.0269 11.2357 39.505C12.3906 39.983 13.6284 40.2287 14.8784 40.2281C15.2695 40.2278 15.6602 40.2036 16.0484 40.1557C14.9883 40.0254 13.9579 39.7165 13.001 39.2422Z" fill="#E8BC9E"/>
<path d="M29.9355 3.59009H51.1629V7.61899H29.9355V3.59009Z" fill="#475673"/>
<path d="M55.7812 5.04496H51.8654V3.58984C51.8654 3.40336 51.7914 3.22452 51.6595 3.09266C51.5276 2.9608 51.3488 2.88672 51.1623 2.88672H29.9359C29.7494 2.88672 29.5706 2.9608 29.4387 3.09266C29.3069 3.22452 29.2328 3.40336 29.2328 3.58984V5.04496H24.1451C23.3373 5.0458 22.5628 5.36708 21.9915 5.93829C21.4203 6.50951 21.099 7.28401 21.0982 8.09184V13.1581C19.5574 11.9728 17.7154 11.2428 15.781 11.0507C13.8465 10.8586 11.8969 11.2122 10.1531 12.0714C8.40935 12.9306 6.94106 14.261 5.91463 15.9118C4.88821 17.5627 4.34469 19.4681 4.34566 21.4121V24.5636C3.94821 24.7028 3.59209 24.9395 3.30997 25.2522C3.02786 25.5648 2.8288 25.9433 2.73105 26.3529C2.54919 27.0966 2.64453 27.881 2.99925 28.5594C3.35396 29.2378 3.94374 29.7637 4.6582 30.0387V30.7111C4.65945 32.5408 5.15148 34.3366 6.08301 35.9113C7.01455 37.4861 8.35146 38.7821 9.95438 39.6643V42.7532L4.40754 45.1204C4.39453 45.126 4.38176 45.1321 4.36922 45.1382C3.47857 45.5872 2.71751 46.2564 2.15833 47.0823C1.59915 47.9082 1.26042 48.8634 1.17434 49.8571C1.17269 49.8766 1.17187 49.8961 1.17188 49.9157V56.4103C1.17188 56.5968 1.24595 56.7757 1.37782 56.9075C1.50968 57.0394 1.68852 57.1135 1.875 57.1135H28.4495C28.636 57.1135 28.8148 57.0394 28.9467 56.9075C29.0785 56.7757 29.1526 56.5968 29.1526 56.4103V50.0247H55.7812C56.5891 50.0238 57.3635 49.7025 57.9348 49.1313C58.506 48.5601 58.8273 47.7856 58.8281 46.9778V8.0916C58.8272 7.28383 58.5059 6.50941 57.9347 5.93825C57.3635 5.36709 56.589 5.04583 55.7812 5.04496ZM30.639 4.29297H50.4592V6.91621H30.639V4.29297ZM5.75191 21.4121C5.75191 19.0234 6.70082 16.7325 8.38987 15.0435C10.0789 13.3544 12.3698 12.4055 14.7585 12.4055C17.1472 12.4055 19.438 13.3544 21.1271 15.0435C22.8161 16.7325 23.765 19.0234 23.765 21.4121V24.6132C22.0227 24.8015 16.7039 25.0857 12.433 22.2537C15.3676 21.8625 18.9449 20.9616 21.598 18.9269C21.6734 18.8715 21.737 18.8016 21.785 18.7213C21.8331 18.6411 21.8646 18.552 21.8778 18.4594C21.891 18.3668 21.8856 18.2725 21.8619 18.182C21.8382 18.0915 21.7966 18.0066 21.7397 17.9324C21.6828 17.8582 21.6116 17.796 21.5304 17.7496C21.4491 17.7033 21.3595 17.6735 21.2666 17.6622C21.1737 17.651 21.0796 17.6583 20.9896 17.6839C20.8996 17.7094 20.8156 17.7527 20.7425 17.8111C15.9159 21.513 7.2934 21.1225 7.20738 21.1179C7.02231 21.1086 6.841 21.1725 6.70279 21.296C6.56458 21.4194 6.48062 21.5924 6.4691 21.7773L6.25816 25.25L5.79937 25.0144C5.78753 25.0084 5.77718 24.9998 5.76907 24.9893C5.76096 24.9788 5.7553 24.9666 5.7525 24.9536L5.75191 21.4121ZM6.06445 30.7111V29.5063C6.06448 29.3409 6.00615 29.1807 5.89973 29.054C5.7933 28.9273 5.6456 28.8422 5.48262 28.8136C5.24847 28.772 5.02534 28.6828 4.82701 28.5516C4.62868 28.4204 4.45935 28.2499 4.32949 28.0506C4.19963 27.8514 4.11199 27.6276 4.07198 27.3932C4.03197 27.1588 4.04044 26.9186 4.09687 26.6876C4.13462 26.5207 4.21093 26.365 4.31968 26.233C4.42843 26.1009 4.5666 25.9961 4.72313 25.9271C4.84531 26.0659 4.99237 26.1807 5.15672 26.2655L6.30516 26.8551C6.43689 26.9228 6.5833 26.9569 6.73139 26.9544C6.87948 26.9519 7.02466 26.9129 7.15405 26.8408C7.28344 26.7687 7.39303 26.6658 7.47308 26.5412C7.55314 26.4166 7.60119 26.2742 7.61297 26.1265C7.61297 26.1221 7.61367 26.1177 7.61391 26.1133L7.83152 22.5408C8.40574 22.5462 9.29379 22.5368 10.3733 22.4616C16.1161 27.3469 24.2433 25.9829 24.5909 25.9218C24.6637 25.9084 24.7339 25.8835 24.799 25.8481C25.0077 25.8911 25.1997 25.993 25.3522 26.1418C25.5047 26.2906 25.6114 26.48 25.6595 26.6876C25.716 26.9186 25.7245 27.1588 25.6846 27.3932C25.6446 27.6277 25.557 27.8515 25.4271 28.0507C25.2972 28.25 25.1279 28.4205 24.9295 28.5517C24.7312 28.6829 24.508 28.7721 24.2739 28.8136C24.1109 28.8422 23.9632 28.9273 23.8568 29.054C23.7503 29.1807 23.692 29.3409 23.692 29.5063V30.7111C23.6835 33.043 22.7512 35.2766 21.0993 36.9225C19.4474 38.5684 17.2105 39.4925 14.8785 39.4925C12.5466 39.4925 10.3097 38.5684 8.65778 36.9225C7.00585 35.2766 6.07354 33.043 6.06504 30.7111H6.06445ZM21.0986 38.8135V43.0637L20.3701 42.753V39.3262C20.6207 39.1659 20.8635 38.995 21.0986 38.8135ZM18.9639 40.078V42.6025C16.5281 43.6027 13.7964 43.6027 11.3606 42.6025V40.307C13.8301 41.2121 16.5534 41.1301 18.9639 40.078ZM27.7464 55.7075H2.57812V49.9452C2.64766 49.2005 2.90436 48.4854 3.32438 47.8664C3.74439 47.2475 4.31407 46.7447 4.98047 46.405L10.8356 43.9061C13.6085 45.0428 16.7172 45.0428 19.49 43.9061L25.3453 46.4051C26.0115 46.745 26.5809 47.2477 27.0007 47.8667C27.4205 48.4856 27.677 49.2006 27.7464 49.9452V55.7075ZM57.4219 46.978C57.4215 47.413 57.2485 47.8301 56.9409 48.1377C56.6333 48.4453 56.2162 48.6183 55.7812 48.6187H28.9045C28.671 47.8706 28.2896 47.1771 27.783 46.5793C27.2763 45.9814 26.6548 45.4914 25.9553 45.1382C25.9427 45.1318 25.93 45.1265 25.917 45.1204L22.5048 43.664V37.506C24.1764 35.6377 25.0997 33.2181 25.0977 30.7111V30.0387C25.8121 29.7638 26.4019 29.2379 26.7566 28.5595C27.1113 27.8812 27.2067 27.0968 27.0248 26.3532C26.9173 25.9021 26.6873 25.4894 26.3603 25.1607C26.0332 24.8319 25.6218 24.5998 25.1713 24.4899V21.4121C25.1734 18.8448 24.2233 16.3681 22.5048 14.4609V8.0916C22.5052 7.6566 22.6782 7.23954 22.9858 6.93195C23.2934 6.62436 23.7104 6.45138 24.1454 6.45098H29.2331V7.6191C29.2331 7.80558 29.3072 7.98442 29.4391 8.11629C29.5709 8.24815 29.7498 8.32223 29.9362 8.32223H51.1623C51.3488 8.32223 51.5276 8.24815 51.6595 8.11629C51.7914 7.98442 51.8654 7.80558 51.8654 7.6191V6.45121H55.7812C56.2162 6.45161 56.6333 6.6246 56.9409 6.93218C57.2485 7.23977 57.4215 7.65684 57.4219 8.09184V46.978Z" fill="#284268"/>
<path d="M52.3341 25.9787H47.1935C47.007 25.9787 46.8282 26.0528 46.6963 26.1846C46.5645 26.3165 46.4904 26.4953 46.4904 26.6818C46.4904 26.8683 46.5645 27.0471 46.6963 27.179C46.8282 27.3109 47.007 27.3849 47.1935 27.3849H52.3341C52.5205 27.3849 52.6994 27.3109 52.8312 27.179C52.9631 27.0471 53.0372 26.8683 53.0372 26.6818C53.0372 26.4953 52.9631 26.3165 52.8312 26.1846C52.6994 26.0528 52.5205 25.9787 52.3341 25.9787ZM42.4403 27.3849H44.1647C44.3512 27.3849 44.53 27.3109 44.6619 27.179C44.7937 27.0471 44.8678 26.8683 44.8678 26.6818C44.8678 26.4953 44.7937 26.3165 44.6619 26.1846C44.53 26.0528 44.3512 25.9787 44.1647 25.9787H42.4403C42.2538 25.9787 42.075 26.0528 41.9431 26.1846C41.8112 26.3165 41.7371 26.4953 41.7371 26.6818C41.7371 26.8683 41.8112 27.0471 41.9431 27.179C42.075 27.3109 42.2538 27.3849 42.4403 27.3849ZM52.3341 33.5837H50.5886C50.4021 33.5837 50.2232 33.6578 50.0914 33.7896C49.9595 33.9215 49.8854 34.1003 49.8854 34.2868C49.8854 34.4733 49.9595 34.6521 50.0914 34.784C50.2232 34.9159 50.4021 34.9899 50.5886 34.9899H52.3341C52.5205 34.9899 52.6994 34.9159 52.8312 34.784C52.9631 34.6521 53.0372 34.4733 53.0372 34.2868C53.0372 34.1003 52.9631 33.9215 52.8312 33.7896C52.6994 33.6578 52.5205 33.5837 52.3341 33.5837ZM48.1567 34.9899C48.3432 34.9899 48.522 34.9159 48.6539 34.784C48.7857 34.6521 48.8598 34.4733 48.8598 34.2868C48.8598 34.1003 48.7857 33.9215 48.6539 33.7896C48.522 33.6578 48.3432 33.5837 48.1567 33.5837H38.8451C38.6586 33.5837 38.4798 33.6578 38.3479 33.7896C38.216 33.9215 38.142 34.1003 38.142 34.2868C38.142 34.4733 38.216 34.6521 38.3479 34.784C38.4798 34.9159 38.6586 34.9899 38.8451 34.9899H48.1567ZM36.3793 33.5837H35.7511C35.5646 33.5837 35.3858 33.6578 35.2539 33.7896C35.122 33.9215 35.048 34.1003 35.048 34.2868C35.048 34.4733 35.122 34.6521 35.2539 34.784C35.3858 34.9159 35.5646 34.9899 35.7511 34.9899H36.3793C36.5658 34.9899 36.7447 34.9159 36.8765 34.784C37.0084 34.6521 37.0825 34.4733 37.0825 34.2868C37.0825 34.1003 37.0084 33.9215 36.8765 33.7896C36.7447 33.6578 36.5658 33.5837 36.3793 33.5837ZM28.7358 33.5837C28.5493 33.5837 28.3705 33.6578 28.2386 33.7896C28.1067 33.9215 28.0327 34.1003 28.0327 34.2868C28.0327 34.4733 28.1067 34.6521 28.2386 34.784C28.3705 34.9159 28.5493 34.9899 28.7358 34.9899H32.7223C32.9087 34.9899 33.0876 34.9159 33.2194 34.784C33.3513 34.6521 33.4254 34.4733 33.4254 34.2868C33.4254 34.1003 33.3513 33.9215 33.2194 33.7896C33.0876 33.6578 32.9087 33.5837 32.7223 33.5837H28.7358ZM52.3341 40.6127H48.3104C48.1239 40.6127 47.9451 40.6868 47.8132 40.8187C47.6814 40.9505 47.6073 41.1294 47.6073 41.3158C47.6073 41.5023 47.6814 41.6812 47.8132 41.813C47.9451 41.9449 48.1239 42.019 48.3104 42.019H52.3341C52.5205 42.019 52.6994 41.9449 52.8312 41.813C52.9631 41.6812 53.0372 41.5023 53.0372 41.3158C53.0372 41.1294 52.9631 40.9505 52.8312 40.8187C52.6994 40.6868 52.5205 40.6127 52.3341 40.6127ZM45.7868 40.6127H45.2812C45.0948 40.6127 44.9159 40.6868 44.7841 40.8187C44.6522 40.9505 44.5781 41.1294 44.5781 41.3158C44.5781 41.5023 44.6522 41.6812 44.7841 41.813C44.9159 41.9449 45.0948 42.019 45.2812 42.019H45.7864C45.9729 42.019 46.1518 41.9449 46.2836 41.813C46.4155 41.6812 46.4896 41.5023 46.4896 41.3158C46.4896 41.1294 46.4155 40.9505 46.2836 40.8187C46.1518 40.6868 45.9729 40.6127 45.7864 40.6127H45.7868ZM43.3024 40.6127H39.4805C39.294 40.6127 39.1151 40.6868 38.9833 40.8187C38.8514 40.9505 38.7773 41.1294 38.7773 41.3158C38.7773 41.5023 38.8514 41.6812 38.9833 41.813C39.1151 41.9449 39.294 42.019 39.4805 42.019H43.3025C43.489 42.019 43.6679 41.9449 43.7997 41.813C43.9316 41.6812 44.0057 41.5023 44.0057 41.3158C44.0057 41.1294 43.9316 40.9505 43.7997 40.8187C43.6679 40.6868 43.489 40.6127 43.3025 40.6127H43.3024ZM36.3793 40.6127H28.7358C28.5493 40.6127 28.3705 40.6868 28.2386 40.8187C28.1067 40.9505 28.0327 41.1294 28.0327 41.3158C28.0327 41.5023 28.1067 41.6812 28.2386 41.813C28.3705 41.9449 28.5493 42.019 28.7358 42.019H36.3793C36.5658 42.019 36.7447 41.9449 36.8765 41.813C37.0084 41.6812 37.0825 41.5023 37.0825 41.3158C37.0825 41.1294 37.0084 40.9505 36.8765 40.8187C36.7447 40.6868 36.5658 40.6127 36.3793 40.6127ZM52.3341 19.992H51.8803C51.6938 19.992 51.515 20.0661 51.3831 20.198C51.2513 20.3298 51.1772 20.5087 51.1772 20.6952C51.1772 20.8817 51.2513 21.0605 51.3831 21.1924C51.515 21.3242 51.6938 21.3983 51.8803 21.3983H52.3341C52.5205 21.3983 52.6994 21.3242 52.8312 21.1924C52.9631 21.0605 53.0372 20.8817 53.0372 20.6952C53.0372 20.5087 52.9631 20.3298 52.8312 20.198C52.6994 20.0661 52.5205 19.992 52.3341 19.992ZM43.8679 21.3983H48.8516C49.0381 21.3983 49.2169 21.3242 49.3488 21.1924C49.4806 21.0605 49.5547 20.8817 49.5547 20.6952C49.5547 20.5087 49.4806 20.3298 49.3488 20.198C49.2169 20.0661 49.0381 19.992 48.8516 19.992H43.8679C43.6814 19.992 43.5025 20.0661 43.3707 20.198C43.2388 20.3298 43.1647 20.5087 43.1647 20.6952C43.1647 20.8817 43.2388 21.0605 43.3707 21.1924C43.5025 21.3242 43.6814 21.3983 43.8679 21.3983ZM52.3341 14.1327H47.3106C47.1241 14.1327 46.9453 14.2067 46.8134 14.3386C46.6815 14.4705 46.6075 14.6493 46.6075 14.8358C46.6075 15.0223 46.6815 15.2011 46.8134 15.333C46.9453 15.4648 47.1241 15.5389 47.3106 15.5389H52.3341C52.5205 15.5389 52.6994 15.4648 52.8312 15.333C52.9631 15.2011 53.0372 15.0223 53.0372 14.8358C53.0372 14.6493 52.9631 14.4705 52.8312 14.3386C52.6994 14.2067 52.5205 14.1327 52.3341 14.1327ZM43.8679 15.5389H44.2819C44.4684 15.5389 44.6472 15.4648 44.7791 15.333C44.9109 15.2011 44.985 15.0223 44.985 14.8358C44.985 14.6493 44.9109 14.4705 44.7791 14.3386C44.6472 14.2067 44.4684 14.1327 44.2819 14.1327H43.8679C43.6814 14.1327 43.5025 14.2067 43.3707 14.3386C43.2388 14.4705 43.1647 14.6493 43.1647 14.8358C43.1647 15.0223 43.2388 15.2011 43.3707 15.333C43.5025 15.4648 43.6814 15.5389 43.8679 15.5389ZM33.7354 27.8811C35.2651 27.8811 36.7604 27.4275 38.0323 26.5776C39.3043 25.7278 40.2956 24.5198 40.881 23.1065C41.4664 21.6933 41.6195 20.1382 41.3211 18.6378C41.0227 17.1375 40.2861 15.7594 39.2044 14.6777C38.1227 13.596 36.7446 12.8594 35.2443 12.561C33.7439 12.2625 32.1888 12.4157 30.7755 13.0011C29.3623 13.5865 28.1543 14.5778 27.3045 15.8497C26.4546 17.1217 26.001 18.617 26.001 20.1467C26.0033 22.1973 26.8189 24.1632 28.2689 25.6132C29.7189 27.0632 31.6848 27.8788 33.7354 27.8811ZM33.7354 13.8186C34.9869 13.8186 36.2104 14.1897 37.2511 14.8851C38.2917 15.5804 39.1028 16.5687 39.5818 17.7251C40.0607 18.8814 40.1861 20.1538 39.9419 21.3813C39.6977 22.6088 39.095 23.7364 38.21 24.6214C37.325 25.5064 36.1974 26.1091 34.9699 26.3533C33.7424 26.5974 32.47 26.4721 31.3137 25.9932C30.1574 25.5142 29.1691 24.7031 28.4737 23.6625C27.7784 22.6218 27.4072 21.3983 27.4072 20.1467C27.4091 18.469 28.0765 16.8605 29.2628 15.6742C30.4492 14.4879 32.0576 13.8205 33.7354 13.8186Z" fill="#284268"/>
<path d="M31.6722 23.2122C31.804 23.3441 31.9829 23.4181 32.1693 23.4181C32.3558 23.4181 32.5346 23.3441 32.6665 23.2122L37.8031 18.0756C37.9331 17.9434 38.0057 17.7651 38.005 17.5797C38.0042 17.3942 37.9302 17.2165 37.799 17.0853C37.6679 16.9542 37.4902 16.8802 37.3047 16.8794C37.1192 16.8786 36.9409 16.9512 36.8087 17.0813L32.1694 21.7206L30.6621 20.2135C30.5972 20.1467 30.5196 20.0936 30.4339 20.057C30.3482 20.0205 30.2562 20.0014 30.163 20.0007C30.0699 20.0001 29.9775 20.018 29.8914 20.0533C29.8052 20.0887 29.7269 20.1408 29.661 20.2066C29.5952 20.2725 29.5431 20.3508 29.5077 20.4369C29.4724 20.5231 29.4545 20.6154 29.4551 20.7086C29.4557 20.8017 29.4748 20.8938 29.5114 20.9795C29.5479 21.0652 29.601 21.1427 29.6678 21.2077L31.6722 23.2122Z" fill="#284268"/>
</svg>
