<svg xmlns="http://www.w3.org/2000/svg" width="60" height="60" fill="none" xmlns:v="https://vecta.io/nano"><g clip-path="url(#A)"><path d="M57.798 52.827c1.373 1.372 1.373 3.599 0 4.971-.687.687-1.586 1.03-2.486 1.03s-1.799-.343-2.486-1.03L41.51 46.481a29.6 29.6 0 0 0 4.971-4.971l11.317 11.317z" fill="#4dbbeb"/><path d="M41.464 36.493l5.017 5.017c-1.454 1.849-3.122 3.517-4.971 4.971l-5.017-5.017v-.001c1.908-1.385 3.585-3.062 4.97-4.97h.001z" fill="#fff5cd"/><path d="M45.703 23.438c0 4.873-1.574 9.386-4.24 13.056a22.42 22.42 0 0 1-4.97 4.97c-3.67 2.666-8.183 4.24-13.056 4.24-12.278 0-22.266-9.988-22.266-22.266S11.16 1.172 23.438 1.172s22.266 9.988 22.266 22.266z" fill="#4dbbeb"/><path d="M23.438 5.859c9.693 0 17.578 7.886 17.578 17.578S33.13 41.016 23.438 41.016 5.859 33.13 5.859 23.438 13.745 5.859 23.438 5.859z" fill="#bee7f4"/><g fill="#000"><path d="M58.627 51.998L42.985 36.356c2.548-3.838 3.891-8.283 3.891-12.919C46.875 10.514 36.361 0 23.438 0S0 10.514 0 23.438s10.514 23.438 23.438 23.438a23.23 23.23 0 0 0 12.919-3.89l4.324 4.324.002.002L52 58.629c.886.886 2.063 1.373 3.314 1.373A4.66 4.66 0 0 0 60 55.313c0-1.252-.488-2.429-1.373-3.314zM38.264 41.577a23.59 23.59 0 0 0 3.314-3.314l3.325 3.325c-1.011 1.194-2.12 2.302-3.314 3.314l-3.325-3.325zm-35.92-18.14c0-11.631 9.463-21.094 21.094-21.094s21.094 9.463 21.094 21.094a20.91 20.91 0 0 1-4.016 12.367 21.2 21.2 0 0 1-4.71 4.71h0a20.91 20.91 0 0 1-12.367 4.016c-11.631 0-21.094-9.463-21.094-21.094zM56.97 56.969a2.33 2.33 0 0 1-3.314 0L43.25 46.564a30.77 30.77 0 0 0 3.314-3.314L56.97 53.656c.443.442.687 1.03.687 1.656s-.244 1.214-.687 1.657zM42.188 23.438c0-10.339-8.411-18.75-18.75-18.75s-18.75 8.411-18.75 18.75 8.411 18.75 18.75 18.75 18.75-8.411 18.75-18.75zm-18.75 16.406c-9.046 0-16.406-7.36-16.406-16.406s7.36-16.406 16.406-16.406 16.406 7.36 16.406 16.406-7.36 16.406-16.406 16.406zm12.459-19.923a1.17 1.17 0 0 0 .674-1.514c-1.009-2.626-2.766-4.872-5.081-6.494a13.96 13.96 0 0 0-8.051-2.538 1.172 1.172 0 1 0 0 2.344c4.816 0 9.215 3.026 10.945 7.529.085.221.235.412.43.546s.427.206.664.206a1.17 1.17 0 0 0 .42-.078zm.432 2.344c-.647 0-1.172.525-1.172 1.172s.525 1.172 1.172 1.172 1.172-.525 1.172-1.172-.525-1.172-1.172-1.172z"/></g></g><defs><clipPath id="A"><path fill="#fff" d="M0 0h60v60H0z"/></clipPath></defs></svg>