<svg xmlns="http://www.w3.org/2000/svg" width="60" height="60" fill="none" xmlns:v="https://vecta.io/nano"><g clip-path="url(#A)"><path d="M57.096 4.839H18.387a1.94 1.94 0 0 0-1.935 1.935v3.91c2.284.145 4.413.823 6.281 1.897h36.299V6.774a1.94 1.94 0 0 0-1.935-1.935z" fill="#b4dd7f"/><path d="M25.741 14.903l-3.01-2.323h36.3v23.225a1.94 1.94 0 0 1-1.936 1.935H29.999V33.87H55.16V16.451H27.096c-.416-.552-.871-1.065-1.355-1.548z" fill="#ffeaa7"/><path d="M55.161 16.451v17.419H30v-8.709a14.45 14.45 0 0 0-2.903-8.71h28.064z" fill="#e6e9ed"/><path d="M55.16 4.839v2.903a.97.97 0 0 1-.968.968h-1.936a.97.97 0 0 1-.968-.968V1.936a.97.97 0 0 1 .968-.968h1.936a.97.97 0 0 1 .968.968v2.903zm-7.742 0v2.903a.97.97 0 0 1-.968.968h-1.935a.97.97 0 0 1-.968-.968V1.936a.97.97 0 0 1 .968-.968h1.935a.97.97 0 0 1 .968.968v2.903zm-7.742 0v2.903a.97.97 0 0 1-.968.968h-1.935a.97.97 0 0 1-.968-.968V1.936a.97.97 0 0 1 .968-.968h1.935a.97.97 0 0 1 .968.968v2.903zm-7.742 0v2.903a.97.97 0 0 1-.968.968h-1.936a.97.97 0 0 1-.968-.968V1.936a.97.97 0 0 1 .968-.968h1.936a.97.97 0 0 1 .968.968v2.903zm-7.742 0v2.903a.97.97 0 0 1-.968.968H21.29a.97.97 0 0 1-.968-.968V1.936a.97.97 0 0 1 .968-.968h1.935a.97.97 0 0 1 .968.968v2.903z" fill="#ffeaa7"/><path d="M42.745 57.899c-.724-.728-1.13-1.712-1.132-2.739a3.87 3.87 0 0 1 3.871-3.871h9.677v7.742h-9.677c-1.064 0-2.032-.435-2.739-1.132z" fill="#e6e9ed"/><path d="M45.483 51.289v-7.742h9.677c1.065 0 2.032.435 2.739 1.132.697.706 1.132 1.674 1.132 2.739a3.87 3.87 0 0 1-3.871 3.871h-9.677z" fill="#f0d0b4"/><g fill="#4fc1e9"><path d="M18.774 44.544c2.7 1.161 4.452 3.813 4.452 6.745h-5.806v-3.871c0-1.065-.436-2.032-1.132-2.739-.728-.724-1.712-1.13-2.739-1.132h1.393c.997 0 1.984.203 2.894.59l.939.407z"/><path d="M17.42 51.289h5.806a1.94 1.94 0 0 1 1.936 1.935v3.871c0 .513-.204 1.006-.567 1.369s-.855.567-1.369.567h-7.742c-3.203 0-5.806-2.603-5.806-5.806v-5.806a3.87 3.87 0 0 1 3.871-3.871c1.064 0 2.032.435 2.739 1.132.697.706 1.132 1.674 1.132 2.739v3.871z"/></g><path d="M37.742 43.548V55.16h-6.774v-1.935a1.94 1.94 0 0 0-1.935-1.935h-.968v-7.742H30h7.742z" fill="#e6e9ed"/><path d="M22.732 12.581l3.01 2.323a14.79 14.79 0 0 1 1.355 1.548A14.45 14.45 0 0 1 30 25.161v18.387h-1.936v7.742h-.735c-.36 0-.713.101-1.019.291s-.553.461-.713.784l-.435.861a1.94 1.94 0 0 0-1.935-1.936c0-2.932-1.752-5.584-4.452-6.745l-.939-.407c-.915-.389-1.899-.59-2.893-.59h3.445a7.74 7.74 0 0 0 7.742-7.742V24.193H14.419a5.7 5.7 0 0 1-4.897-2.777l-1.587.61c-1.868.726-3.097 2.516-3.097 4.519v9.261a7.74 7.74 0 0 0 7.742 7.742h.968a3.87 3.87 0 0 0-3.871 3.871v5.806H8.71a7.74 7.74 0 0 1-7.742-7.742V25.161c0-8.013 6.503-14.516 14.516-14.516l.968.039c2.284.145 4.413.823 6.281 1.897z" fill="#656d78"/><path d="M30.968 53.225v1.936c0 .513-.204 1.006-.567 1.369s-.855.567-1.369.567h-3.871v-3.871l.435-.861c.16-.322.407-.594.713-.784s.659-.29 1.019-.291h1.703a1.94 1.94 0 0 1 1.936 1.935zM4.839 35.806v-9.261c0-2.003 1.229-3.793 3.097-4.519l1.587-.61a5.7 5.7 0 0 0 4.897 2.777h11.709v11.613a7.74 7.74 0 0 1-7.742 7.742h-5.806a7.74 7.74 0 0 1-7.742-7.742z" fill="#f0d0b4"/><path d="M11.612 35.806h7.742c0 1.064-.435 2.032-1.132 2.739-.707.697-1.674 1.132-2.739 1.132a3.87 3.87 0 0 1-3.871-3.871z" fill="#ef7385"/><g fill="#000"><path d="M10.645 35.806c0 2.668 2.171 4.839 4.839 4.839s4.839-2.171 4.839-4.839v-.968h-9.677v.968zm7.576.968a2.91 2.91 0 0 1-5.475 0h5.475zM8.71 30.967a1.94 1.94 0 0 1 1.935-1.935 1.94 1.94 0 0 1 1.935 1.935h1.935c0-2.135-1.736-3.871-3.871-3.871s-3.871 1.736-3.871 3.871H8.71zm11.613-1.935a1.94 1.94 0 0 1 1.935 1.935h1.936c0-2.135-1.736-3.871-3.871-3.871s-3.871 1.736-3.871 3.871h1.935a1.94 1.94 0 0 1 1.936-1.935zM57.096 3.871h-.968V1.935A1.94 1.94 0 0 0 54.193 0h-1.936a1.94 1.94 0 0 0-1.935 1.935V3.87h-1.936V1.935A1.94 1.94 0 0 0 46.451 0h-1.935a1.94 1.94 0 0 0-1.935 1.935V3.87h-1.935V1.935A1.94 1.94 0 0 0 38.709 0h-1.935a1.94 1.94 0 0 0-1.936 1.935V3.87h-1.935V1.935A1.94 1.94 0 0 0 30.967 0h-1.935a1.94 1.94 0 0 0-1.936 1.935V3.87h-1.935V1.935A1.94 1.94 0 0 0 23.225 0H21.29a1.94 1.94 0 0 0-1.935 1.935V3.87h-.968a2.91 2.91 0 0 0-2.903 2.903v2.903C6.946 9.677 0 16.624 0 25.161v20.322c0 4.803 3.908 8.71 8.71 8.71h.077A6.78 6.78 0 0 0 15.484 60h7.742a2.9 2.9 0 0 0 2.725-1.935h3.081a2.9 2.9 0 0 0 2.725-1.936h6.952V42.58h-7.742v-3.871h26.129a2.91 2.91 0 0 0 2.903-2.903V6.774a2.91 2.91 0 0 0-2.903-2.903zm-4.839-1.935h1.936l.001 5.806h-1.936V1.935zm-7.742 0h1.935l.001 5.806h-1.936V1.935zm-7.742 0h1.935l.001 5.806h-1.936V1.935zm-7.742 0h1.935l.001 5.806h-1.936V1.935zm-7.742 0h1.935l.001 5.806H21.29V1.935zm-3.871 4.839a.97.97 0 0 1 .968-.968h.968v1.935a1.94 1.94 0 0 0 1.935 1.935h1.935a1.94 1.94 0 0 0 1.936-1.935V5.806h1.935v1.935a1.94 1.94 0 0 0 1.936 1.935h1.935a1.94 1.94 0 0 0 1.936-1.935V5.806h1.935v1.935a1.94 1.94 0 0 0 1.936 1.935h1.935a1.94 1.94 0 0 0 1.935-1.935V5.806h1.935v1.935a1.94 1.94 0 0 0 1.935 1.935h1.935a1.94 1.94 0 0 0 1.935-1.935V5.806h1.936v1.935a1.94 1.94 0 0 0 1.935 1.935h1.936a1.94 1.94 0 0 0 1.935-1.935V5.806h.968a.97.97 0 0 1 .968.968v4.839h-35.1a15.37 15.37 0 0 0-5.544-1.801V6.774zm6.774 50.323a.97.97 0 0 1-.968.968h-7.742c-2.668 0-4.839-2.171-4.839-4.839V47.42a2.91 2.91 0 0 1 2.903-2.903v.002h.019a2.88 2.88 0 0 1 2.884 2.901V51l-1.772 2.659 1.61 1.073 1.647-2.472h5.289a.97.97 0 0 1 .968.968v3.871zM9.165 22.59a6.67 6.67 0 0 0 2.331 1.893 6.65 6.65 0 0 0 2.925.678h10.74v10.645c0 3.734-3.04 6.774-6.774 6.774H12.58c-3.735 0-6.774-3.04-6.774-6.775v-9.262c.003-.781.241-1.542.682-2.186s1.066-1.14 1.793-1.424l.884-.343zm8.652 22.597l.578.248a6.36 6.36 0 0 1 2.527 1.954c.662.855 1.096 1.866 1.259 2.935h-3.796l.002-2.905c0-.793-.211-1.547-.569-2.232zM30 55.161a.97.97 0 0 1-.968.968h-2.903v-2.674l.331-.662a.96.96 0 0 1 .865-.536h.74l.967.001a.97.97 0 0 1 .968.967v1.937zm6.774-.969h-4.839v-.967a2.87 2.87 0 0 0-.178-.968l3.081-.001v-1.935l-5.806.002v-5.808h7.742v9.677zM27.096 42.58v7.758a2.87 2.87 0 0 0-1.819.836c-.322-.316-.714-.552-1.143-.691a8.28 8.28 0 0 0-3.794-6.197c3.863-.889 6.756-4.35 6.757-8.48V24.193a6.66 6.66 0 0 0-5.582-6.589l-1.033-.172-.318 1.909 1.033.172a4.73 4.73 0 0 1 3.866 3.712H14.421a4.75 4.75 0 0 1-4.744-4.744v-.095l-1.935.095c0 .85.165 1.66.456 2.408l-.615.237a5.85 5.85 0 0 0-2.689 2.137 5.84 5.84 0 0 0-1.023 3.279v9.262c0 3.912 2.593 7.229 6.15 8.325a4.8 4.8 0 0 0-1.311 3.288v4.839c-3.735 0-6.774-3.04-6.774-6.774V25.161c0-7.471 6.077-13.548 13.548-13.548s13.548 6.077 13.548 13.548V42.58h-1.936zm7.742-15.484h-3.871v-1.935c0-.657-.054-1.3-.134-1.936h4.005v3.871zm1.936-3.871h7.742v3.871h-7.742v-3.871zm-5.806 5.806h3.871v3.871h-3.871v-3.871zm5.806 0h7.742v3.871h-7.742v-3.871zm9.677 0h7.742v3.871h-7.742v-3.871zm7.742-1.936h-7.742v-3.871h7.742v3.871zm0-5.806h-7.742v-3.871h7.742v3.871zm-9.677 0h-7.742v-3.871h7.742v3.871zm-9.677 0h-4.381a15.37 15.37 0 0 0-1.585-3.871h5.966v3.871zm22.258 15.484h-26.13v-1.936h25.161V15.484H27.551a15.54 15.54 0 0 0-1.861-1.935h32.373v22.258a.97.97 0 0 1-.968.968zm-26.13 9.678h3.871v1.935h-3.871v-1.935zM55.16 42.58H44.515v7.84a4.85 4.85 0 0 0-3.871 4.741c0 2.668 2.171 4.839 4.839 4.839h10.645v-7.84a4.85 4.85 0 0 0 3.871-4.741c0-2.668-2.171-4.839-4.839-4.839zm-.968 15.484h-8.709a2.91 2.91 0 0 1-2.903-2.903 2.91 2.91 0 0 1 2.903-2.903h8.709v5.806zm.968-7.742h-8.71v-5.806h8.71a2.91 2.91 0 0 1 2.903 2.903 2.91 2.91 0 0 1-2.903 2.903zm-10.644 3.871h7.742v1.935h-7.742v-1.935zm3.871-7.742h7.742v1.936h-7.742v-1.936z"/></g></g><defs><clipPath id="A"><path fill="#fff" d="M0 0h60v60H0z"/></clipPath></defs></svg>