<svg xmlns="http://www.w3.org/2000/svg" width="60" height="60" fill="none" xmlns:v="https://vecta.io/nano"><path d="M38.508 54.485v-9.301c0-.088-.071-.159-.159-.159h-9.17c-.055 0-.107.023-.145.063l-2.386 2.553c-.018.02-.041.036-.066.046a.2.2 0 0 1-.158 0c-.025-.011-.047-.027-.066-.046l-2.386-2.553c-.018-.02-.041-.036-.066-.046s-.052-.016-.079-.016H3.105c-.088 0-.159.071-.159.159v9.301a4.64 4.64 0 0 0 4.636 4.636h35.562a4.64 4.64 0 0 1-4.636-4.636zM57.054 6.781V5.515A4.64 4.64 0 0 0 52.418.879a4.64 4.64 0 0 0-4.636 4.636v9.46h9.114c.088 0 .159-.071.159-.159v-2.685c0-.055-.023-.107-.063-.145l-2.553-2.386c-.02-.019-.036-.041-.046-.066s-.016-.052-.016-.079.006-.054.016-.079.026-.047.046-.066l2.553-2.386c.04-.038.063-.09.063-.145z" fill="#ffd064"/><path d="M16.855.879a4.64 4.64 0 0 0-4.636 4.636v3.532c2.612.159 6.498.999 10.188 3.047 1.642.911 3.245 2.061 4.681 3.497 5.27 5.27 6.695 12.803 6.565 16.201L22.407 20.547l-3.443-3.444c-.131-.13-.353-.119-.497.025l-1.565 1.566c-.144.144-.155.367-.025.497l3.443 3.443L31.565 33.88c-3.398.13-10.931-1.295-16.201-6.565a20.78 20.78 0 0 1-3.146-4.07v11.36c0 .055.023.107.063.145l2.553 2.386c.02.019.036.041.046.066s.016.052.016.079-.006.054-.016.079-.027.047-.046.066l-2.553 2.386c-.02.018-.036.041-.046.066s-.016.052-.016.079v5.068h11.609c.055 0 .107.023.145.063l2.386 2.553c.019.02.041.036.066.046s.052.016.079.016.054-.006.079-.016.047-.027.066-.046l2.387-2.553c.018-.02.041-.036.066-.047s.052-.016.079-.016h9.17c.088 0 .159.071.159.159v9.301a4.64 4.64 0 0 0 4.636 4.636 4.64 4.64 0 0 0 4.636-4.636V29.813c0-.055-.023-.107-.063-.145l-2.553-2.386c-.02-.018-.036-.041-.046-.066s-.016-.052-.016-.079.006-.054.016-.079.026-.047.046-.066l2.553-2.386c.04-.037.063-.09.063-.145V5.515A4.64 4.64 0 0 1 52.417.879H16.855z" fill="#fff0af"/><path d="M43.699.879c-.398.698-.607 1.489-.606 2.293v18.946c0 .055-.023.107-.063.145l-2.553 2.386c-.02.018-.036.041-.046.066s-.016.052-.016.079.005.054.016.079.027.047.046.066l2.553 2.386c.04.037.063.09.063.145v24.672a4.64 4.64 0 0 1-4.004 4.593c.792 1.424 2.311 2.387 4.055 2.387a4.64 4.64 0 0 0 4.636-4.636V29.813c0-.055-.023-.107-.063-.145l-2.553-2.386c-.02-.018-.036-.041-.046-.066s-.016-.052-.016-.079.005-.054.016-.079.027-.047.046-.066l2.553-2.386c.04-.037.063-.09.063-.145V5.515A4.64 4.64 0 0 1 52.418.879h-8.718z" fill="#ffe07d"/><path d="M41.93 40.386c.117 0 .175-.141.093-.223L18.964 17.104c-.13-.13-.353-.119-.497.025l-1.565 1.566c-.144.144-.155.367-.025.497l21.157 21.157a.13.13 0 0 0 .093.038h3.805z" fill="#c6beb9"/><path d="M33.653 31.793c.13-3.398-1.295-10.931-6.565-16.201-1.436-1.435-3.039-2.586-4.681-3.497v8.452l11.246 11.246zM20.32 22.634h-8.452c.911 1.642 2.061 3.245 3.497 4.681 5.27 5.27 12.803 6.695 16.201 6.565L20.32 22.634z" fill="#f9f6f6"/><path d="M16.877 19.191c-.13-.13-.119-.353.025-.497l1.566-1.566c.144-.144.367-.155.497-.025l3.444 3.444v-8.452C16.441 8.784 9.964 8.628 9.182 9.409s-.626 7.258 2.686 13.225h8.452l-3.443-3.443z" fill="#8e736e"/><path d="M21.552 6.646a.88.88 0 0 0-.879.879.88.88 0 0 0 .879.879h20.37a.88.88 0 0 0 .879-.879.88.88 0 0 0-.879-.879h-20.37zm3.926 29.004a.88.88 0 0 0-.879-.879h-6.521a.88.88 0 0 0-.879.879.88.88 0 0 0 .879.879h6.521a.88.88 0 0 0 .879-.879zm17.398 4.123l-7.932-7.932h6.941c.481 0 .901-.371.915-.852a.88.88 0 0 0-.536-.837.88.88 0 0 0-.343-.07h-7.433a22.87 22.87 0 0 0-.432-2.93h7.829c.481 0 .901-.371.915-.852a.88.88 0 0 0-.536-.837.88.88 0 0 0-.343-.07H33.62a27.06 27.06 0 0 0-1.017-2.93h9.282c.481 0 .901-.371.915-.852a.88.88 0 0 0-.536-.837.88.88 0 0 0-.343-.07H31.799c-.481-.956-1.035-1.903-1.666-2.818-.022-.039-.046-.076-.074-.112h11.826c.481 0 .901-.371.915-.852a.88.88 0 0 0-.536-.837.88.88 0 0 0-.343-.07H28.687a20.42 20.42 0 0 0-3.139-2.93h16.337c.481 0 .901-.371.915-.852a.88.88 0 0 0-.248-.639.86.86 0 0 0-.288-.197.88.88 0 0 0-.343-.069c-19.95 0-19.07.004-19.088-.007a25.19 25.19 0 0 0-3.011-1.416.91.91 0 0 0-.08-.031c-2.219-.864-4.57-1.428-6.644-1.639v-2.72a3.76 3.76 0 0 1 3.757-3.758h31.528c-.919.986-1.481 2.307-1.481 3.758v11.718c0 .481.371.901.852.915a.88.88 0 0 0 .639-.248.88.88 0 0 0 .267-.631v-1.416h8.235a1.04 1.04 0 0 0 1.038-1.038V12.13a1.08 1.08 0 0 0-.342-.787L55.57 9.454l2.021-1.889a1.08 1.08 0 0 0 .342-.787V5.515C57.933 2.469 55.464 0 52.418 0H16.856C13.81 0 11.34 2.469 11.34 5.515v2.626c-1.13-.002-2.272.139-2.78.647-.99.99-.587 4.395-.44 5.415.455 3.154 1.585 6.472 3.22 9.282v11.121a1.08 1.08 0 0 0 .089.429c.059.135.145.257.252.358l2.021 1.889-2.022 1.89a1.08 1.08 0 0 0-.341.786v4.189H3.105a1.04 1.04 0 0 0-1.038 1.038v9.301c0 3.045 2.47 5.514 5.516 5.514h35.562c3.033 0 5.515-2.466 5.515-5.515V29.813a1.07 1.07 0 0 0-.089-.429c-.059-.135-.145-.257-.252-.358l-2.021-1.889 2.021-1.889a1.07 1.07 0 0 0 .252-.358 1.08 1.08 0 0 0 .089-.429v-3.052c0-.481-.371-.901-.852-.915a.88.88 0 0 0-.345.059c-.11.042-.21.107-.294.189a.88.88 0 0 0-.267.631v2.793l-2.337 2.185a1.08 1.08 0 0 0 0 1.573l2.337 2.185V54.41c0 2.102-1.72 3.868-3.822 3.832-2.042-.035-3.692-1.707-3.692-3.757v-9.301a1.04 1.04 0 0 0-1.038-1.038h-9.17a1.08 1.08 0 0 0-.787.341l-1.889 2.021-1.89-2.022a1.08 1.08 0 0 0-.786-.341h-4.942c-.481 0-.901.371-.915.852a.88.88 0 0 0 .879.906h4.684l2.185 2.337a1.08 1.08 0 0 0 1.573 0l2.185-2.337h8.154v8.581a5.5 5.5 0 0 0 1.481 3.758H7.583a3.76 3.76 0 0 1-3.757-3.758v-8.581h10.885c.481 0 .901-.371.915-.852a.88.88 0 0 0-.248-.639c-.082-.084-.18-.152-.288-.197a.88.88 0 0 0-.343-.069h-1.649v-3.894l2.337-2.184a1.08 1.08 0 0 0 0-1.574l-2.337-2.185v-8.23c1.273 1.621 2.719 2.989 4.437 4.192-.105.083-.19.188-.248.309a.88.88 0 0 0-.087.387c.002.489.422.875.912.875h2.008c3.794 1.989 8.063 2.946 11.09 2.926l4.691 4.691H21.589c-.481 0-.901.371-.915.852a.88.88 0 0 0 .879.906h16.179a1.2 1.2 0 0 0 .518.139h3.971a.93.93 0 0 0 .655-1.582zm9.542-38.015c2.072 0 3.757 1.686 3.757 3.758v.969L53.838 8.67a1.08 1.08 0 0 0 0 1.573l2.337 2.185v1.669H48.66V5.515c0-2.072 1.686-3.758 3.758-3.758zM38.721 39.676l-9.948-9.948a.88.88 0 0 0-1.233.011.88.88 0 0 0-.01 1.232l1.937 1.937c-4.252-.47-8.864-2.307-12.253-5.19h1.827a.88.88 0 0 0 .879-.879.88.88 0 0 0-.879-.879h-3.632a20.01 20.01 0 0 1-1.869-2.446h6.534l4.509 4.509a.88.88 0 0 0 1.233-.011.88.88 0 0 0 .01-1.232L18 18.955l.844-.844L40.41 39.675h-1.689 0zM25.94 19.321a.88.88 0 0 0 .879-.879v-1.867a19.47 19.47 0 0 1 1.666 2.021v4.511a.88.88 0 0 0 .879.879.88.88 0 0 0 .879-.879v-1.604a24.66 24.66 0 0 1 1.833 4.862.87.87 0 0 0 .064.252 22.47 22.47 0 0 1 .539 2.961l-9.394-9.394V13.65a20.28 20.28 0 0 1 1.775 1.295v3.499a.88.88 0 0 0 .879.878zM9.821 10.048c.448-.155 1.969-.27 4.212.086a24.73 24.73 0 0 1 4.551 1.189v2.21a.88.88 0 0 0 .879.879.88.88 0 0 0 .879-.879V12.04c.401.182.797.375 1.187.58v5.806l-1.943-1.943c-.473-.473-1.251-.464-1.74.025l-1.565 1.565c-.487.486-.498 1.267-.025 1.74l1.943 1.943h-5.805c-.838-1.597-1.519-3.367-1.992-5.162h1.819a.88.88 0 0 0 .879-.879.88.88 0 0 0-.879-.879h-2.213l-.099-.576c-.356-2.243-.241-3.764-.086-4.212z" fill="#000"/></svg>